<svg xmlns="http://www.w3.org/2000/svg" xmlns:xlink="http://www.w3.org/1999/xlink" viewBox="0 0 1044.49 737.82"><defs><style>.cls-1{fill:url(#linear-gradient);}.cls-2{fill:url(#linear-gradient-2);}.cls-3{fill:url(#linear-gradient-3);}.cls-4{fill:url(#linear-gradient-4);}.cls-5{fill:url(#linear-gradient-5);}.cls-6{fill:url(#linear-gradient-6);}.cls-15,.cls-7{fill:#b3cdfa;}.cls-8{fill:#ecf3ff;}.cls-49,.cls-9{fill:#fff;}.cls-10{fill:#252784;}.cls-11{fill:url(#linear-gradient-7);}.cls-12{fill:url(#linear-gradient-8);}.cls-13{fill:url(#linear-gradient-9);}.cls-14{fill:url(#linear-gradient-10);}.cls-15,.cls-16{opacity:0.47;}.cls-17{fill:url(#linear-gradient-11);}.cls-18{fill:url(#linear-gradient-12);}.cls-19{fill:url(#linear-gradient-13);}.cls-20{fill:url(#linear-gradient-14);}.cls-21{fill:url(#linear-gradient-15);}.cls-22{fill:url(#linear-gradient-16);}.cls-23{fill:url(#linear-gradient-17);}.cls-24{fill:url(#linear-gradient-18);}.cls-25,.cls-26{fill:#7c96c4;}.cls-25{opacity:0.3;}.cls-26{opacity:0.2;}.cls-27{fill:url(#linear-gradient-19);}.cls-28{fill:url(#linear-gradient-20);}.cls-29{fill:url(#linear-gradient-21);}.cls-30{fill:url(#linear-gradient-22);}.cls-31{fill:url(#linear-gradient-23);}.cls-32{fill:url(#linear-gradient-24);}.cls-33{fill:#172b36;}.cls-34{fill:url(#linear-gradient-25);}.cls-35{fill:#0056ec;}.cls-36{fill:url(#linear-gradient-26);}.cls-37{fill:url(#linear-gradient-27);}.cls-38{fill:#005ff0;}.cls-39{fill:url(#linear-gradient-28);}.cls-40{fill:#004fa0;opacity:0.4;}.cls-41{fill:url(#linear-gradient-29);}.cls-42{fill:url(#linear-gradient-30);}.cls-43{fill:url(#linear-gradient-31);}.cls-44{fill:url(#linear-gradient-32);}.cls-45{fill:url(#linear-gradient-33);}.cls-46{fill:url(#linear-gradient-34);}.cls-47{fill:url(#linear-gradient-35);}.cls-48{fill:url(#linear-gradient-36);}.cls-49{opacity:0.5;}.cls-50{fill:url(#linear-gradient-37);}.cls-51{fill:url(#linear-gradient-38);}.cls-52{fill:url(#linear-gradient-39);}.cls-53{fill:url(#linear-gradient-40);}.cls-54{fill:url(#linear-gradient-41);}.cls-55{fill:url(#linear-gradient-42);}.cls-56{fill:url(#linear-gradient-43);}.cls-57{fill:url(#linear-gradient-44);}.cls-58{fill:url(#linear-gradient-45);}.cls-59{fill:url(#linear-gradient-46);}.cls-60{fill:url(#linear-gradient-47);}.cls-61{fill:url(#linear-gradient-48);}.cls-62{fill:url(#linear-gradient-49);}.cls-63{fill:url(#linear-gradient-50);}.cls-64{fill:#f7ede2;}.cls-65{fill:#fff5dc;}.cls-66{fill:#f0daa5;}.cls-67{fill:url(#linear-gradient-51);}</style><linearGradient id="linear-gradient" x1="149.66" y1="136.57" x2="162.22" y2="129.26" gradientUnits="userSpaceOnUse"><stop offset="0" stop-color="#fa902f"/><stop offset="0.17" stop-color="#f7a030"/><stop offset="0.45" stop-color="#f3b530"/><stop offset="0.73" stop-color="#f1c231"/><stop offset="1" stop-color="#f0c631"/></linearGradient><linearGradient id="linear-gradient-2" x1="913.14" y1="111.63" x2="925.7" y2="104.32" xlink:href="#linear-gradient"/><linearGradient id="linear-gradient-3" x1="3474.98" y1="667.35" x2="3489.49" y2="667.35" gradientTransform="translate(3679.87 832.71) rotate(180)" gradientUnits="userSpaceOnUse"><stop offset="0" stop-color="#0056ec"/><stop offset="1" stop-color="#008bec"/></linearGradient><linearGradient id="linear-gradient-4" x1="2120.83" y1="-1201.65" x2="2133.39" y2="-1208.97" gradientTransform="translate(1403.48 2231.15) rotate(-90)" gradientUnits="userSpaceOnUse"><stop offset="0" stop-color="#d0471e"/><stop offset="0.22" stop-color="#d95e13"/><stop offset="0.49" stop-color="#e17308"/><stop offset="0.75" stop-color="#e68002"/><stop offset="1" stop-color="#e88400"/></linearGradient><linearGradient id="linear-gradient-5" x1="928.76" y1="140.08" x2="943.27" y2="140.08" gradientTransform="matrix(1, 0, 0, 1, 0, 0)" xlink:href="#linear-gradient-3"/><linearGradient id="linear-gradient-6" x1="1977.11" y1="1640.14" x2="1991.61" y2="1640.14" gradientTransform="translate(2623.22 -1895.51) rotate(90)" xlink:href="#linear-gradient-3"/><linearGradient id="linear-gradient-7" x1="256.78" y1="71.51" x2="265.23" y2="71.51" gradientTransform="matrix(1, 0, 0, 1, 0, 0)" xlink:href="#linear-gradient-3"/><linearGradient id="linear-gradient-8" x1="269.95" y1="73.53" x2="279.2" y2="68.14" xlink:href="#linear-gradient"/><linearGradient id="linear-gradient-9" x1="284.93" y1="69.59" x2="293.55" y2="69.59" gradientTransform="matrix(1, 0, 0, 1, 0, 0)" xlink:href="#linear-gradient-3"/><linearGradient id="linear-gradient-10" x1="249.61" y1="289.18" x2="284" y2="289.18" gradientUnits="userSpaceOnUse"><stop offset="0" stop-color="#008dec"/><stop offset="1" stop-color="#008bec"/></linearGradient><linearGradient id="linear-gradient-11" x1="24.61" y1="373.63" x2="55.34" y2="355.74" gradientTransform="matrix(1, 0, 0, 1, 0, 0)" xlink:href="#linear-gradient-4"/><linearGradient id="linear-gradient-12" x1="74.13" y1="317.93" x2="102.48" y2="317.93" xlink:href="#linear-gradient-10"/><linearGradient id="linear-gradient-13" x1="115.93" y1="277.07" x2="146.66" y2="259.17" gradientTransform="matrix(1, 0, 0, 1, 0, 0)" xlink:href="#linear-gradient-4"/><linearGradient id="linear-gradient-14" x1="163.6" y1="224.14" x2="191.95" y2="224.14" xlink:href="#linear-gradient-10"/><linearGradient id="linear-gradient-15" x1="21.27" y1="427.98" x2="61.88" y2="427.98" gradientUnits="userSpaceOnUse"><stop offset="0" stop-color="#d1e2ff"/><stop offset="1" stop-color="#ecf3ff"/></linearGradient><linearGradient id="linear-gradient-16" x1="112.59" y1="354.17" x2="153.19" y2="354.17" xlink:href="#linear-gradient-15"/><linearGradient id="linear-gradient-17" x1="157.47" y1="319.46" x2="198.08" y2="319.46" xlink:href="#linear-gradient-15"/><linearGradient id="linear-gradient-18" x1="68" y1="390.87" x2="108.61" y2="390.87" xlink:href="#linear-gradient-15"/><linearGradient id="linear-gradient-19" x1="482.1" y1="664.74" x2="654.79" y2="664.74" xlink:href="#linear-gradient-15"/><linearGradient id="linear-gradient-20" x1="414" y1="681.5" x2="586.7" y2="681.5" xlink:href="#linear-gradient-15"/><linearGradient id="linear-gradient-21" x1="340.95" y1="653.07" x2="387.77" y2="625.8" gradientTransform="matrix(1, 0, 0, 1, 0, 0)" xlink:href="#linear-gradient-4"/><linearGradient id="linear-gradient-22" x1="549.84" y1="200.67" x2="527.67" y2="246.38" gradientUnits="userSpaceOnUse"><stop offset="0" stop-color="#eec9c8"/><stop offset="0.25" stop-color="#edc4c2"/><stop offset="0.57" stop-color="#ecb4b3"/><stop offset="0.93" stop-color="#e99a98"/><stop offset="1" stop-color="#e89492"/></linearGradient><linearGradient id="linear-gradient-23" x1="3779.62" y1="125.45" x2="3779.62" y2="170.22" gradientTransform="matrix(-1, 0.07, 0.07, 1, 4158.44, -162.64)" gradientUnits="userSpaceOnUse"><stop offset="0" stop-color="#e85f5a"/><stop offset="1" stop-color="#eec9c8"/></linearGradient><linearGradient id="linear-gradient-24" x1="3783.24" y1="120.1" x2="3731.57" y2="116.79" gradientTransform="matrix(-1, 0.07, 0.07, 1, 4158.44, -162.64)" gradientUnits="userSpaceOnUse"><stop offset="0" stop-color="#e89492"/><stop offset="0.07" stop-color="#e99a98"/><stop offset="0.43" stop-color="#ecb4b3"/><stop offset="0.75" stop-color="#edc4c2"/><stop offset="1" stop-color="#eec9c8"/></linearGradient><linearGradient id="linear-gradient-25" x1="397.25" y1="158.5" x2="436.28" y2="135.77" gradientTransform="translate(-31.21 149.77) rotate(-4.68)" xlink:href="#linear-gradient"/><linearGradient id="linear-gradient-26" x1="412.21" y1="653.07" x2="459.04" y2="625.8" gradientTransform="matrix(1, 0, 0, 1, 0, 0)" xlink:href="#linear-gradient-4"/><linearGradient id="linear-gradient-27" x1="496.6" y1="275.27" x2="553.15" y2="242.34" xlink:href="#linear-gradient"/><linearGradient id="linear-gradient-28" x1="3735.01" y1="341.4" x2="3846.42" y2="341.4" gradientTransform="matrix(-1, 0, 0, 1, 4193.77, 0)" xlink:href="#linear-gradient-3"/><linearGradient id="linear-gradient-29" x1="77.77" y1="703.35" x2="188" y2="703.35" xlink:href="#linear-gradient-15"/><linearGradient id="linear-gradient-30" x1="83.11" y1="656.72" x2="186.09" y2="656.72" xlink:href="#linear-gradient-15"/><linearGradient id="linear-gradient-31" x1="134.6" y1="594.38" x2="134.6" y2="616.76" gradientUnits="userSpaceOnUse"><stop offset="0" stop-color="#008bec"/><stop offset="1" stop-color="#0056ec"/></linearGradient><linearGradient id="linear-gradient-32" x1="158" y1="554.42" x2="255" y2="554.42" gradientTransform="matrix(1, 0, 0, 1, 0, 0)" xlink:href="#linear-gradient-3"/><linearGradient id="linear-gradient-33" x1="30.7" y1="549.75" x2="57.94" y2="505.31" gradientUnits="userSpaceOnUse"><stop offset="0" stop-color="#0056ec"/><stop offset="1" stop-color="#00c2ec"/></linearGradient><linearGradient id="linear-gradient-34" x1="169.5" y1="538.41" x2="238.28" y2="426.18" xlink:href="#linear-gradient-33"/><linearGradient id="linear-gradient-35" x1="86.75" y1="512.13" x2="151.44" y2="512.13" gradientTransform="matrix(1, 0, 0, 1, 0, 0)" xlink:href="#linear-gradient-3"/><linearGradient id="linear-gradient-36" x1="2711.27" y1="448.87" x2="2696.73" y2="448.19" gradientTransform="matrix(-1, 0, 0, 1, 3510.45, 0)" xlink:href="#linear-gradient-23"/><linearGradient id="linear-gradient-37" x1="792.25" y1="414.22" x2="821.82" y2="460.47" xlink:href="#linear-gradient-22"/><linearGradient id="linear-gradient-38" x1="746.31" y1="649.11" x2="753.69" y2="698.12" gradientTransform="matrix(1, 0, 0, 1, 0, 0)" xlink:href="#linear-gradient-24"/><linearGradient id="linear-gradient-39" x1="713.5" y1="712.89" x2="773.25" y2="678.09" xlink:href="#linear-gradient"/><linearGradient id="linear-gradient-40" x1="764.19" y1="696.81" x2="775.69" y2="697.12" gradientUnits="userSpaceOnUse"><stop offset="0" stop-color="#172b36"/><stop offset="1" stop-color="#325d75"/></linearGradient><linearGradient id="linear-gradient-41" x1="737.67" y1="584.34" x2="756.27" y2="673.23" gradientTransform="matrix(1, 0, 0, 1, 0, 0)" xlink:href="#linear-gradient-3"/><linearGradient id="linear-gradient-42" x1="851.49" y1="417.28" x2="853.14" y2="470.24" gradientTransform="matrix(1, 0, 0, 1, 0, 0)" xlink:href="#linear-gradient-24"/><linearGradient id="linear-gradient-43" x1="863.73" y1="694.21" x2="815.54" y2="691.12" gradientTransform="translate(172.61 -479.29) rotate(13.26)" xlink:href="#linear-gradient-24"/><linearGradient id="linear-gradient-44" x1="833.94" y1="434.12" x2="869.99" y2="434.12" gradientUnits="userSpaceOnUse"><stop offset="0" stop-color="#fff5dc"/><stop offset="0.34" stop-color="#fff6e0"/><stop offset="0.67" stop-color="#fff9eb"/><stop offset="1" stop-color="#fff"/><stop offset="1" stop-color="#fff"/></linearGradient><linearGradient id="linear-gradient-45" x1="697.13" y1="656.03" x2="704.08" y2="702.19" gradientTransform="matrix(1, 0, 0, 1, 0, 0)" xlink:href="#linear-gradient-24"/><linearGradient id="linear-gradient-46" x1="634.76" y1="720.99" x2="696.92" y2="684.78" xlink:href="#linear-gradient"/><linearGradient id="linear-gradient-47" x1="682.74" y1="709.25" x2="697.59" y2="709.66" xlink:href="#linear-gradient-40"/><linearGradient id="linear-gradient-48" x1="673.29" y1="599.44" x2="899.05" y2="599.44" gradientTransform="matrix(1, 0, 0, 1, 0, 0)" xlink:href="#linear-gradient-3"/><linearGradient id="linear-gradient-49" x1="765.51" y1="481.77" x2="694.03" y2="477.19" gradientTransform="matrix(1, 0, 0, 1, 0, 0)" xlink:href="#linear-gradient-24"/><linearGradient id="linear-gradient-50" x1="744.23" y1="490.91" x2="762.77" y2="490.91" xlink:href="#linear-gradient-44"/><linearGradient id="linear-gradient-51" x1="838.33" y1="429.2" x2="901.41" y2="392.47" gradientTransform="matrix(1, 0, 0, 1, 0, 0)" xlink:href="#linear-gradient-4"/></defs><title>Asset 25</title><g id="Layer_2" data-name="Layer 2"><g id="Layer_12" data-name="Layer 12"><polygon class="cls-1" points="151.13 135.66 158.38 123.1 165.64 135.66 151.13 135.66"/><polygon class="cls-2" points="914.61 110.72 921.86 98.16 929.12 110.72 914.61 110.72"/><polygon class="cls-3" points="204.88 159.08 197.63 171.64 190.38 159.08 204.88 159.08"/><polygon class="cls-4" points="200.92 108.86 188.36 101.61 200.92 94.35 200.92 108.86"/><polygon class="cls-5" points="928.76 146.36 936.01 133.8 943.27 146.36 928.76 146.36"/><polygon class="cls-6" points="976.8 81.6 989.36 88.85 976.8 96.1 976.8 81.6"/><path class="cls-7" d="M986.08,214.4a.9.9,0,0,1-.34-.06l-25-10a.9.9,0,0,1-.57-.84V171a.9.9,0,0,1,1.17-.87l24.72,7.42,24.72-7.42a.9.9,0,0,1,1.16.87V203.5a.9.9,0,0,1-.57.84l-25,10A.9.9,0,0,1,986.08,214.4ZM962,202.89l24.07,9.63,24.07-9.63V172.25l-23.81,7.14a.9.9,0,0,1-.52,0L962,172.25Z"/><path class="cls-7" d="M1011.06,171.94a.91.91,0,0,1-.26,0l-24.72-7.41-24.72,7.41a.91.91,0,0,1-.52-1.73l25-7.49a.9.9,0,0,1,.52,0l25,7.49a.91.91,0,0,1-.26,1.77Z"/><polygon class="cls-7" points="986.08 213.31 986.08 178.34 1011.06 171.03 1011.06 203.5 986.08 213.31"/><path class="cls-7" d="M1016.05,256.86a.91.91,0,0,1-.4-.1l-20-10a.91.91,0,0,1-.5-.81V223.48a.9.9,0,0,1,1.22-.85l19.66,7.37,19.66-7.37a.9.9,0,0,1,1.22.85V246a.91.91,0,0,1-.5.81l-20,10A.91.91,0,0,1,1016.05,256.86ZM997,245.4l19.08,9.54,19.08-9.54V224.79l-18.76,7a.92.92,0,0,1-.64,0l-18.76-7Z"/><path class="cls-7" d="M1036,224.39a.91.91,0,0,1-.32-.06L1016.05,217l-19.66,7.37a.91.91,0,0,1-.64-1.7l20-7.49a.92.92,0,0,1,.64,0l20,7.49a.91.91,0,0,1-.32,1.75Z"/><polygon class="cls-7" points="1016.05 255.77 1016.05 230.79 1036.04 223.48 1036.04 245.96 1016.05 255.77"/><path class="cls-7" d="M956.11,279.34a.91.91,0,0,1-.29,0l-30-10a.9.9,0,0,1-.62-.86v-40a.9.9,0,0,1,.38-.73.89.89,0,0,1,.81-.12l29.69,9.9,29.69-9.9a.89.89,0,0,1,.81.12.9.9,0,0,1,.38.73v40a.9.9,0,0,1-.62.86l-30,10A.91.91,0,0,1,956.11,279.34ZM927,267.79l29.07,9.69,29.07-9.69V229.73l-28.78,9.59a.91.91,0,0,1-.57,0L927,229.73Z"/><path class="cls-7" d="M986.08,229.38a.9.9,0,0,1-.29,0l-29.69-9.9-29.69,9.9a.9.9,0,1,1-.57-1.72l30-10a.91.91,0,0,1,.57,0l30,10a.9.9,0,0,1-.29,1.76Z"/><polygon class="cls-7" points="956.11 238.28 956.11 278.25 986.08 268.44 986.08 228.48 956.11 238.28"/><path class="cls-8" d="M896.36,535.94,273.57,488.38c-4.08-.31-7.38-4.62-7.38-9.61V69.21c0-5,3.3-9.3,7.38-9.61L896.36,12a10.15,10.15,0,0,1,11.09,10.28V525.67A10.15,10.15,0,0,1,896.36,535.94Z"/><path class="cls-9" d="M873.88,524.85,251.09,477.29c-4.08-.31-7.38-4.62-7.38-9.61V58.12c0-5,3.3-9.3,7.38-9.61L873.88.94A10.15,10.15,0,0,1,885,11.22V514.58A10.15,10.15,0,0,1,873.88,524.85Z"/><path class="cls-8" d="M885,11.22A10.15,10.15,0,0,0,873.88.94L251.09,48.5c-4.08.31-7.38,4.62-7.38,9.61V96.3L885,58.15Z"/><path class="cls-10" d="M874.73,525.79c-.3,0-.61,0-.92,0L251,478.19c-4.53-.35-8.22-5.06-8.22-10.52V58.12c0-5.45,3.69-10.17,8.22-10.52L873.81,0a11.06,11.06,0,0,1,12.06,11.18V514.58A11.06,11.06,0,0,1,874.73,525.79Zm0-524c-.26,0-.52,0-.78,0L251.16,49.41c-3.61.28-6.55,4.18-6.55,8.71V467.67c0,4.53,2.94,8.44,6.55,8.71L873.95,524a9.26,9.26,0,0,0,10.12-9.37V11.22A9.27,9.27,0,0,0,874.73,1.81Z"/><path class="cls-11" d="M265.23,71.22c0,2.85-1.9,5.29-4.23,5.45s-4.22-2-4.22-4.87,1.89-5.28,4.22-5.45S265.23,68.37,265.23,71.22Z"/><path class="cls-12" d="M279.32,70.27c0,2.87-1.91,5.32-4.27,5.48s-4.26-2-4.26-4.9,1.91-5.31,4.26-5.48S279.32,67.4,279.32,70.27Z"/><path class="cls-13" d="M293.55,69.3c0,2.88-1.93,5.35-4.32,5.51s-4.3-2-4.3-4.92,1.92-5.34,4.3-5.5S293.55,66.42,293.55,69.3Z"/><polygon class="cls-8" points="627.5 85.74 627.5 127.42 876.66 116.82 876.66 71.87 627.5 85.74"/><polygon class="cls-8" points="799.05 509.05 627.5 496.47 627.5 139.25 799.05 132.59 799.05 509.05"/><polygon class="cls-8" points="612.17 314.01 423.02 310.95 423.02 97.12 612.17 86.59 612.17 314.01"/><polygon class="cls-14" points="284 473.51 249.61 470.96 249.61 106.77 284 104.85 284 473.51"/><path class="cls-7" d="M759.77,355.59l-4.44-.11a6.2,6.2,0,0,1-5.9-6.28v-4.6a5.89,5.89,0,0,1,5.9-6l4.44.08a6.2,6.2,0,0,1,5.94,6.28v4.62A5.89,5.89,0,0,1,759.77,355.59Z"/><path class="cls-7" d="M781.65,356.12l-4.5-.11a6.26,6.26,0,0,1-6-6.32v-4.63a5.94,5.94,0,0,1,6-6.06l4.5.08a6.26,6.26,0,0,1,6,6.32v4.65A5.94,5.94,0,0,1,781.65,356.12Z"/><path class="cls-9" d="M654.54,374.92l-4.16-.13a6,6,0,0,1-5.54-6.11v-4.46a5.57,5.57,0,0,1,5.54-5.8l4.16.11a6,6,0,0,1,5.57,6.11v4.48A5.57,5.57,0,0,1,654.54,374.92Z"/><path class="cls-9" d="M675.05,375.55l-4.22-.13a6,6,0,0,1-5.61-6.15v-4.48a5.62,5.62,0,0,1,5.61-5.84l4.22.11a6,6,0,0,1,5.64,6.15v4.51A5.62,5.62,0,0,1,675.05,375.55Z"/><path class="cls-9" d="M695.82,376.18l-4.27-.13a6.08,6.08,0,0,1-5.68-6.19v-4.51a5.68,5.68,0,0,1,5.68-5.87l4.27.11a6.07,6.07,0,0,1,5.71,6.19v4.53A5.68,5.68,0,0,1,695.82,376.18Z"/><path class="cls-9" d="M716.86,376.83l-4.33-.13a6.13,6.13,0,0,1-5.75-6.23v-4.54a5.73,5.73,0,0,1,5.75-5.91l4.33.11a6.13,6.13,0,0,1,5.79,6.23v4.56A5.73,5.73,0,0,1,716.86,376.83Z"/><path class="cls-9" d="M738.18,377.49l-4.38-.13a6.19,6.19,0,0,1-5.83-6.27V366.5a5.78,5.78,0,0,1,5.83-5.95l4.38.11a6.19,6.19,0,0,1,5.86,6.28v4.59A5.78,5.78,0,0,1,738.18,377.49Z"/><path class="cls-7" d="M759.77,378.15l-4.44-.14a6.25,6.25,0,0,1-5.9-6.32v-4.6a5.84,5.84,0,0,1,5.9-6l4.44.11a6.25,6.25,0,0,1,5.94,6.32v4.62A5.84,5.84,0,0,1,759.77,378.15Z"/><path class="cls-7" d="M781.65,378.82l-4.5-.14a6.31,6.31,0,0,1-6-6.36v-4.63a5.9,5.9,0,0,1,6-6l4.5.12a6.31,6.31,0,0,1,6,6.36v4.65A5.9,5.9,0,0,1,781.65,378.82Z"/><path class="cls-9" d="M654.54,396.76l-4.16-.16a6,6,0,0,1-5.54-6.15V386a5.53,5.53,0,0,1,5.54-5.76l4.16.13a6,6,0,0,1,5.57,6.15V391A5.53,5.53,0,0,1,654.54,396.76Z"/><path class="cls-9" d="M675.05,397.53l-4.22-.16a6.07,6.07,0,0,1-5.61-6.19v-4.48a5.58,5.58,0,0,1,5.61-5.8l4.22.14a6.07,6.07,0,0,1,5.64,6.19v4.51A5.58,5.58,0,0,1,675.05,397.53Z"/><path class="cls-9" d="M695.82,398.3l-4.27-.16a6.13,6.13,0,0,1-5.68-6.23V387.4a5.63,5.63,0,0,1,5.68-5.83l4.27.14a6.13,6.13,0,0,1,5.71,6.23v4.53A5.63,5.63,0,0,1,695.82,398.3Z"/><path class="cls-9" d="M716.86,399.09l-4.33-.16a6.18,6.18,0,0,1-5.75-6.27v-4.54a5.68,5.68,0,0,1,5.75-5.87l4.33.14a6.18,6.18,0,0,1,5.79,6.27v4.56A5.68,5.68,0,0,1,716.86,399.09Z"/><path class="cls-9" d="M738.18,399.89l-4.38-.16a6.24,6.24,0,0,1-5.83-6.31v-4.57a5.74,5.74,0,0,1,5.83-5.91l4.38.14A6.24,6.24,0,0,1,744,389.4V394A5.74,5.74,0,0,1,738.18,399.89Z"/><path class="cls-7" d="M759.77,400.7l-4.44-.17a6.3,6.3,0,0,1-5.9-6.36v-4.6a5.79,5.79,0,0,1,5.9-5.94l4.44.14a6.3,6.3,0,0,1,5.94,6.36v4.62A5.79,5.79,0,0,1,759.77,400.7Z"/><path class="cls-7" d="M781.65,401.53l-4.5-.17a6.36,6.36,0,0,1-6-6.4v-4.63a5.85,5.85,0,0,1,6-6l4.5.15a6.36,6.36,0,0,1,6,6.4v4.65A5.85,5.85,0,0,1,781.65,401.53Z"/><path class="cls-9" d="M654.54,418.6l-4.16-.18a6.07,6.07,0,0,1-5.54-6.19v-4.46a5.48,5.48,0,0,1,5.54-5.72l4.16.16a6.06,6.06,0,0,1,5.57,6.19v4.48A5.48,5.48,0,0,1,654.54,418.6Z"/><path class="cls-9" d="M675.05,419.51l-4.22-.19a6.12,6.12,0,0,1-5.61-6.23v-4.48a5.53,5.53,0,0,1,5.61-5.76l4.22.17a6.12,6.12,0,0,1,5.64,6.23v4.51A5.53,5.53,0,0,1,675.05,419.51Z"/><path class="cls-9" d="M695.82,420.43l-4.27-.19a6.18,6.18,0,0,1-5.68-6.27v-4.51a5.59,5.59,0,0,1,5.68-5.79l4.27.17a6.18,6.18,0,0,1,5.71,6.27v4.53A5.58,5.58,0,0,1,695.82,420.43Z"/><path class="cls-9" d="M716.86,421.36l-4.33-.19a6.24,6.24,0,0,1-5.75-6.31v-4.54a5.64,5.64,0,0,1,5.75-5.83l4.33.17a6.23,6.23,0,0,1,5.79,6.31v4.56A5.64,5.64,0,0,1,716.86,421.36Z"/><path class="cls-9" d="M738.18,422.3l-4.38-.19a6.29,6.29,0,0,1-5.83-6.35v-4.57a5.69,5.69,0,0,1,5.83-5.87l4.38.17a6.29,6.29,0,0,1,5.86,6.36v4.59A5.69,5.69,0,0,1,738.18,422.3Z"/><path class="cls-7" d="M759.77,423.26l-4.44-.2a6.35,6.35,0,0,1-5.9-6.4v-4.6a5.75,5.75,0,0,1,5.9-5.9l4.44.17a6.35,6.35,0,0,1,5.94,6.4v4.62A5.75,5.75,0,0,1,759.77,423.26Z"/><path class="cls-7" d="M781.65,424.23l-4.5-.2a6.42,6.42,0,0,1-6-6.44V413a5.8,5.8,0,0,1,6-5.94l4.5.18a6.42,6.42,0,0,1,6,6.44v4.65A5.8,5.8,0,0,1,781.65,424.23Z"/><path class="cls-9" d="M654.54,440.44l-4.16-.21a6.12,6.12,0,0,1-5.54-6.22v-4.46a5.44,5.44,0,0,1,5.54-5.69l4.16.19a6.11,6.11,0,0,1,5.57,6.23v4.48A5.44,5.44,0,0,1,654.54,440.44Z"/><path class="cls-9" d="M675.05,441.49l-4.22-.22a6.17,6.17,0,0,1-5.61-6.27v-4.48a5.49,5.49,0,0,1,5.61-5.72l4.22.19a6.17,6.17,0,0,1,5.64,6.27v4.51A5.49,5.49,0,0,1,675.05,441.49Z"/><path class="cls-9" d="M695.82,442.55l-4.27-.22a6.23,6.23,0,0,1-5.68-6.31v-4.51a5.54,5.54,0,0,1,5.68-5.76l4.27.2a6.23,6.23,0,0,1,5.71,6.31v4.53A5.54,5.54,0,0,1,695.82,442.55Z"/><path class="cls-9" d="M716.86,443.62l-4.33-.22a6.29,6.29,0,0,1-5.75-6.35v-4.54a5.59,5.59,0,0,1,5.75-5.79l4.33.2a6.29,6.29,0,0,1,5.79,6.35v4.56A5.59,5.59,0,0,1,716.86,443.62Z"/><path class="cls-9" d="M738.18,444.71l-4.38-.22A6.35,6.35,0,0,1,728,438.1v-4.57a5.64,5.64,0,0,1,5.83-5.83l4.38.2a6.35,6.35,0,0,1,5.86,6.39v4.59A5.65,5.65,0,0,1,738.18,444.71Z"/><path class="cls-7" d="M759.77,445.82l-4.44-.23a6.41,6.41,0,0,1-5.9-6.44v-4.6a5.7,5.7,0,0,1,5.9-5.86l4.44.2a6.41,6.41,0,0,1,5.94,6.44V440A5.7,5.7,0,0,1,759.77,445.82Z"/><path class="cls-7" d="M781.65,446.94l-4.5-.23a6.47,6.47,0,0,1-6-6.48v-4.63a5.75,5.75,0,0,1,6-5.9l4.5.21a6.47,6.47,0,0,1,6,6.48V441A5.75,5.75,0,0,1,781.65,446.94Z"/><path class="cls-9" d="M654.54,462.28l-4.16-.24a6.17,6.17,0,0,1-5.54-6.26v-4.46a5.4,5.4,0,0,1,5.54-5.65l4.16.22a6.17,6.17,0,0,1,5.57,6.26v4.48A5.4,5.4,0,0,1,654.54,462.28Z"/><path class="cls-9" d="M791.89,118l-11.09.48c-8.12.35-14.68-5.66-14.68-13.43V94.5c0-7.77,6.55-14.43,14.68-14.87L791.89,79c8.22-.45,14.91,5.56,14.91,13.42v10.68C806.8,111,800.11,117.64,791.89,118Z"/><path class="cls-9" d="M849.56,115.5l-11.48.5c-8.4.36-15.18-5.75-15.18-13.65V91.62c0-7.9,6.78-14.68,15.18-15.14l11.48-.63c8.5-.47,15.42,5.64,15.42,13.64v10.86C865,108.35,858.06,115.13,849.56,115.5Z"/><polygon class="cls-7" points="832.98 86.48 832.98 101.37 838.89 101.08 838.89 106.23 844.89 100.8 854.72 100.33 854.72 85.35 832.98 86.48"/><path class="cls-7" d="M793.25,109.07h0c-7.12.19-16-8.55-16.16-15.85a4.8,4.8,0,0,1,2-3.44l1.6-1a2,2,0,0,1,1-.33,1.81,1.81,0,0,1,1.57.73l2.91,4a1.87,1.87,0,0,1-.44,2.58L784,97.07a14.07,14.07,0,0,0,2.36,2.78,14.32,14.32,0,0,0,3,2.17l1.27-1.75a2,2,0,0,1,2.62-.56l4.29,2.65a1.8,1.8,0,0,1,.55,2.5l-1,1.62C796.47,107.46,794.52,109,793.25,109.07Z"/><path class="cls-15" d="M591.58,482.32c0,3.46-2.57,6.09-5.73,5.86a6.54,6.54,0,0,1-5.71-6.66c0-3.45,2.55-6.08,5.71-5.86A6.54,6.54,0,0,1,591.58,482.32Z"/><path class="cls-15" d="M570.77,480.87c0,3.44-2.53,6.05-5.65,5.83s-5.63-3.18-5.63-6.61,2.52-6,5.63-5.83S570.77,477.43,570.77,480.87Z"/><path class="cls-15" d="M551.6,479.53c0,3.42-2.5,6-5.58,5.79s-5.56-3.16-5.56-6.57,2.49-6,5.56-5.8S551.6,476.11,551.6,479.53Z"/><path class="cls-15" d="M532.51,478.2c0,3.4-2.47,6-5.52,5.76s-5.5-3.14-5.5-6.53,2.46-6,5.5-5.76S532.51,474.8,532.51,478.2Z"/><path class="cls-15" d="M515.73,477c0,3.38-2.45,5.95-5.46,5.73s-5.44-3.12-5.44-6.49,2.43-5.94,5.44-5.73S515.73,473.65,515.73,477Z"/><g class="cls-16"><path class="cls-7" d="M586.62,492.55l-.66,0c-5.31-.39-9.64-5.4-9.64-11.18s4.35-10.31,9.76-10,9.69,5.37,9.69,11.18C595.78,488.17,591.76,492.55,586.62,492.55Zm-1.14-19.37c-4.12,0-7.35,3.59-7.35,8.16,0,4.85,3.57,9.05,8,9.37s7.88-3.37,7.88-8.14-3.59-9.08-8-9.38Z"/></g><path class="cls-7" d="M595.14,415.12c-1-9.12-12.59-59-43.2-59.87-24.31-.72-36.7,31.76-43.29,32.37s-11.32-15.8-21.09-13.8-12,17.67-19.34,22.1-12.18.36-24.84-1.06c-9.3-1-16.9,7.46-20.21,11.94Z"/><path class="cls-7" d="M613.25,429.61,409.86,419V329l.93,0,202.46,4.57ZM411.67,417.25,611.44,427.7V335.35l-199.77-4.51Z"/><path class="cls-9" d="M523.86,111.43c-36.12,2.06-64.74,35.82-65,75.8l65-1.63Z"/><path class="cls-7" d="M468.17,188.06c.25,34.18,24.84,61.82,55.68,62V186.68Z"/><path class="cls-7" d="M572.62,184.38c-.27-29.3-21.73-52.17-47.79-51.36v52.56Z"/><path class="cls-9" d="M524.82,228.4c20.64-.52,37.57-19.5,37.84-42.68l-37.84.94Z"/><path class="cls-7" d="M436.22,262.48a.91.91,0,1,1,0-1.81h3.28a.91.91,0,1,1,0,1.81Zm15.81,0a.91.91,0,1,1,0-1.81h3.28a.91.91,0,1,1,0,1.81Zm15.81,0a.91.91,0,1,1,0-1.81h3.28a.91.91,0,1,1,0,1.81Zm15.81,0a.91.91,0,1,1,0-1.81h3.28a.91.91,0,1,1,0,1.81Zm15.81,0a.91.91,0,0,1,0-1.81h3.28a.91.91,0,0,1,0,1.81Zm15.81,0a.91.91,0,1,1,0-1.81h3.28a.91.91,0,0,1,0,1.81Zm15.81,0a.91.91,0,1,1,0-1.81h3.28a.91.91,0,0,1,0,1.81Zm15.81,0a.91.91,0,1,1,0-1.81h3.28a.91.91,0,1,1,0,1.81Zm15.81,0a.91.91,0,1,1,0-1.81H566a.91.91,0,1,1,0,1.81Zm15.81,0a.91.91,0,1,1,0-1.81h3.28a.91.91,0,1,1,0,1.81Zm15.81,0a.91.91,0,1,1,0-1.81h3.28a.91.91,0,1,1,0,1.81Zm8-5.52a.9.9,0,0,1-.91-.91V252.7a.91.91,0,0,1,1.81,0V256A.9.9,0,0,1,602.32,256.89Zm-170.53-4.43a.9.9,0,0,1-.91-.91v-3.28a.91.91,0,0,1,1.81,0v3.28A.9.9,0,0,1,431.79,252.45Zm170.53-11.38a.9.9,0,0,1-.91-.91v-3.28a.91.91,0,0,1,1.81,0v3.28A.9.9,0,0,1,602.32,241.07Zm-170.53-4.43a.9.9,0,0,1-.91-.91v-3.28a.91.91,0,0,1,1.81,0v3.28A.9.9,0,0,1,431.79,236.64Zm170.53-11.38a.9.9,0,0,1-.91-.91v-3.28a.91.91,0,0,1,1.81,0v3.28A.9.9,0,0,1,602.32,225.26Zm-170.53-4.43a.9.9,0,0,1-.91-.91v-3.28a.91.91,0,0,1,1.81,0v3.28A.9.9,0,0,1,431.79,220.82Zm170.53-11.38a.9.9,0,0,1-.91-.91v-3.28a.91.91,0,0,1,1.81,0v3.28A.9.9,0,0,1,602.32,209.44ZM431.79,205a.9.9,0,0,1-.91-.91v-3.28a.91.91,0,0,1,1.81,0v3.28A.9.9,0,0,1,431.79,205Zm170.53-11.38a.9.9,0,0,1-.91-.91v-3.28a.91.91,0,0,1,1.81,0v3.28A.9.9,0,0,1,602.32,193.63Zm-170.53-4.43a.9.9,0,0,1-.91-.91V185a.91.91,0,1,1,1.81,0v3.28A.9.9,0,0,1,431.79,189.19Zm170.53-11.38a.9.9,0,0,1-.91-.91v-3.28a.91.91,0,1,1,1.81,0v3.28A.9.9,0,0,1,602.32,177.81Zm-170.53-4.43a.9.9,0,0,1-.91-.91v-3.28a.91.91,0,0,1,1.81,0v3.28A.9.9,0,0,1,431.79,173.38ZM602.32,162a.9.9,0,0,1-.91-.91v-3.28a.91.91,0,0,1,1.81,0v3.28A.9.9,0,0,1,602.32,162Zm-170.53-4.43a.9.9,0,0,1-.91-.91v-3.28a.91.91,0,0,1,1.81,0v3.28A.9.9,0,0,1,431.79,157.57Zm170.53-11.38a.9.9,0,0,1-.91-.91V142a.91.91,0,1,1,1.81,0v3.28A.9.9,0,0,1,602.32,146.18Zm-170.53-4.43a.9.9,0,0,1-.91-.91v-3.28a.91.91,0,1,1,1.81,0v3.28A.9.9,0,0,1,431.79,141.75Zm170.53-11.38a.9.9,0,0,1-.91-.91v-3.28a.91.91,0,0,1,1.81,0v3.28A.9.9,0,0,1,602.32,130.37Zm-170.53-4.43a.9.9,0,0,1-.91-.91v-3.28a.91.91,0,0,1,1.81,0V125A.9.9,0,0,1,431.79,125.94Zm170.53-11.38a.9.9,0,0,1-.91-.91v-3.28a.91.91,0,1,1,1.81,0v3.28A.9.9,0,0,1,602.32,114.56Zm-170.53-4.43a.9.9,0,0,1-.91-.91v-1.54a6.45,6.45,0,0,1,.31-2,.9.9,0,0,1,1.72.56,4.64,4.64,0,0,0-.22,1.43v1.54A.9.9,0,0,1,431.79,110.12Zm11.24-7a.91.91,0,0,1,0-1.81l3.28-.18a.91.91,0,0,1,.1,1.81l-3.28.18Zm15.79-.85a.91.91,0,0,1,0-1.81l3.28-.18a.91.91,0,0,1,.1,1.81l-3.28.18Zm15.79-.85a.91.91,0,0,1,0-1.81l3.28-.17a.92.92,0,0,1,1,.86.91.91,0,0,1-.86,1l-3.28.18Zm15.79-.85a.91.91,0,0,1,0-1.81l3.28-.18a.92.92,0,0,1,1,.86.91.91,0,0,1-.86,1l-3.28.18Zm15.79-.85a.91.91,0,0,1,0-1.81l3.28-.18a.91.91,0,0,1,.1,1.81l-3.28.17ZM522,98.92a.91.91,0,0,1,0-1.81l3.28-.18a.91.91,0,0,1,.1,1.81l-3.28.18Zm80.25-.17a.91.91,0,0,1-.89-.74,4,4,0,0,0-1.26-2.3.9.9,0,0,1,1.19-1.36,5.81,5.81,0,0,1,1.85,3.34.9.9,0,0,1-.73,1.05Zm-64.46-.67a.91.91,0,0,1,0-1.81l3.28-.17a.91.91,0,0,1,.1,1.81l-3.28.18Zm15.79-.85a.91.91,0,0,1,0-1.81l3.28-.18a.91.91,0,0,1,.1,1.81l-3.28.17Zm15.79-.85a.91.91,0,0,1,0-1.81l3.28-.18a.91.91,0,0,1,.1,1.81l-3.28.17Zm15.79-.85a.91.91,0,0,1,0-1.81l3.28-.18a.91.91,0,0,1,.1,1.81l-3.28.17Z"/><polygon class="cls-7" points="279.32 115.78 253.56 117.11 253.56 112.39 279.32 111.01 279.32 115.78"/><polygon class="cls-7" points="279.32 128.45 253.56 129.67 253.56 120.23 279.32 118.92 279.32 128.45"/><polygon class="cls-7" points="279.32 141.12 253.56 142.23 253.56 132.78 279.32 131.59 279.32 141.12"/><polygon class="cls-8" points="361.64 111.12 292.35 114.72 292.35 104.39 361.64 100.53 361.64 111.12"/><polygon class="cls-8" points="361.64 130.71 292.35 133.85 292.35 123.52 361.64 120.13 361.64 130.71"/><polygon class="cls-8" points="361.64 150.31 292.35 152.98 292.35 142.64 361.64 139.72 361.64 150.31"/><polygon class="cls-8" points="361.64 169.9 292.35 172.11 292.35 161.77 361.64 159.31 361.64 169.9"/><polygon class="cls-8" points="361.64 189.49 292.35 191.24 292.35 180.9 361.64 178.91 361.64 189.49"/><polygon class="cls-8" points="361.64 209.09 292.35 210.37 292.35 200.03 361.64 198.5 361.64 209.09"/><polygon class="cls-8" points="361.64 228.68 292.35 229.49 292.35 219.16 361.64 218.09 361.64 228.68"/><polygon class="cls-8" points="412.95 248.02 292.35 248.62 292.35 238.28 412.95 237.24 412.95 248.02"/><polygon class="cls-8" points="412.95 267.95 292.35 267.75 292.35 257.41 412.95 257.18 412.95 267.95"/><polygon class="cls-8" points="412.95 287.89 292.35 286.88 292.35 276.54 412.95 277.12 412.95 287.89"/><polygon class="cls-8" points="412.95 307.83 292.35 306 292.35 295.67 412.95 297.06 412.95 307.83"/><polygon class="cls-8" points="387.46 327.21 292.35 325.13 292.35 314.8 387.46 316.53 387.46 327.21"/><polygon class="cls-8" points="387.46 346.98 292.35 344.26 292.35 333.92 387.46 336.3 387.46 346.98"/><polygon class="cls-8" points="387.46 366.74 292.35 363.39 292.35 353.05 387.46 356.06 387.46 366.74"/><polygon class="cls-8" points="387.46 386.51 292.35 382.52 292.35 372.18 387.46 375.83 387.46 386.51"/><polygon class="cls-8" points="387.46 406.28 292.35 401.64 292.35 391.31 387.46 395.6 387.46 406.28"/><polygon class="cls-8" points="387.46 426.04 292.35 420.77 292.35 410.44 387.46 415.36 387.46 426.04"/><polygon class="cls-8" points="387.46 445.81 292.35 439.9 292.35 429.56 387.46 435.13 387.46 445.81"/><polygon class="cls-8" points="387.46 465.58 292.35 459.03 292.35 448.69 387.46 454.89 387.46 465.58"/><path class="cls-8" d="M479.72,479.15l-7-.5c0-18.68-13.32-34.68-29.53-35.65-16-1-29,13.16-29,31.48l-6.71-.48c0-22.57,15.9-40,35.67-38.88C463.22,436.28,479.72,456,479.72,479.15Z"/><path class="cls-7" d="M414.22,474.49l-6.71-.48c0-15.81,8-29.88,20.45-35.88l2.88,7.27C420.72,450.24,414.22,461.65,414.22,474.49Z"/><path class="cls-7" d="M446.37,474.1h0l-9.84-15.28h0a1.17,1.17,0,0,0-1.54-.5,1.43,1.43,0,0,0-.57,1.66h0l5,17.85h0a5.33,5.33,0,0,0,.26.74c1,2.31,3.46,3.34,5.41,2.29s2.7-3.78,1.66-6.1A5.12,5.12,0,0,0,446.37,474.1Zm-2.28,4.55a1.86,1.86,0,0,1-2.54-1.07,2.22,2.22,0,0,1,.78-2.86,1.86,1.86,0,0,1,2.54,1.07A2.22,2.22,0,0,1,444.09,478.65Z"/><path class="cls-7" d="M577,118.9l-14.79.68a.26.26,0,0,0-.23.27v7.27a.23.23,0,0,0,.23.25l5.62-.24a.22.22,0,0,1,.2.12l1.35,2.51a.22.22,0,0,0,.41,0l1.35-2.63a.24.24,0,0,1,.2-.14l5.65-.25a.26.26,0,0,0,.24-.27v-7.31A.23.23,0,0,0,577,118.9Z"/><path class="cls-9" d="M584.68,220.92l-14.86.2a.25.25,0,0,0-.23.26v7.29a.24.24,0,0,0,.23.26l5.65-.06a.23.23,0,0,1,.2.13l1.36,2.56a.23.23,0,0,0,.41,0l1.36-2.59a.24.24,0,0,1,.2-.13l5.68-.06a.25.25,0,0,0,.24-.26v-7.33A.24.24,0,0,0,584.68,220.92Z"/><path class="cls-7" d="M454.06,214.68l-13.65.22a.24.24,0,0,0-.22.25v7a.23.23,0,0,0,.22.24l5.19-.07a.21.21,0,0,1,.19.12l1.25,2.46a.2.2,0,0,0,.37,0l1.25-2.49a.22.22,0,0,1,.19-.13l5.22-.07a.24.24,0,0,0,.22-.25v-7A.23.23,0,0,0,454.06,214.68Z"/><path class="cls-9" d="M457.07,129.54l-13.68.61a.25.25,0,0,0-.22.26v7a.22.22,0,0,0,.22.24l5.2-.22a.2.2,0,0,1,.19.12L450,140a.2.2,0,0,0,.38,0l1.25-2.53a.23.23,0,0,1,.19-.13l5.23-.22a.25.25,0,0,0,.22-.26v-7A.22.22,0,0,0,457.07,129.54Z"/><polygon class="cls-8" points="412.95 228.08 366.98 228.62 366.98 100.24 412.95 97.68 412.95 228.08"/><polygon class="cls-8" points="876.34 140.93 804.34 143.49 804.34 132.71 876.34 129.92 876.34 140.93"/><polygon class="cls-8" points="876.34 158.92 804.34 161.1 804.34 150.32 876.34 147.9 876.34 158.92"/><polygon class="cls-8" points="876.34 176.91 804.34 178.71 804.34 167.93 876.34 165.89 876.34 176.91"/><polygon class="cls-8" points="876.34 194.9 804.34 196.32 804.34 185.54 876.34 183.88 876.34 194.9"/><polygon class="cls-8" points="876.34 212.88 804.34 213.93 804.34 203.15 876.34 201.87 876.34 212.88"/><polygon class="cls-8" points="876.34 230.87 804.34 231.54 804.34 220.76 876.34 219.85 876.34 230.87"/><polygon class="cls-8" points="876.34 248.86 804.34 249.15 804.34 238.37 876.34 237.84 876.34 248.86"/><polygon class="cls-8" points="876.34 266.85 804.34 266.76 804.34 255.98 876.34 255.83 876.34 266.85"/><polygon class="cls-8" points="876.34 284.83 804.34 284.37 804.34 273.59 876.34 273.82 876.34 284.83"/><polygon class="cls-8" points="876.34 302.82 804.34 301.98 804.34 291.2 876.34 291.8 876.34 302.82"/><polygon class="cls-8" points="876.34 320.81 804.34 319.59 804.34 308.81 876.34 309.79 876.34 320.81"/><polygon class="cls-8" points="876.34 338.8 804.34 337.2 804.34 326.42 876.34 327.78 876.34 338.8"/><polygon class="cls-8" points="876.34 356.78 804.34 354.81 804.34 344.03 876.34 345.77 876.34 356.78"/><polygon class="cls-8" points="876.34 374.77 804.34 372.43 804.34 361.64 876.34 363.75 876.34 374.77"/><polygon class="cls-8" points="876.34 392.76 804.34 390.04 804.34 379.25 876.34 381.74 876.34 392.76"/><polygon class="cls-8" points="876.34 410.75 804.34 407.64 804.34 396.86 876.34 399.73 876.34 410.75"/><polygon class="cls-8" points="876.34 428.73 804.34 425.25 804.34 414.47 876.34 417.72 876.34 428.73"/><polygon class="cls-8" points="876.34 446.72 804.34 442.87 804.34 432.08 876.34 435.7 876.34 446.72"/><polygon class="cls-8" points="876.34 464.71 804.34 460.48 804.34 449.69 876.34 453.69 876.34 464.71"/><polygon class="cls-8" points="876.34 482.7 804.34 478.09 804.34 467.3 876.34 471.68 876.34 482.7"/><polygon class="cls-8" points="876.34 500.68 804.34 495.7 804.34 484.91 876.34 489.67 876.34 500.68"/><polygon class="cls-8" points="876.34 518.67 804.34 513.31 804.34 502.52 876.34 507.65 876.34 518.67"/><path class="cls-9" d="M709.35,156.1v62l-57.74.79c.36,33,25.62,59.7,57.24,59.79,32.42.1,59.13-27.72,59.13-62.14C768,182.35,741.55,155.39,709.35,156.1Z"/><path class="cls-7" d="M651.6,218.21c0,.07,0,.14,0,.2l57.25-.8V156.1C677,157.08,651.6,184.89,651.6,218.21Z"/><path class="cls-7" d="M773.38,291.56l-3.29,0a.91.91,0,0,1,0-1.81h0l3.28,0A4.72,4.72,0,0,0,776,289a.91.91,0,1,1,1,1.51A6.53,6.53,0,0,1,773.38,291.56Zm-15.81-.1h0l-3.28,0a.91.91,0,0,1,0-1.81h0l3.28,0a.91.91,0,0,1,0,1.81Zm-15.81-.1h0l-3.28,0a.91.91,0,0,1-.9-.91.93.93,0,0,1,.91-.9l3.28,0a.91.91,0,0,1,0,1.81Zm-15.81-.1h0l-3.28,0a.91.91,0,0,1,0-1.81h0l3.28,0a.91.91,0,0,1,0,1.81Zm-15.81-.1h0l-3.28,0a.91.91,0,0,1,0-1.81h0l3.28,0a.91.91,0,0,1,0,1.81Zm-15.81-.1h0L691,291a.91.91,0,0,1,0-1.81h0l3.28,0a.91.91,0,0,1,0,1.81ZM678.5,291h0l-3.28,0a.91.91,0,0,1,0-1.81h0l3.28,0a.91.91,0,0,1,0,1.81Zm-15.81-.1h0l-3.28,0a.91.91,0,0,1,0-1.81h0l3.28,0a.91.91,0,0,1,0,1.81Zm-15.81-.1h-.32a6,6,0,0,1-3.29-1,.91.91,0,1,1,1-1.51,4.17,4.17,0,0,0,2.29.71h.32a.91.91,0,0,1,0,1.81ZM779.12,279a.9.9,0,0,1-.91-.9v-3.28a.91.91,0,0,1,1.81,0v3.28A.9.9,0,0,1,779.12,279Zm-137.89-.78a.9.9,0,0,1-.91-.91V274a.91.91,0,0,1,1.81,0v3.28A.9.9,0,0,1,641.22,278.22Zm137.89-15a.9.9,0,0,1-.91-.91V259a.91.91,0,0,1,1.81,0v3.28A.9.9,0,0,1,779.12,263.19Zm-137.89-.78a.9.9,0,0,1-.91-.91v-3.28a.91.91,0,0,1,1.81,0v3.28A.9.9,0,0,1,641.22,262.41Zm137.89-15a.9.9,0,0,1-.91-.91v-3.28a.91.91,0,0,1,1.81,0v3.28A.9.9,0,0,1,779.12,247.38Zm-137.89-.78a.9.9,0,0,1-.91-.91v-3.28a.91.91,0,0,1,1.81,0v3.28A.9.9,0,0,1,641.22,246.59Zm137.89-15a.9.9,0,0,1-.91-.91v-3.28a.91.91,0,0,1,1.81,0v3.28A.9.9,0,0,1,779.12,231.56Zm-137.89-.78a.9.9,0,0,1-.91-.91v-3.28a.91.91,0,0,1,1.81,0v3.28A.9.9,0,0,1,641.22,230.78Zm137.89-15a.9.9,0,0,1-.91-.91v-3.28a.91.91,0,0,1,1.81,0v3.28A.9.9,0,0,1,779.12,215.75ZM641.22,215a.9.9,0,0,1-.91-.91v-3.28a.91.91,0,0,1,1.81,0v3.28A.9.9,0,0,1,641.22,215Zm137.89-15a.9.9,0,0,1-.91-.91v-3.28a.91.91,0,0,1,1.81,0V199A.9.9,0,0,1,779.12,199.93Zm-137.89-.78a.9.9,0,0,1-.91-.91V195a.91.91,0,1,1,1.81,0v3.28A.9.9,0,0,1,641.22,199.15Zm137.89-15a.9.9,0,0,1-.91-.91v-3.28a.91.91,0,0,1,1.81,0v3.28A.9.9,0,0,1,779.12,184.12Zm-137.89-.78a.9.9,0,0,1-.91-.91v-3.28a.91.91,0,0,1,1.81,0v3.28A.9.9,0,0,1,641.22,183.34Zm137.89-15a.9.9,0,0,1-.91-.91v-3.28a.91.91,0,0,1,1.81,0v3.28A.9.9,0,0,1,779.12,168.3Zm-137.89-.78a.9.9,0,0,1-.91-.91v-3.28a.91.91,0,0,1,1.81,0v3.28A.9.9,0,0,1,641.22,167.52Zm137.89-15a.9.9,0,0,1-.91-.91v-3.06a1,1,0,0,1,.86-1,.82.82,0,0,1,.95.77c0,.1,0,.19,0,.29v3A.9.9,0,0,1,779.12,152.49Zm-137.51-.73a.9.9,0,0,1-.31-.06.91.91,0,0,1-.53-1.16,6.85,6.85,0,0,1,2.2-3,.91.91,0,0,1,1.11,1.43,5,5,0,0,0-1.61,2.22A.91.91,0,0,1,641.61,151.76Zm14.17-4.06a.9.9,0,0,1,0-1.81l3.28-.11a.89.89,0,0,1,.94.87.91.91,0,0,1-.87.94l-3.28.11Zm15.81-.54a.9.9,0,0,1,0-1.81l3.28-.11a.9.9,0,1,1,.06,1.81l-3.28.11Zm15.81-.54a.9.9,0,0,1,0-1.81l3.28-.11a.9.9,0,1,1,.06,1.81l-3.28.11Zm15.81-.54a.9.9,0,0,1,0-1.81l3.28-.11a.9.9,0,1,1,.06,1.81l-3.28.11Zm15.81-.54a.9.9,0,0,1,0-1.81l3.28-.11a.89.89,0,0,1,.94.87.91.91,0,0,1-.88.94l-3.28.11Zm15.8-.54a.9.9,0,0,1,0-1.81l3.28-.11a.89.89,0,0,1,.94.87.91.91,0,0,1-.88.94l-3.28.11Zm15.81-.54a.9.9,0,0,1,0-1.81l3.28-.11a.89.89,0,0,1,.94.87.91.91,0,0,1-.87.94l-3.28.11Zm15.81-.54a.9.9,0,0,1,0-1.81l3.28-.11a.88.88,0,0,1,.94.87.91.91,0,0,1-.87.94l-3.28.11Z"/><path class="cls-17" d="M55.31,357.17H27.83a.44.44,0,0,0-.44.44v12.31a.44.44,0,0,0,.44.44H38.31a.43.43,0,0,1,.38.22l2.51,4.34a.44.44,0,0,0,.75,0l2.51-4.34a.44.44,0,0,1,.38-.22H55.31a.44.44,0,0,0,.44-.44V357.6A.44.44,0,0,0,55.31,357.17Z"/><path class="cls-18" d="M102,308.95H74.57a.44.44,0,0,0-.44.44v12.31a.44.44,0,0,0,.44.44H85a.43.43,0,0,1,.38.22l2.51,4.34a.44.44,0,0,0,.75,0l2.51-4.34a.44.44,0,0,1,.38-.22H102a.44.44,0,0,0,.44-.44V309.38A.44.44,0,0,0,102,308.95Z"/><path class="cls-19" d="M146.63,260.6H119.15a.44.44,0,0,0-.44.44v12.31a.44.44,0,0,0,.44.44h10.48a.44.44,0,0,1,.38.22l2.51,4.34a.44.44,0,0,0,.75,0l2.51-4.34a.43.43,0,0,1,.38-.22h10.48a.44.44,0,0,0,.44-.44V261A.44.44,0,0,0,146.63,260.6Z"/><path class="cls-20" d="M191.51,215.16H164a.44.44,0,0,0-.44.44V227.9a.44.44,0,0,0,.44.44h10.48a.44.44,0,0,1,.38.22l2.51,4.34a.44.44,0,0,0,.75,0l2.51-4.34a.44.44,0,0,1,.38-.22h10.48a.44.44,0,0,0,.44-.44V215.59A.44.44,0,0,0,191.51,215.16Z"/><ellipse class="cls-8" cx="41.57" cy="403.28" rx="20.3" ry="8.8"/><path class="cls-21" d="M41.57,412.08c-11.21,0-20.3-3.94-20.3-8.8v40.61c0,4.86,9.09,8.8,20.3,8.8s20.3-3.94,20.3-8.8V403.28C61.88,408.14,52.79,412.08,41.57,412.08Z"/><ellipse class="cls-8" cx="132.89" cy="309.16" rx="20.3" ry="8.8"/><path class="cls-22" d="M132.89,318c-11.21,0-20.3-3.94-20.3-8.8v81.21c0,4.86,9.09,8.8,20.3,8.8s20.3-3.94,20.3-8.8V309.16C153.19,314,144.1,318,132.89,318Z"/><ellipse class="cls-8" cx="177.77" cy="264.31" rx="20.3" ry="8.8"/><path class="cls-23" d="M177.77,273.11c-11.21,0-20.3-3.94-20.3-8.8V365.82c0,4.86,9.09,8.8,20.3,8.8s20.3-3.94,20.3-8.8V264.3C198.08,269.17,189,273.11,177.77,273.11Z"/><ellipse class="cls-8" cx="88.31" cy="356.01" rx="20.3" ry="8.8"/><path class="cls-24" d="M88.31,364.81c-11.21,0-20.3-3.94-20.3-8.8v60.91c0,4.86,9.09,8.8,20.3,8.8s20.3-3.94,20.3-8.8V356C108.61,360.87,99.52,364.81,88.31,364.81Z"/><path class="cls-25" d="M580.43,228.08c-1.79,1.53-6.83,7.49-6.83,7.49s6.73-11.21,7.36-12.23-.37-2.3-1.22-2a7.12,7.12,0,0,1,.64-1.34c.86-1-.95-2.55-3.06-.36s-8.75,11.14-9.81,11.06,4.25-11,5-13.08-1.7-2.41-5.32,3.29-7.84,14-9.74,15.7-3.12-.79-3.61-2.44-4.16-7.06-6-5.21,1.14,3.71,1.07,5.64a19.16,19.16,0,0,0,1.4,10.07c.76,1.79,1.59,3.43,2.33,4.8a9.47,9.47,0,0,0-1.31,1.41l-.89,1.22a3.71,3.71,0,0,0-2.31,1.54h0l0,0-.06.08L525.19,285l-56.91.59H468a18.27,18.27,0,0,0-2.82.31c-3.5-2.31-12.07-7-26.06-8.83a12.36,12.36,0,0,0-6.53-7.85L431.36,264a24.35,24.35,0,0,0,12.8-29l-4.58-15.17a24.23,24.23,0,0,0-7.45-11.41l-.29-.81,3.73-1.33,0-.11A11.36,11.36,0,0,0,421,199.23l-13.89,4.95-7.54,2.69a19.72,19.72,0,0,0-12,25.19l8.06,22.62a10.26,10.26,0,0,0,6.86,6.43l2,8.72a6.62,6.62,0,0,0-5.77,7.1l.28,3.4c-20.51,6.26-30.48,17.92-31.8,20.32a1.18,1.18,0,0,0-.07.32,18.15,18.15,0,0,0-2.1,5.34s-6,27.33-10.77,49.22a14.3,14.3,0,0,0-.51,3.18s0,.05,0,.08a14.29,14.29,0,0,0,9,14l26.31,15.91c-.39,15.64-.84,34.44-1,44.08a5.23,5.23,0,0,0,.8,2.85c-2.52,19.06-4.8,36.46-6.87,52.38l41.57,3.17c3.91-17.88,7.13-32.61,8.93-40.85,0,10.28.11,24.87.18,41.54L473.11,495c2.94-31.4,5.16-55,5.16-55l.12-1.46.15-1.69c.06-.7.11-1.41.11-2.14a23.12,23.12,0,0,0-.47-4.65,4.36,4.36,0,0,0,.4-1.86c-.22-10.44-5.14-67.89-8.49-106.14.27,0,.54,0,.8-.06h0l63.91-8.54h.09a14.3,14.3,0,0,0,11.49-9.15,14.24,14.24,0,0,0,2.48-3.54h0c10.08-20.45,17.86-36.7,18.53-38.26a3.28,3.28,0,0,0-.42-3,8,8,0,0,0,.64-3.4,12.85,12.85,0,0,0,.67-1.27c6.14-11.49,13.9-26,14.13-26.34C582.81,227.86,582.21,226.55,580.43,228.08ZM385.36,354.53l.43-1.1.84,2.07Z"/><path class="cls-8" d="M1044.49,656.36c-1.34-5.67-16.18-36.64-56.09-36.64-32.25,0-48.88,21.08-57.79,21.64s-15.38-9.9-28.74-8.38-16.6,11.77-26.72,14.86-17,.59-34.81,0c-13.19-.42-24,5.42-28.76,8.49Z"/><polygon class="cls-26" points="480.72 689.49 606.73 694.24 653.42 652.36 556.2 649.37 480.72 689.49"/><polygon class="cls-27" points="482.1 682.9 608.11 687.65 654.79 645.77 559.9 641.82 482.1 682.9"/><polygon class="cls-26" points="412.63 706.25 538.63 711.01 585.32 669.13 488.1 666.14 412.63 706.25"/><polygon class="cls-28" points="414 699.66 540.01 704.41 586.7 662.53 491.8 658.59 414 699.66"/><ellipse class="cls-8" cx="403.39" cy="643.57" rx="100.77" ry="24.15"/><path class="cls-29" d="M342.19,642.43v-8.23a2.78,2.78,0,0,1,2.78-2.78l17.91-.07-.18-3.82a1.32,1.32,0,0,1,2-1.28l9.16,5.8a9.11,9.11,0,0,0,5.59,1.51l9.29-.46a3.77,3.77,0,0,1,4,3.51l.4,5.8Z"/><path class="cls-30" d="M530.51,226.12a59.79,59.79,0,0,0,3.91,7.54c-1.71,2.86-5.9,10.73-4.36,7.86l11.78,6.67c.64-1.88,6.44-11.37,6.63-12,6.14-11.49,13.9-26,14.13-26.34.39-.56-.21-1.87-2-.34s-6.83,7.49-6.83,7.49,6.73-11.21,7.36-12.23-.37-2.3-1.22-2a7.11,7.11,0,0,1,.64-1.34c.86-1-.95-2.55-3.06-.36s-8.75,11.14-9.81,11.06,4.25-11,5-13.08-1.7-2.41-5.32,3.29-7.84,14-9.74,15.7-3.12-.79-3.61-2.44-4.16-7.06-6-5.21,1.14,3.71,1.07,5.64A19.16,19.16,0,0,0,530.51,226.12Z"/><ellipse class="cls-8" cx="543.34" cy="622.63" rx="35.6" ry="8.53"/><path class="cls-31" d="M396.43,217.06a13.7,13.7,0,0,0-15.77,16.6h0l8.73,37.44,0,.13v0h0A13.71,13.71,0,1,0,416.12,265h0l-8.73-37.44,0-.12v0h0A13.71,13.71,0,0,0,396.43,217.06Z"/><path class="cls-32" d="M408.06,246.75l-.47.14a24.37,24.37,0,0,1-30.38-16.28l-4.58-15.17a24.37,24.37,0,0,1,16.28-30.38l.47-.14a24.37,24.37,0,0,1,30.38,16.28l4.59,15.17A24.37,24.37,0,0,1,408.06,246.75Z"/><path class="cls-33" d="M379.77,188.28l7.54-2.69,13.89-4.95a11.36,11.36,0,0,1,14.51,6.89l0,.11L412,189l4.14,11.63A9.75,9.75,0,0,1,412,212.22l-.17-.49a5.38,5.38,0,0,0-6.87-3.26l-.1,0a5.38,5.38,0,0,0-3.26,6.87l3.65,10.25A10.28,10.28,0,0,1,399,238.76l-10,3.57a10.28,10.28,0,0,1-13.13-6.24l-8.06-22.62A19.72,19.72,0,0,1,379.77,188.28Z"/><path class="cls-34" d="M420.12,265.82l-40.24,3.3L379,258.33a6.64,6.64,0,0,1,6.07-7.16l21.3-1.74a12.37,12.37,0,0,1,13.34,11.32Z"/><path class="cls-35" d="M421.73,640a9.42,9.42,0,0,1-5.73-9.94l10.26-77.23a9.41,9.41,0,1,1,18.66,2.48l-10.26,77.23A9.42,9.42,0,0,1,421.73,640Z"/><path class="cls-36" d="M413.46,642.43v-8.23a2.78,2.78,0,0,1,2.78-2.78l17.91-.07-.18-3.82a1.32,1.32,0,0,1,2-1.28l9.16,5.8a9.11,9.11,0,0,0,5.59,1.51l9.29-.46a3.78,3.78,0,0,1,4,3.51l.4,5.8Z"/><path class="cls-35" d="M406.52,367.51h0L357,329.39h0a14.29,14.29,0,1,0-16.11,23.54h0l53.46,32.34h0a10.78,10.78,0,0,0,12.16-17.77Z"/><path class="cls-35" d="M380.14,298.18h0a18.25,18.25,0,1,0-34.84-10.47s-6.16,28.14-11,50.19h0a14.29,14.29,0,0,0,27.28,8.2h0l0-.12,0-.1Z"/><path class="cls-35" d="M349.51,637.37a9.42,9.42,0,0,1-5.73-9.94L354,550.19a9.41,9.41,0,0,1,18.66,2.48L362.44,629.9a9.42,9.42,0,0,1-12.93,7.46Z"/><path class="cls-33" d="M438.91,630.43c.89-10.17,19.54-209.08,19.54-209.08l.12-1.46.15-1.69c.06-.7.11-1.41.11-2.14a23.1,23.1,0,0,0-46.2,0s.93,207,.83,214.84S438,640.6,438.91,630.43Z"/><path class="cls-33" d="M368.4,632.83c3.11-12.49,45.86-208.24,45.86-208.24L415,421a23.37,23.37,0,0,0,.55-4.95,23.09,23.09,0,0,0-46-2.89l-.27,2c-22.53,170.48-26.42,211.12-27,218.39C341.61,641.54,366.26,641.44,368.4,632.83Z"/><path class="cls-37" d="M515.26,284A12.46,12.46,0,0,1,508,264.48l1.28-1.74,22.29-30.41a9,9,0,0,1,16,7.17,9.11,9.11,0,0,1-.71,2l-.71,1.45-16.09,32.65-.89,1.79A12.41,12.41,0,0,1,515.26,284Z"/><path class="cls-38" d="M527.45,280.26A14.29,14.29,0,0,0,513,266.34h0l-64.56.67h-.28a18.26,18.26,0,0,0,.94,36.51,18.47,18.47,0,0,0,2-.16h0L515,294.81h.09A14.3,14.3,0,0,0,527.45,280.26Z"/><path class="cls-38" d="M547.57,243.86c2.36-5.47-15.68-14.31-19.22-8.77h0l0,0-.06.08-23.57,32.15h0A14.29,14.29,0,1,0,529,282.11h0C539.12,261.67,546.9,245.42,547.57,243.86Z"/><path class="cls-39" d="M347.46,282.05c1.68-3,17.26-21,50.63-23.91s49.09,10.5,49.09,10.5,11.23,125,11.57,140.92-90.83,23-90.49,4.65,1.66-69.65,1.66-69.65S345.49,285.62,347.46,282.05Z"/><ellipse class="cls-40" cx="136.36" cy="707.41" rx="55.11" ry="18.01"/><ellipse class="cls-41" cx="132.88" cy="703.35" rx="55.11" ry="18.01"/><path class="cls-9" d="M132.89,719.21c-26.18,0-46.69-7-46.69-15.87s20.51-15.87,46.69-15.87,46.69,7,46.69,15.87S159.07,719.21,132.89,719.21Zm0-29.92C106,689.29,88,696.56,88,703.35s18,14.06,44.88,14.06,44.88-7.27,44.88-14.06S159.73,689.29,132.89,689.29Z"/><ellipse class="cls-26" cx="132.88" cy="703.35" rx="28.1" ry="9.18"/><path class="cls-42" d="M135.12,708.94h-1c-28.15,0-51-22.08-51-49.33v-55.1h103v55.1C186.09,686.85,163.27,708.94,135.12,708.94Z"/><ellipse class="cls-7" cx="134.6" cy="604.51" rx="51.49" ry="12.31"/><path class="cls-43" d="M184.4,604.52c0,2.84-7.71,6.41-21.32,8.6l-1.36.22c-2.64.4-5.5.74-8.54,1-.47.05-1,.11-1.45.14-4.18.34-8.74.58-13.61.65-.45,0-.91,0-1.38,0-.71,0-1.41,0-2.14,0A191.46,191.46,0,0,1,112.66,614c-.49,0-1-.11-1.43-.16-16.76-2.06-26.43-6.14-26.43-9.32,0-2.9,8-6.53,22.07-8.73l1.36-.2a185,185,0,0,1,26.37-1.74c2,0,3.91,0,5.79.07l1.34.05a173.93,173.93,0,0,1,17.54,1.38,4.52,4.52,0,0,1,.49.07l1,.13a3.34,3.34,0,0,1,.42.07C175.95,597.78,184.4,601.55,184.4,604.52Z"/><path class="cls-44" d="M159.9,599.26c3.17,3.73,31.39-.35,46.74-10.28s14.46-17.13,20.7-23.85,16.09-8.66,21.77-17.6c8.22-13,7.22-37.67.8-39.26-4.74-1.17-8.8,13.65-23.1,16.61s-31.23.85-48.35,16.17C163.12,554.77,153.78,592.07,159.9,599.26Z"/><path class="cls-7" d="M153.17,614.35c.72-2.37,1.47-4.67,2.24-6.81a97.64,97.64,0,0,1,4.49-10.39c.25-.54.52-1.07.81-1.59.11-.24.24-.47.36-.69,18.74-35.41,54.2-52.44,70.27-60.17,2-1,3.66-1.76,4.89-2.41a25.9,25.9,0,0,0,14.34-24.08.69.69,0,0,0-.74-.62.67.67,0,0,0-.6.74,24.56,24.56,0,0,1-13.63,22.75c-1.23.63-2.86,1.43-4.85,2.39-15.91,7.64-50.67,24.33-69.86,58.85q-.62,1.09-1.19,2.23c-.14.25-.29.52-.43.8a104.22,104.22,0,0,0-5.12,11.73c-.85,2.32-1.67,4.82-2.43,7.4Z"/><path class="cls-7" d="M243.79,529.28a27.33,27.33,0,0,1-3-.15.68.68,0,0,1,.16-1.35c.09,0,9,1,13.62-2.78a.68.68,0,0,1,.87,1C252.11,528.79,247,529.28,243.79,529.28Z"/><path class="cls-7" d="M222.43,539a.68.68,0,0,1-.6-.35c-3.08-5.64,1.14-13.23,1.32-13.56a.68.68,0,0,1,1.18.67c0,.07-4,7.26-1.31,12.24a.68.68,0,0,1-.59,1Z"/><path class="cls-7" d="M246.95,541.11c-8.84,0-17.7-5.25-18.15-5.52a.68.68,0,0,1,.7-1.16c.13.08,13.26,7.85,23,4.45a.68.68,0,1,1,.45,1.28A18,18,0,0,1,246.95,541.11Z"/><path class="cls-7" d="M193,557.48a.68.68,0,0,1-.6-.36c-6-11,4-26.79,4.38-27.46a.68.68,0,1,1,1.15.73c-.1.16-9.9,15.77-4.33,26.08a.68.68,0,0,1-.27.92A.69.69,0,0,1,193,557.48Z"/><path class="cls-7" d="M233.53,558.56a45.05,45.05,0,0,1-28.2-10.27.68.68,0,1,1,.92-1A43.43,43.43,0,0,0,237.54,557a.69.69,0,0,1,.74.61.68.68,0,0,1-.61.74C236.26,558.49,234.88,558.56,233.53,558.56Z"/><path class="cls-7" d="M207.56,576.46c-17.81,0-26.66-8.84-26.77-8.95a.68.68,0,0,1,1-.95c.13.13,13.12,13,39.54,6.88a.68.68,0,1,1,.31,1.32A61.89,61.89,0,0,1,207.56,576.46Z"/><path class="cls-7" d="M173.46,576.14a.68.68,0,0,1-.51-.24c-9.8-11.32,0-29.51.41-30.28a.68.68,0,0,1,1.19.65c-.1.18-9.75,18.14-.57,28.74a.68.68,0,0,1-.51,1.12Z"/><path class="cls-7" d="M192.22,592.6A58.06,58.06,0,0,1,167,587a.68.68,0,1,1,.65-1.19,57.4,57.4,0,0,0,38.82,3.59.68.68,0,0,1,.35,1.31A56.32,56.32,0,0,1,192.22,592.6Z"/><path class="cls-45" d="M95,568.19s1.21-31.45-13.72-46.11c-12.22-12-29.77-17.11-38.14-20.44-12.84-5.12-36.39-18.36-39.59-28.86-1.3-4.28-8,13.34,1.3,38.27C27.42,571.24,88.88,574,95,568.19Z"/><path class="cls-7" d="M112.66,614c-.49,0-1-.11-1.43-.16-.51-2.43-1.07-4.94-1.68-7.49-.83-3.46-1.67-7-2.68-10.55-5.43-19.39-15.69-40.71-54.07-63.09C12.7,509.32,2.19,473.44,2.08,473.08a.66.66,0,0,1,.47-.83.67.67,0,0,1,.83.45c.11.36,10.5,35.73,50.11,58.83,39,22.7,49.26,44.37,54.74,64.06,1,3.55,1.83,7,2.64,10.44C111.52,608.75,112.12,611.41,112.66,614Z"/><path class="cls-7" d="M31.91,517.14a.68.68,0,0,1-.61-.37c-4.6-9.17-.61-20.34-.44-20.81a.68.68,0,1,1,1.27.47c0,.11-4,11.09.38,19.74a.68.68,0,0,1-.3.91A.67.67,0,0,1,31.91,517.14Z"/><path class="cls-7" d="M18.48,502.44a.68.68,0,0,1-.63-.42c-2.51-6.14-1.37-14.3-1.32-14.64a.67.67,0,0,1,.77-.57.68.68,0,0,1,.58.77c0,.08-1.13,8.14,1.23,13.94a.68.68,0,0,1-.37.89A.69.69,0,0,1,18.48,502.44Z"/><path class="cls-7" d="M53.15,532.79a.68.68,0,0,1-.58-.33c-6.91-11.42-2.25-27.34-2-28a.68.68,0,0,1,1.3.39c0,.16-4.68,16,1.91,26.92a.68.68,0,0,1-.58,1Z"/><path class="cls-7" d="M70.87,544.42a.68.68,0,0,1-.62-.41,27.75,27.75,0,0,1,3.4-28.28.68.68,0,0,1,1,.89,26.38,26.38,0,0,0-3.18,26.85.68.68,0,0,1-.62.95Z"/><path class="cls-7" d="M86.42,558.1a.68.68,0,0,1-.66-.54c-2.16-10.27,5.07-16.87,5.38-17.15a.68.68,0,0,1,.91,1c-.07.06-6.95,6.38-5,15.86a.68.68,0,0,1-.52.8Z"/><path class="cls-7" d="M23.17,508.16a.68.68,0,0,1-.45-.17c-7.59-6.83-19.84-3.44-20-3.4a.68.68,0,1,1-.37-1.3c.53-.15,13.11-3.62,21.25,3.7a.68.68,0,0,1-.45,1.18Z"/><path class="cls-7" d="M11.74,526.45a.68.68,0,0,1-.33-1.27c.52-.29,13-7.14,27.27-3.72a.68.68,0,0,1,.5.82.67.67,0,0,1-.82.5c-13.7-3.3-26.17,3.52-26.29,3.58A.68.68,0,0,1,11.74,526.45Z"/><path class="cls-7" d="M25.89,545.18a.68.68,0,0,1-.42-1.21c.15-.12,15.27-12,33.62-9a.68.68,0,0,1,.56.78.69.69,0,0,1-.78.56c-17.77-2.9-32.41,8.62-32.56,8.73A.67.67,0,0,1,25.89,545.18Z"/><path class="cls-7" d="M52.93,563.74a.68.68,0,0,1-.49-1.15c.54-.57,13.46-14,28.75-11.12a.68.68,0,1,1-.25,1.33C66.36,550,53.55,563.39,53.42,563.52A.68.68,0,0,1,52.93,563.74Z"/><path class="cls-46" d="M165.09,537.32s-8.89-30.28,2-47.94c8.93-14.47,24.72-23.46,32-28.62,11.22-7.92,30.85-26.2,31.37-37.13.21-4.46,11.08,11.11,8.12,37.48C231.5,524.76,172.48,541.6,165.09,537.32Z"/><path class="cls-7" d="M163.08,613.12c-.71-4.8-1.41-10.72-1.94-17.49l-.05-.76c-.07-.83-.13-1.67-.18-2.53v0c-.31-4.54-.51-9.43-.58-14.59-.29-22.68-.62-48.39,37.05-84.57C230.6,461.22,232,424,232,423.57a.66.66,0,0,0-.65-.69.64.64,0,0,0-.71.65c0,.36-1.43,37.11-34.23,68.64-38.09,36.58-37.76,62.61-37.47,85.57.07,6,.34,11.64.74,16.82,0,0,0,0,0,0,0,.29,0,.56.05.85,0,.58.09,1.16.14,1.72v0c.51,6.21,1.18,11.68,1.81,16.17Z"/><path class="cls-7" d="M213.7,473.26l-.15,0a.68.68,0,0,1-.52-.81c2.09-9.39-4.41-19.17-4.47-19.26a.68.68,0,1,1,1.12-.76c.28.42,6.89,10.35,4.67,20.32A.68.68,0,0,1,213.7,473.26Z"/><path class="cls-7" d="M223.14,455.9H223a.68.68,0,0,1-.58-.77c.88-6.18-2.19-13.74-2.22-13.82a.68.68,0,1,1,1.25-.52c.13.32,3.24,8,2.31,14.53A.68.68,0,0,1,223.14,455.9Z"/><path class="cls-7" d="M196.91,493.34a.65.65,0,0,1-.2,0,.68.68,0,0,1-.45-.85c3.73-12.1-4.67-26.45-4.75-26.59a.68.68,0,1,1,1.17-.69c.36.61,8.79,15,4.88,27.68A.68.68,0,0,1,196.91,493.34Z"/><path class="cls-7" d="M182.54,508.71h-.11a.68.68,0,0,1-.56-.78,26.65,26.65,0,0,0-9.68-25.35.68.68,0,0,1,.78-1.11,28.09,28.09,0,0,1,10.24,26.68A.68.68,0,0,1,182.54,508.71Z"/><path class="cls-7" d="M170.79,525.57a.68.68,0,0,1-.68-.65c-.39-9.67-8.63-14.23-8.71-14.27a.68.68,0,0,1,.64-1.19c.37.2,9,4.95,9.42,15.42a.68.68,0,0,1-.65.71Z"/><path class="cls-7" d="M220,462.53a.68.68,0,0,1-.56-1.06c6.11-9,19.19-8.49,19.74-8.48a.68.68,0,0,1,.65.71.7.7,0,0,1-.71.65c-.13,0-12.87-.47-18.55,7.89A.68.68,0,0,1,220,462.53Z"/><path class="cls-7" d="M208.66,480.28a.68.68,0,0,1-.31-1.28c13-6.6,26.82-2.82,27.4-2.66a.68.68,0,0,1,.47.84.69.69,0,0,1-.84.47c-.14,0-13.93-3.79-26.42,2.56A.66.66,0,0,1,208.66,480.28Z"/><path class="cls-7" d="M226.43,499.12a.69.69,0,0,1-.29-.06c-.17-.08-17.24-7.89-33.77-1a.68.68,0,1,1-.52-1.25c17.1-7.12,34.7.95,34.87,1a.68.68,0,0,1-.29,1.29Z"/><path class="cls-7" d="M204.71,523.35a.67.67,0,0,1-.37-.11c-.16-.1-15.9-10.12-29.36-4.1a.68.68,0,1,1-.56-1.24c14.14-6.33,30,3.77,30.65,4.2a.68.68,0,0,1-.37,1.25Z"/><path class="cls-47" d="M86.75,432.83S104.5,465,118.85,477c19,15.9,39.19,51.76,30.54,89.78-4.6,20.19-15.1,24.64-15.1,24.64s-9.71-28.47-19.53-38.85-20.57-19.55-23.69-45S86.75,432.83,86.75,432.83Z"/><path class="cls-7" d="M131.63,615.74a208.38,208.38,0,0,0,3.62-21.16c1.63-13.94,1.74-28.62-1.12-42.49-4.31-20.84-15-36.62-25.23-51.88-5.65-8.36-11-16.29-15-24.65-11.13-23.21-7.48-69.91-7.44-70.38a.67.67,0,0,0-1.34-.11c-.05.47-3.73,47.54,7.55,71.07,4.05,8.47,9.41,16.42,15.1,24.84,10.21,15.15,20.76,30.81,25,51.41,2.84,13.74,2.73,28.31,1.12,42.14a209.75,209.75,0,0,1-3.66,21.23Z"/><path class="cls-7" d="M103,493.29a.68.68,0,0,1-.63-.42c-5.58-13.71,1.53-29.75,1.83-30.42a.68.68,0,1,1,1.24.56c-.07.16-7.17,16.19-1.81,29.35a.68.68,0,0,1-.63.94Z"/><path class="cls-7" d="M115.13,511.53a.68.68,0,0,1-.64-.46c-5.29-15.86,3.38-33.61,3.75-34.36a.68.68,0,1,1,1.22.6c-.09.18-8.79,18-3.68,33.32a.68.68,0,0,1-.43.86A.65.65,0,0,1,115.13,511.53Z"/><path class="cls-7" d="M126.67,532.28a.68.68,0,0,1-.64-.45c-5.69-15.91,9.53-33.29,10.18-34a.68.68,0,1,1,1,.9c-.15.17-15.33,17.51-9.91,32.66a.68.68,0,0,1-.41.87A.7.7,0,0,1,126.67,532.28Z"/><path class="cls-7" d="M133.46,552.91a.68.68,0,0,1-.67-.59c-2.12-16.7,15.77-25,15.95-25.1a.68.68,0,0,1,.56,1.24c-.17.08-17.15,8-15.16,23.69a.68.68,0,0,1-.59.76Z"/><path class="cls-7" d="M136,575.4h0a.68.68,0,0,1-.64-.71c.72-13.69,15.3-17.27,15.45-17.31a.68.68,0,0,1,.31,1.32c-.56.13-13.74,3.39-14.4,16.06A.68.68,0,0,1,136,575.4Z"/><path class="cls-7" d="M117.13,514.67a.68.68,0,0,1-.56-.29c-8-11.38-27.92-6.47-28.12-6.42a.68.68,0,1,1-.34-1.32c.85-.22,21-5.19,29.56,7a.68.68,0,0,1-.55,1.07Z"/><path class="cls-7" d="M128.73,537.13a.68.68,0,0,1-.59-.34c-7.36-13-30.78-4.44-31-4.34a.68.68,0,0,1-.48-1.27c1-.37,24.74-9.08,32.67,4.95a.68.68,0,0,1-.26.92A.67.67,0,0,1,128.73,537.13Z"/><path class="cls-7" d="M134.82,561.21a.68.68,0,0,1-.63-.42c-4.23-10.08-18.17-6.53-18.31-6.5a.68.68,0,0,1-.35-1.31c.15,0,15.22-3.89,19.91,7.29a.68.68,0,0,1-.36.89A.69.69,0,0,1,134.82,561.21Z"/><path class="cls-33" d="M86.33,392.92s14.1,31.24,11.51,59.64-4.6,70.5,4.35,85.83a51.51,51.51,0,0,1-14.13-35.56c-.15-22.6.75-33.57-5.11-41.91S68.46,409.35,86.33,392.92Z"/><path class="cls-48" d="M813,461.12c-.7,0-14-11.68-14-11.68l3.68-13.62s11.45,4.45,11.86,9.18S817.94,461.19,813,461.12Z"/><path class="cls-38" d="M808.25,464.51H738.84a5.59,5.59,0,0,1-5-3.81l-14.53-47.48c-.64-2.1.54-3.81,2.64-3.81h69.42a5.59,5.59,0,0,1,5,3.81l14.53,47.48C811.54,462.8,810.36,464.51,808.25,464.51Z"/><path class="cls-7" d="M738.25,462.61a2.8,2.8,0,0,1-2.49-1.9l-14.53-47.48a1.36,1.36,0,0,1,1.32-1.9H792a2.8,2.8,0,0,1,2.49,1.9L809,460.7a1.36,1.36,0,0,1-1.32,1.9Z"/><path class="cls-7" d="M777.28,464h-7.77a.69.69,0,0,1-.62-.47h0a.34.34,0,0,1,.33-.47H777a.69.69,0,0,1,.62.47h0A.34.34,0,0,1,777.28,464Z"/><path class="cls-9" d="M744.38,444.86c-4.23,0-8.71-3.42-10-7.63a6.53,6.53,0,0,1,.75-5.86,6,6,0,0,1,5-2.31c4.22,0,8.71,3.42,10,7.63a6.54,6.54,0,0,1-.75,5.86A6,6,0,0,1,744.38,444.86Zm-4.28-14a4.21,4.21,0,0,0-3.51,1.57,4.69,4.69,0,0,0-.47,4.25,9.32,9.32,0,0,0,8.26,6.35,4.21,4.21,0,0,0,3.51-1.57,4.7,4.7,0,0,0,.48-4.25A9.32,9.32,0,0,0,740.1,430.88Z"/><path class="cls-38" d="M733.52,437.49a7.43,7.43,0,0,1,.89-6.66,6.85,6.85,0,0,1,5.69-2.67v3.62a3.33,3.33,0,0,0-2.78,1.2,3.83,3.83,0,0,0-.34,3.45Z"/><path class="cls-9" d="M767.25,444.86c-4.23,0-8.71-3.42-10-7.63a6.54,6.54,0,0,1,.75-5.86,6,6,0,0,1,5-2.3c4.23,0,8.71,3.42,10,7.63a6.53,6.53,0,0,1-.75,5.86A6,6,0,0,1,767.25,444.86Zm-4.28-14a4.21,4.21,0,0,0-3.51,1.57,4.7,4.7,0,0,0-.48,4.25,9.32,9.32,0,0,0,8.27,6.35,4.21,4.21,0,0,0,3.51-1.57,4.7,4.7,0,0,0,.47-4.25A9.32,9.32,0,0,0,763,430.88Z"/><path class="cls-38" d="M756.39,437.49a7.43,7.43,0,0,1,.89-6.66,6.85,6.85,0,0,1,5.69-2.67v3.62a3.33,3.33,0,0,0-2.78,1.2,3.82,3.82,0,0,0-.34,3.45Z"/><path class="cls-9" d="M790.12,444.86c-4.23,0-8.71-3.42-10-7.63a6.53,6.53,0,0,1,.75-5.86,6,6,0,0,1,5-2.31c4.22,0,8.71,3.42,10,7.63a6.54,6.54,0,0,1-.75,5.86A6,6,0,0,1,790.12,444.86Zm-4.28-14a4.21,4.21,0,0,0-3.51,1.57,4.69,4.69,0,0,0-.47,4.25,9.32,9.32,0,0,0,8.26,6.35,4.21,4.21,0,0,0,3.51-1.57,4.7,4.7,0,0,0,.48-4.25A9.32,9.32,0,0,0,785.84,430.88Z"/><path class="cls-38" d="M779.26,437.49a7.43,7.43,0,0,1,.89-6.66,6.85,6.85,0,0,1,5.69-2.67v3.62a3.33,3.33,0,0,0-2.78,1.2,3.83,3.83,0,0,0-.34,3.45Z"/><polygon class="cls-49" points="745.84 438.41 739.53 438.41 738.64 435.52 744.95 435.52 745.84 438.41"/><polygon class="cls-49" points="768.71 438.41 762.4 438.41 761.52 435.52 767.82 435.52 768.71 438.41"/><polygon class="cls-49" points="791.58 438.41 785.27 438.41 784.39 435.52 790.7 435.52 791.58 438.41"/><path class="cls-50" d="M836.3,466.34c-4.27-2.55-8.36-5.1-11.88-7.58L820.32,455s-4.88-16-6.09-17.4S802.11,432,802.11,432l1.69,5.63c-1.91-.83-4.56-2.33-4.73-2.42-.49-.25-3.27,2.12-.13,4.36a72.1,72.1,0,0,0,7.66,4.54S810,458,812,461.87c.88,1.73,11.52,14.5,24.31,26.8Z"/><ellipse class="cls-8" cx="717.92" cy="709.38" rx="97.2" ry="23.29"/><ellipse class="cls-8" cx="870.14" cy="723.94" rx="57.93" ry="13.88"/><path class="cls-51" d="M757.17,685.29a9.54,9.54,0,0,1-12.25-4.82,8.7,8.7,0,0,1-.48-1.5l-.75-3.2h0L721.9,582.55l-.92-4a13.79,13.79,0,0,1,8.63-15.93c7.44-3,16,.42,19.11,7.52a13.57,13.57,0,0,1,1,3.67l.48,3.75h0l12.19,94.85.44,3.51A8.92,8.92,0,0,1,757.17,685.29Z"/><path class="cls-52" d="M765.88,671.6l-.9-5.67-12.53,3.54L751.3,674l-3.56-3.23L736.56,674l-.23,23.85a5.31,5.31,0,0,1-2.5,4.41l-10.14,6.46a2.77,2.77,0,0,0-1.2,3.16v0a3,3,0,0,0,3.25,2L747.11,711a5.65,5.65,0,0,0,3.92-2.37l8.62-12.53,4.13,11.14,6-1.71,2.43-24.4Z"/><polygon class="cls-53" points="759.65 696.15 763.79 707.3 769.83 705.59 771.73 686.51 759.65 696.15"/><path class="cls-54" d="M760.94,646.22l-9.38-79-.23-1.65-.31-2.36a16.41,16.41,0,0,0-1.21-4.43,17.49,17.49,0,0,0-16.16-10.31,18,18,0,0,0-6.67,1.28,16.59,16.59,0,0,0-10.36,19.18l1,4.27s15,64.67,18.07,76.56S761.79,653.33,760.94,646.22Z"/><path class="cls-55" d="M847.21,401.45a14.12,14.12,0,0,1,18.08,7.33,12.7,12.7,0,0,1,1,5.28h0l-.9,37.21s0,.08,0,.13v0h0a13.3,13.3,0,0,1-8.68,12,14.12,14.12,0,0,1-18.08-7.33,12.7,12.7,0,0,1-1-5.28h0l.9-37.21s0-.08,0-.12v0h0A13.3,13.3,0,0,1,847.21,401.45Z"/><path class="cls-56" d="M841.17,421.92l.46.11c12.69,2.89,25.43-4.59,28.46-16.71L873.65,391c3-12.12-4.8-24.29-17.49-27.19l-.46-.11c-12.69-2.89-25.43,4.59-28.46,16.71l-3.57,14.27C820.65,406.86,828.48,419,841.17,421.92Z"/><path class="cls-57" d="M834,440.82l36-1.54-.61-8.85a3.33,3.33,0,0,0-3.94-3l-24.56,4.37a8.22,8.22,0,0,0-6.91,8.9Z"/><path class="cls-58" d="M679.39,694.45A9.18,9.18,0,0,1,670,685.5a8.61,8.61,0,0,1,.16-1.56l.59-3.23h0l17.4-94.05.76-4a14.4,14.4,0,0,1,14.38-11.53c8.06,0,14.62,6.26,14.62,14a13.48,13.48,0,0,1-.55,3.76l-1.06,3.64h0l-26.91,92-1,3.4A9.33,9.33,0,0,1,679.39,694.45Z"/><path class="cls-59" d="M691.79,684.23l.66-5-23.92-2.83-12,21.8c-.73,1.63-3.73,2.95-5.55,3.29l-12,2.24a2.89,2.89,0,0,0-2.38,2.48v0a2.84,2.84,0,0,0,2.2,3l20.87,5.23a5.84,5.84,0,0,0,4.57-.75l13-8.4-.67,11.81,6.26.64L695,696.21Z"/><polygon class="cls-60" points="677.31 705.39 676.64 717.2 682.91 717.84 692.34 700.93 677.31 705.39"/><path class="cls-61" d="M865.26,562.42v-.55a25.64,25.64,0,0,0-28.09-25.53L705.52,548.95l-.33.05c-.47.06-.93.12-1.38.21l-.32.07c-.42.09-.85.19-1.27.31l-.36.11c-.38.12-.76.25-1.15.39l-.42.17c-.33.14-.66.28-1,.45l-.49.25-.84.47-.56.35-.69.47-.62.46-.55.45-.66.58-.41.4c-.24.24-.48.49-.7.73l-.27.32c-.25.3-.5.59-.73.9l-.15.21c-.25.35-.49.7-.77,1.17a16.4,16.4,0,0,0-2.09,5.49l-.37,2c-2.29,12.38-5.08,27.6-7.84,42.63-2.69,14.65-6.66,37.42-8.17,45.59s22.75,13,24.9,6.46,22.64-76,22.64-76L838.65,588A25.64,25.64,0,0,0,865.26,562.42Z"/><path class="cls-33" d="M864.66,568.31C859.76,580.69,784,548,790.78,539.86c9-10.84,15.7-18.58,15.7-18.58s-4.73-66.7-.75-71.41c6.21-7.36,26.2-10.4,47.32-12.61,17.62-1.84,24.51,5.24,26.3,9.3,4.36,9.86-17.64,89.65-17.64,89.65S867.41,561.39,864.66,568.31Z"/><path class="cls-62" d="M784.13,502.71c-5.4-4-28.8-23.21-37.53-31.27-2.62-3-4.23-5-4.3-5.09-.33-.45.36-5.17.11-6.42s-.39-6.44-.57-7-5.14-7.25-5.69-7.89-2.79-.64-2.14,1.85,2.3,5.37,1.4,5.45-3.87-2.52-4.17-2.92-.3-10.78-.33-11.76-2.57-2.93-3.1-.93-1.64,11.51-1.64,11.51-3.4,6.24-2.9,7.46l.34.82a4.47,4.47,0,0,0-.81,1.74,6.64,6.64,0,0,0,.76,2.07,23,23,0,0,0,0,2.81c.1.53,7.21,9.9,10.35,12.62.08.07,35.16,60.1,51.72,49.34C794.95,519,790.17,507.21,784.13,502.71Z"/><path class="cls-63" d="M762.77,484.09s-1.25-.8-5.22-4-16.27,9.52-12.68,14.2c2.7,3.52,6.37,8,6.37,8Z"/><path class="cls-33" d="M831.93,458.75c0-7.84-6.65-14.19-14.85-14.19a14.94,14.94,0,0,0-13.16,7.62h0l-24.35,44.5c-5.23-4-13.72-10.5-15.8-12-4.81-3.52-18.31,11.2-14.25,16.4C752.13,504.41,762,516,765.8,519.5A39.57,39.57,0,0,0,776,526.81a12.07,12.07,0,0,0,5.59,1.36h.14a11.8,11.8,0,0,0,9.69-5.12h0l38.11-56.62h0A13.66,13.66,0,0,0,831.93,458.75Z"/><path class="cls-64" d="M899.87,468.16H828.58a8.34,8.34,0,0,0-8,5.84L785.91,584.63H727.34a5.24,5.24,0,0,0-5.24,5.24V590a5.24,5.24,0,0,0,5.24,5.24h144L907.82,479A8.34,8.34,0,0,0,899.87,468.16Z"/><rect class="cls-65" x="812.97" y="595.21" width="12.92" height="89.49"/><rect class="cls-66" x="809.88" y="595.21" width="19.31" height="14.22"/><rect class="cls-64" x="812.2" y="642.82" width="14.66" height="48.04"/><circle class="cls-33" cx="764.53" cy="713.25" r="8.04"/><circle class="cls-9" cx="764.53" cy="713.25" r="4.2"/><rect class="cls-33" x="760.21" y="696.32" width="2.85" height="10.35"/><circle class="cls-33" cx="874.34" cy="713.25" r="8.04"/><circle class="cls-9" cx="874.34" cy="713.25" r="4.2"/><rect class="cls-33" x="875.81" y="696.32" width="2.85" height="10.35"/><circle class="cls-33" cx="816.98" cy="707.79" r="8.04"/><circle class="cls-9" cx="816.98" cy="707.79" r="4.2"/><rect class="cls-33" x="818.45" y="690.86" width="2.85" height="10.35"/><polygon class="cls-64" points="760.21 702.55 812.1 690.91 812.1 681.02 760.21 695.69 760.21 702.55"/><polygon class="cls-64" points="878.76 702.55 826.86 690.91 826.86 681.02 878.76 695.69 878.76 702.55"/><path class="cls-66" d="M790.17,571.06l.59-1.89h88.77l-.59,1.89Zm9.74-31-.59,1.89h88.77l.59-1.89Zm-4.57,14.58-.59,1.89h88.77l.59-1.89Zm18.29-58.31-.59,1.89H901.8l.59-1.89Zm4.57-14.58-.59,1.89h88.77l.59-1.89Zm-9.15,29.16-.59,1.89h88.77l.59-1.89Zm-4.57,14.58-.59,1.89h88.77l.59-1.89Z"/><path class="cls-67" d="M879.35,394l-.31,0c.2-1.79.38-3.52.52-5.14,1.41-15.58-6.09-23.31-16.15-26.11l-2.29-.64-.44-.12-8.41-2.34a15.61,15.61,0,0,0-3.31-1.36c-8-2.23-16.38,2.12-18.83,9.71l9.9,2.75c-2.08,5-2.08,15.55,5.16,19.91a5.35,5.35,0,0,1,3,10.24c.82,2,10.25,68.62,31.11,68.62a37.77,37.77,0,0,0,0-75.54Z"/></g></g></svg>