<?xml version="1.0" encoding="UTF-8" standalone="no"?>
<!-- Created with Inkscape (http://www.inkscape.org/) -->

<svg
     xmlns:dc="http://purl.org/dc/elements/1.1/"
     xmlns:cc="http://creativecommons.org/ns#"
     xmlns:rdf="http://www.w3.org/1999/02/22-rdf-syntax-ns#"
     xmlns:svg="http://www.w3.org/2000/svg"
     xmlns="http://www.w3.org/2000/svg"
     xmlns:sodipodi="http://sodipodi.sourceforge.net/DTD/sodipodi-0.dtd"
     xmlns:inkscape="http://www.inkscape.org/namespaces/inkscape"
     version="1.1"
     width="1821.4233"
     height="1028.0963"
     id="svg2"
     inkscape:version="0.48.5 r10040"
     sodipodi:docname="abstractHills.svg">
    <sodipodi:namedview
         pagecolor="#ffffff"
         bordercolor="#666666"
         borderopacity="1"
         objecttolerance="10"
         gridtolerance="10"
         guidetolerance="10"
         inkscape:pageopacity="0"
         inkscape:pageshadow="2"
         inkscape:window-width="640"
         inkscape:window-height="480"
         id="namedview3010"
         showgrid="false"
         fit-margin-top="0"
         fit-margin-left="0"
         fit-margin-right="0"
         fit-margin-bottom="0"
         inkscape:zoom="0.55"
         inkscape:cx="988.89349"
         inkscape:cy="586.77543"
         inkscape:current-layer="svg2" />
    <defs
         id="defs4" />
    <metadata
         id="metadata7">
        <rdf:RDF>
            <cc:Work
                 rdf:about="">
                <dc:format>image/svg+xml</dc:format>
                <dc:type
                     rdf:resource="http://purl.org/dc/dcmitype/StillImage" />
                <dc:title></dc:title>
            </cc:Work>
        </rdf:RDF>
    </metadata>
    <rect
         width="1821.4233"
         height="1028.0963"
         x="0"
         y="0"
         id="rect3232"
         style="color:#000000;fill:#1a1a74;fill-opacity:1;fill-rule:nonzero;stroke:none;stroke-width:1;marker:none;visibility:visible;display:inline;overflow:visible;enable-background:accumulate" />
    <path
         inkscape:connector-curvature="0"
         style="color:#000000;fill:#120e6c;fill-opacity:1;fill-rule:nonzero;stroke:none;stroke-width:1;marker:none;visibility:visible;display:inline;overflow:visible;enable-background:accumulate"
         id="path3209"
         d="M -1.6365597,279.8275 C -1.6365597,411.1868 -1.6366597,542.5461 -1.6365597,673.9054 7.1720405,671.3558 4.1234403,678.9669 11.73844,677.4403 206.07174,677.4403 400.40504,677.4403 594.73844,677.4403 592.39724,670.3639 606.52544,677.4006 602.36344,668.7639 602.36334,538.5203 602.36334,408.2768 602.36344,278.0333 591.12974,277.342 586.12664,287.3998 579.52584,293.1987 528.86744,344.7905 462.59074,387.705 385.83214,406.197 316.05184,423.4224 239.28264,418.4421 172.96154,393.3664 108.52724,369.4317 54.276741,328.9682 10.86344,282.5856 7.7296405,279.5934 3.1472403,277.7337 -1.6365597,278.0333 -1.6365597,278.6314 -1.6366597,279.2294 -1.6365597,279.8275 z" />
    <path
         inkscape:connector-curvature="0"
         style="color:#000000;fill:#120e6c;fill-opacity:1;fill-rule:nonzero;stroke:none;stroke-width:1;marker:none;visibility:visible;display:inline;overflow:visible;enable-background:accumulate"
         id="path3211"
         d="M 598.36344,279.8275 C 598.36344,411.1868 598.36344,542.5461 598.36344,673.9054 607.17204,671.3558 604.12344,678.9669 611.73844,677.4403 806.07174,677.4403 1000.4051,677.4403 1194.7385,677.4403 1192.3973,670.3639 1206.5255,677.4006 1202.3635,668.7639 1202.3635,538.5203 1202.3634,408.2768 1202.3635,278.0333 1191.1298,277.342 1186.1267,287.3998 1179.5259,293.1987 1128.8675,344.7905 1062.5908,387.705 985.83214,406.197 916.05184,423.4224 839.28264,418.4421 772.96154,393.3664 708.52724,369.4317 654.27674,328.9682 610.86344,282.5856 607.72964,279.5934 603.14724,277.7337 598.36344,278.0333 598.36334,278.6314 598.36344,279.2294 598.36344,279.8275 z" />
    <path
         inkscape:connector-curvature="0"
         style="color:#000000;fill:#120e6c;fill-opacity:1;fill-rule:nonzero;stroke:none;stroke-width:1;marker:none;visibility:visible;display:inline;overflow:visible;enable-background:accumulate"
         id="path3213"
         d="M 1198.3635,279.8275 C 1198.3635,411.1868 1198.3634,542.5461 1198.3635,673.9054 1207.1721,671.3558 1204.1235,678.9669 1211.7385,677.4403 1406.0718,677.4403 1600.4051,677.4403 1794.7385,677.4403 1792.3973,670.3639 1806.5255,677.4006 1802.3635,668.7639 1802.3635,538.5203 1802.3635,408.2768 1802.3635,278.0333 1791.1298,277.342 1786.1266,287.3998 1779.5259,293.1987 1728.8675,344.7905 1662.5908,387.705 1585.8322,406.197 1516.0519,423.4224 1439.2827,418.4421 1372.9616,393.3664 1308.5273,369.4317 1254.2768,328.9682 1210.8635,282.5856 1207.7297,279.5934 1203.1473,277.7337 1198.3635,278.0333 1198.3634,278.6314 1198.3635,279.2294 1198.3635,279.8275 z" />
    <path
         inkscape:connector-curvature="0"
         style="color:#000000;fill:#281e85;fill-opacity:1;fill-rule:nonzero;stroke:none;stroke-width:1;marker:none;visibility:visible;display:inline;overflow:visible;enable-background:accumulate"
         id="path3178"
         d="M -303.63656,418.9353 C -303.63656,550.2947 -303.63666,681.6539 -303.63656,813.0133 -294.82796,810.4637 -297.87656,818.0748 -290.26156,816.5481 -95.928259,816.5481 98.405043,816.5481 292.73844,816.5481 290.39724,809.4718 304.52544,816.5084 300.36344,807.8718 300.36334,677.6282 300.36344,547.3846 300.36344,417.1412 289.12974,416.4498 284.12664,426.5077 277.52584,432.3065 226.86744,483.8983 160.59074,526.8129 83.832141,545.3048 14.051841,562.5303 -62.717359,557.5499 -129.03846,532.4743 -193.47276,508.5396 -247.72326,468.0761 -291.13656,421.6935 -294.27036,418.7013 -298.85276,416.8416 -303.63656,417.1412 -303.63656,417.7392 -303.63656,418.3373 -303.63656,418.9353 z" />
    <path
         inkscape:connector-curvature="0"
         style="color:#000000;fill:#281e85;fill-opacity:1;fill-rule:nonzero;stroke:none;stroke-width:1;marker:none;visibility:visible;display:inline;overflow:visible;enable-background:accumulate"
         id="path3180"
         d="M 296.36344,418.9353 C 296.36344,550.2947 296.36334,681.6539 296.36344,813.0133 305.17204,810.4637 302.12344,818.0748 309.73844,816.5481 504.07174,816.5481 698.40504,816.5481 892.73844,816.5481 890.39724,809.4718 904.52544,816.5084 900.36344,807.8718 900.36334,677.6282 900.36344,547.3846 900.36344,417.1412 889.12974,416.4498 884.12664,426.5077 877.52584,432.3065 826.86744,483.8983 760.59074,526.8129 683.83214,545.3048 614.05184,562.5303 537.28264,557.5499 470.96154,532.4743 406.52724,508.5396 352.27674,468.0761 308.86344,421.6935 305.72964,418.7013 301.14724,416.8416 296.36344,417.1412 296.36344,417.7392 296.36344,418.3373 296.36344,418.9353 z" />
    <path
         inkscape:connector-curvature="0"
         style="color:#000000;fill:#281e85;fill-opacity:1;fill-rule:nonzero;stroke:none;stroke-width:1;marker:none;visibility:visible;display:inline;overflow:visible;enable-background:accumulate"
         id="path3182"
         d="M 896.36344,418.9353 C 896.36344,550.2947 896.36334,681.6539 896.36344,813.0133 905.17204,810.4637 902.12344,818.0748 909.73844,816.5481 1104.0718,816.5481 1298.4051,816.5481 1492.7385,816.5481 1490.3973,809.4718 1504.5255,816.5084 1500.3635,807.8718 1500.3634,677.6282 1500.3635,547.3846 1500.3635,417.1412 1489.1298,416.4498 1484.1267,426.5077 1477.5259,432.3065 1426.8675,483.8983 1360.5908,526.8129 1283.8322,545.3048 1214.0519,562.5303 1137.2827,557.5499 1070.9616,532.4743 1006.5273,508.5396 952.27674,468.0761 908.86344,421.6935 905.72964,418.7013 901.14724,416.8416 896.36344,417.1412 896.36344,417.7392 896.36344,418.3373 896.36344,418.9353 z" />
    <path
         style="color:#000000;fill:#281e85;fill-opacity:1;fill-rule:nonzero;stroke:none;stroke-width:1;marker:none;visibility:visible;display:inline;overflow:visible;enable-background:accumulate"
         d="M 1496.1449,417.125 C 1495.5557,417.09698 1494.9617,417.1188 1494.3637,417.15625 L 1494.3637,418.9375 C 1494.3637,550.2969 1494.3636,681.6406 1494.3637,813 1503.1723,810.4504 1500.1237,818.0892 1507.7387,816.5625 L 1821.4262,816.5625 1821.4262,554.625 C 1769.517,558.1068 1716.5496,550.46304 1668.9575,532.46875 1604.5232,508.53405 1550.277,468.0701 1506.8637,421.6875 1504.1216,419.06933 1500.2697,417.32116 1496.1449,417.125 z"
         id="path3184"
         inkscape:connector-curvature="0" />
    <path
         inkscape:connector-curvature="0"
         style="color:#000000;fill:#4f36ab;fill-opacity:1;fill-rule:nonzero;stroke:none;stroke-width:1;marker:none;visibility:visible;display:inline;overflow:visible;enable-background:accumulate"
         id="path3151"
         d="M -5.6365597,560.0432 C -5.6365597,691.4025 -5.6366597,822.7618 -5.6365597,954.1212 3.1720405,951.5716 0.12344031,959.1827 7.7384405,957.656 202.07174,957.656 396.40504,957.656 590.73844,957.656 588.39724,950.5797 602.52544,957.6163 598.36344,948.9796 598.36334,818.7361 598.36334,688.4925 598.36344,558.249 587.12974,557.5577 582.12664,567.6156 575.52584,573.4144 524.86744,625.0062 458.59074,667.9208 381.83214,686.4127 312.05184,703.6381 235.28264,698.6578 168.96154,673.5821 104.52724,649.6475 50.276741,609.1839 6.8634405,562.8014 3.7296405,559.8092 -0.85275969,557.9495 -5.6365597,558.249 -5.6365597,558.8471 -5.6366597,559.4451 -5.6365597,560.0432 z" />
    <path
         inkscape:connector-curvature="0"
         style="color:#000000;fill:#4f36ab;fill-opacity:1;fill-rule:nonzero;stroke:none;stroke-width:1;marker:none;visibility:visible;display:inline;overflow:visible;enable-background:accumulate"
         id="path3153"
         d="M 594.36344,560.0432 C 594.36344,691.4025 594.36344,822.7618 594.36344,954.1212 603.17204,951.5716 600.12344,959.1827 607.73844,957.656 802.07174,957.656 996.40507,957.656 1190.7385,957.656 1188.3973,950.5797 1202.5255,957.6163 1198.3635,948.9796 1198.3635,818.7361 1198.3634,688.4925 1198.3635,558.249 1187.1298,557.5577 1182.1267,567.6156 1175.5259,573.4144 1124.8675,625.0062 1058.5908,667.9208 981.83214,686.4127 912.05184,703.6381 835.28264,698.6578 768.96154,673.5821 704.52724,649.6475 650.27674,609.1839 606.86344,562.8014 603.72964,559.8092 599.14724,557.9495 594.36344,558.249 594.36344,558.8471 594.36344,559.4451 594.36344,560.0432 z" />
    <path
         inkscape:connector-curvature="0"
         style="color:#000000;fill:#4f36ab;fill-opacity:1;fill-rule:nonzero;stroke:none;stroke-width:1;marker:none;visibility:visible;display:inline;overflow:visible;enable-background:accumulate"
         id="path3155"
         d="M 1194.3635,560.0432 C 1194.3635,691.4025 1194.3634,822.7618 1194.3635,954.1212 1203.1721,951.5716 1200.1235,959.1827 1207.7385,957.656 1402.0718,957.656 1596.4051,957.656 1790.7385,957.656 1788.3973,950.5797 1802.5255,957.6163 1798.3635,948.9796 1798.3635,818.7361 1798.3635,688.4925 1798.3635,558.249 1787.1298,557.5577 1782.1266,567.6156 1775.5259,573.4144 1724.8675,625.0062 1658.5908,667.9208 1581.8322,686.4127 1512.0519,703.6381 1435.2827,698.6578 1368.9616,673.5821 1304.5273,649.6475 1250.2768,609.1839 1206.8635,562.8014 1203.7297,559.8092 1199.1473,557.9495 1194.3635,558.249 1194.3635,558.8471 1194.3634,559.4451 1194.3635,560.0432 z" />
    <path
         style="color:#000000;fill:#7c57d2;fill-opacity:1;fill-rule:nonzero;stroke:none;stroke-width:1;marker:none;visibility:visible;display:inline;overflow:visible;enable-background:accumulate"
         d="M 297.33239,697.3125 C 286.81958,697.27934 281.91441,706.91366 275.51989,712.53125 224.86149,764.12305 158.59099,807.03935 81.832391,825.53125 12.052091,842.75675 -64.721509,837.7631 -131.04261,812.6875 -195.47691,788.7528 -249.72306,748.28885 -293.13636,701.90625 -295.42119,699.72466 -298.48233,698.17337 -301.82386,697.59375 L -301.82386,1028.0938 298.36364,1028.0938 C 298.3636,917.84919 298.36364,807.58825 298.36364,697.34375 298.01259,697.32214 297.67151,697.31357 297.33239,697.3125 z"
         id="use3057"
         inkscape:connector-curvature="0" />
    <path
         style="color:#000000;fill:#7c57d2;fill-opacity:1;fill-rule:nonzero;stroke:none;stroke-width:1;marker:none;visibility:visible;display:inline;overflow:visible;enable-background:accumulate"
         d="M 897.33239,697.3125 C 886.81958,697.27934 881.91441,706.91366 875.51989,712.53125 824.86149,764.12305 758.59099,807.03935 681.83239,825.53125 612.05209,842.75675 535.27849,837.7631 468.95739,812.6875 404.52309,788.7528 350.27694,748.28885 306.86364,701.90625 303.72984,698.91405 299.14744,697.04415 294.36364,697.34375 294.36364,697.94175 294.36354,698.55825 294.36364,699.15625 294.36364,808.80645 294.3636,918.44363 294.36364,1028.0938 L 898.36364,1028.0938 C 898.3636,917.84919 898.36364,807.58825 898.36364,697.34375 898.01259,697.32214 897.67151,697.31357 897.33239,697.3125 z"
         id="use3059"
         inkscape:connector-curvature="0" />
    <path
         style="color:#000000;fill:#7c57d2;fill-opacity:1;fill-rule:nonzero;stroke:none;stroke-width:1;marker:none;visibility:visible;display:inline;overflow:visible;enable-background:accumulate"
         d="M 1497.3325,697.3125 C 1486.8196,697.27934 1481.9145,706.91366 1475.5199,712.53125 1424.8615,764.12305 1358.5911,807.03935 1281.8325,825.53125 1212.0522,842.75675 1135.2785,837.7631 1068.9574,812.6875 1004.5231,788.7528 950.27694,748.28885 906.86364,701.90625 903.72984,698.91405 899.14744,697.04415 894.36364,697.34375 894.36364,697.94175 894.36354,698.55825 894.36364,699.15625 894.36364,808.80645 894.3636,918.44363 894.36364,1028.0938 L 1498.3637,1028.0938 C 1498.3637,917.84919 1498.3637,807.58825 1498.3637,697.34375 1498.0126,697.32214 1497.6716,697.31357 1497.3325,697.3125 z"
         id="use3061"
         inkscape:connector-curvature="0" />
    <path
         style="color:#000000;fill:#7c57d2;fill-opacity:1;fill-rule:nonzero;stroke:none;stroke-width:1;marker:none;visibility:visible;display:inline;overflow:visible;enable-background:accumulate"
         d="M 1702.4575,0 C 1701.9095,24.844308 1700.9595,49.682769 1699.6449,74.5 1692.1504,202.5762 1674.5017,331.02595 1633.0825,454.46875 1605.601,534.57425 1567.7853,613.45975 1507.7699,679.84375 1498.1453,690.70645 1487.1272,700.7928 1476.7699,711 1452.3535,816.70109 1427.9359,922.39256 1403.5199,1028.0938 L 1821.4262,1028.0938 1821.4262,0 1702.4575,0 z"
         id="path3118"
         inkscape:connector-curvature="0" />
</svg>
