<?xml version="1.0" encoding="utf-8"?>
<!-- Generator: Adobe Illustrator 20.0.0, SVG Export Plug-In . SVG Version: 6.00 Build 0)  -->
<!DOCTYPE svg PUBLIC "-//W3C//DTD SVG 1.1//EN" "http://www.w3.org/Graphics/SVG/1.1/DTD/svg11.dtd">
<svg version="1.1" id="Layer_1" xmlns="http://www.w3.org/2000/svg" xmlns:xlink="http://www.w3.org/1999/xlink" x="0px" y="0px"
	 viewBox="0 0 2616.149 1008.747" enable-background="new 0 0 2616.149 1008.747" xml:space="preserve">
<g>
	<path fill="#010101" stroke="#010101" d="M215.47,108.272c8.875-5.03,17.29-13.121,28.193-12.471
		c8.664,0.344,17.463,0.057,25.993,1.741c5.987,2.314,10.577,7.096,15.837,10.634c6.866,5.183,15.416,8.683,20.083,16.315
		c6.637,10.175,12.968,20.618,18.247,31.559c4.246,8.11-1.511,17.558,2.467,25.802c-4.743,1.855-9.984,2.812-14.173,5.776
		c-5.413,6.58-8.454,14.785-9.755,23.143c-3.175,1.53-6.35,3.022-9.525,4.495c0.861-7,1.989-13.962,2.754-20.982
		c-5.145-4.17-10.214-8.397-15.225-12.719c1.932-1.014,3.844-2.047,5.795-3.06c-0.574-8.033-0.096-16.143-1.167-24.119
		c-1.855-6.044-9.162-6.006-14.288-6.56c-8.779-0.21-18.285-0.057-25.993,4.724c-7.479,4.323-14.708,9.066-21.996,13.733
		c-10.864-4.839-21.747-10.003-30.182-18.61c-3.825,7.134-7.823,14.881-6.312,23.258c1.607,9.066,3.232,18.209,2.544,27.466
		c-9.946-18.381-9.812-40.74-2.62-60.038C189.132,123.305,203.898,116.037,215.47,108.272z"/>
	<path fill="#FFB393" stroke="#FFB393" d="M192.537,147.673c8.435,8.607,19.318,13.771,30.182,18.61
		c7.287-4.667,14.517-9.41,21.996-13.733c7.708-4.782,17.214-4.935,25.993-4.724c5.126,0.555,12.432,0.516,14.288,6.56
		c1.071,7.976,0.593,16.085,1.167,24.119c-1.951,1.014-3.864,2.047-5.795,3.06c5.011,4.323,10.08,8.55,15.225,12.719
		c-0.765,7.02-1.894,13.982-2.754,20.982c3.175-1.473,6.35-2.965,9.525-4.495c1.301-8.358,4.342-16.564,9.755-23.143
		c4.189-2.965,9.429-3.921,14.173-5.776c2.448,6.293,5.451,12.719,5.222,19.643c-0.708,9.888-4.514,19.528-10.96,27.102
		c-5.432,7.708-14.479,12.107-19.088,20.446c-13.102,13.484-23.449,29.206-35.308,43.723c-4.131,5.547-11.017,7.574-17.271,9.621
		c-8.607,2.735-18.151,3.997-26.854,1.071c-7.345-3.309-12.49-9.946-16.678-16.583c-8.148-14.383-13.217-30.201-17.769-46
		c-2.467-14.096-0.038-28.384,1.186-42.48c0.689-9.257-0.937-18.4-2.544-27.466C184.714,162.553,188.712,154.807,192.537,147.673z"
		/>
	<path fill="#F39F7A" stroke="#F39F7A" d="M266.155,292.767c11.858-14.517,22.206-30.239,35.308-43.723
		c1.167,10.539-3.232,21.69,0.918,31.769c-5.394,11.954-11.227,24.004-20.007,33.854c-12.279,10.233-28.097,15.684-39.267,27.332
		c-3.251,0.134-6.484,0.325-9.678,0.708c-5.661-14.02-23.621-18.993-28.575-33.701c-3.787-7.077-0.746-14.861,0.497-22.13
		c4.189,6.637,9.334,13.274,16.678,16.583c8.703,2.926,18.247,1.664,26.854-1.071C255.138,300.341,262.024,298.314,266.155,292.767z
		"/>
	<path fill="#FEFEFE" stroke="#FEFEFE" d="M282.375,314.667c8.779-9.85,14.613-21.9,20.007-33.854
		c4.609,10.673,6.216,22.455,6.924,33.988c-0.65,3.041-1.396,6.063-2.238,9.085c-9.334,15.55-15.875,32.553-24.367,48.562
		c-8.052-6.254-16.181-12.413-24.367-18.457c-5.126-3.94-10.252-7.88-15.225-11.992C254.278,330.351,270.095,324.9,282.375,314.667z
		"/>
	<path fill="#FEFEFD" stroke="#FEFEFD" d="M195.196,306.883c2.984-6.847,5.069-14.326,10.156-20.006
		c-1.243,7.268-4.284,15.053-0.497,22.13c4.954,14.708,22.914,19.681,28.575,33.701c-3.653,0.669-7.268,1.492-10.864,2.353
		c-9.429,4.227-15.741,13.006-24.195,18.744c-3.921-11.074-6.56-22.703-7-34.466C192.862,321.878,193.78,314.342,195.196,306.883z"
		/>
	<path fill="#060606" stroke="#060606" d="M180.487,315.987c4.284-3.94,8.951-7.632,14.708-9.104
		c-1.415,7.459-2.333,14.995-3.825,22.455c-0.822,2.467-1.76,4.935-2.754,7.345c-2.62,5.738-5.279,11.514-6.58,17.711
		c-3.672,16.047-7.612,32.037-10.807,48.18c-1.339,5.891,1.97,11.304,2.907,16.965c4.552,27.064,10.271,53.899,15.512,80.829
		c3.079,19.069,6.006,38.158,9.869,57.093c2.353,15.799,6.675,31.884,4.074,47.912c-1.549,0.153-4.648,0.44-6.178,0.593
		c1.377-5.298,4.667-10.654,2.563-16.239c-2.869,0.88-5.719,1.779-8.53,2.773c-2.601-19.796-11.916-37.756-18.209-56.5
		c-3.558-11.074-10.443-21.67-9.104-33.739c0.918-8.588-3.022-16.717-2.639-25.266c0.153-6.733,0.23-13.656-2.773-19.853
		c-5.508-1.09-10.94-2.391-16.392-3.691c-0.268-13.312,8.531-24.597,9.296-37.718c0.344-5.872,0.65-11.782,2.066-17.501
		c2.353-8.798-0.937-17.96,1.588-26.739c1.683-10.692,9.697-18.515,14.383-27.887c5.03-9.888,11.361-19.031,17.004-28.575
		C184.58,315.298,182.534,315.623,180.487,315.987z"/>
	<path stroke="#000000" d="M311.026,306.175c9.066,5.585,16.545,13.542,26.337,17.998c23.66,11.342,47.09,23.162,70.845,34.371
		c8.301,3.864,15.569,9.582,22.321,15.722c5.164,4.227,5.929,11.246,7.804,17.233c11.954,42.767,24.272,85.4,36.322,128.129
		c5.355,16.487,5.872,33.931,8.282,50.953c2.429,23.392,7.268,46.726,5.298,70.329c-10.328,8.263-20.083,17.367-31.559,24.061
		c-27.083,15.856-53.918,32.114-81.078,47.817c2.238,10.424,7.746,19.834,9.219,30.469c3.041,19.662,6.905,39.229,9.582,58.948
		c1.052,18.801-0.172,37.641-0.268,56.462c-7.44,3.347-14.861,6.809-21.957,10.883c-1.224,6.541-2.372,13.102-3.06,19.739
		c-4.055,39.821-9.238,79.528-13.083,119.369H236.203c3.558-14.46,0.536-29.302,0.631-43.934
		c-0.172-15.569,0.383-31.196-1.205-46.726c-4.437,1.989-5.183,6.924-6.427,11.094c-4.495,16.43-9.257,32.783-13.982,49.136
		c-2.926,9.927-3.481,20.331-5.547,30.43H86.652c0.555-25.974,6.503-52.101,1.683-77.979c-1.339-11.189-3.29-22.302-4.495-33.51
		c-1.568-8.645,7.44-14.288,8.148-22.34c-1.052-10.022-3.672-19.796-5.948-29.57c-5.202-1.626-10.348-3.328-15.493-5.069
		c1.492-12.203,2.372-24.501,4.686-36.57c6.905-31.291,13.79-62.563,20.944-93.797c1.224-5.126,1.683-10.386,1.741-15.626
		c-4.036-1.014-9.066-0.593-12.012-4.017c-18.534-25.4-34.217-52.732-50.188-79.777c-3.959-7.383-5.049-15.818-6.771-23.908
		c-2.506-11.725,1.071-23.488,2.18-35.155c3.366-30.277,9.468-60.134,15.512-89.953c8.205-26.452,17.539-52.579,26.031-78.955
		c2.888-9.009,6.101-18.476,13.083-25.228c5.47-4.476,12.298-6.828,18.515-10.061c10.96-5.107,21.231-11.973,33.127-14.785
		c14.823-4.112,31.769-4.552,43.092-16.372c2.047-0.363,4.093-0.689,6.178-0.956c-5.642,9.544-11.973,18.687-17.004,28.575
		c-4.686,9.372-12.7,17.195-14.383,27.887c-2.525,8.779,0.765,17.941-1.588,26.739c-1.415,5.719-1.721,11.629-2.066,17.501
		c-0.765,13.121-9.563,24.406-9.296,37.718c5.451,1.301,10.883,2.601,16.392,3.691c3.003,6.197,2.926,13.121,2.773,19.853
		c-0.383,8.55,3.558,16.678,2.639,25.266c-1.339,12.069,5.547,22.665,9.104,33.739c6.293,18.744,15.607,36.704,18.209,56.5
		c-18.495,8.473-39.994,2.678-58.681,10.52c-7.555,3.844-14.861,8.205-22.531,11.859c-0.956-0.574-2.869-1.721-3.806-2.295
		c-5.336-3.232-12.26-0.784-16.525,3.137c-10.041,8.186-9.602,22.856-8.091,34.485c6.063,6.732,12.777,12.91,19.643,18.84
		c2.027,2.41,4.916,0.842,7.421,0.325c6.866-2.85,13.905,0.096,20.638,1.875c11.036,3.117,22.263,5.585,33.185,9.085
		c8.11,2.62,15.378,7.325,23.583,9.601c2.62-0.688,5.069-1.836,7.536-2.965c-0.918,5.355-2.008,10.692-3.385,15.952
		c11.648,0.115,23.277,0.784,34.944,0.727c-0.383-7.67-1.167-15.301-2.467-22.875c25.438-1.186,50.915-1.243,76.277,0.937
		c6.675,1.186,12.49,4.954,18.687,7.498c-0.306,3.06-0.631,6.101-0.956,9.181c3.997,0.134,8.033,0.249,12.05,0.229
		c1.741-10.979,5.394-21.938,4.055-33.185c-1.09-9.831-1.817-19.72-3.538-29.474c-1.281,0.038-3.844,0.134-5.126,0.172
		c-0.172,1.033-0.536,3.118-0.708,4.17c-3.844-1.014-8.071-1.683-10.921-4.705c-12.145-12.069-23.564-24.865-35.805-36.819
		c-2.506-2.027-4.782-5.26-8.339-5.049c-8.435,0.057-16.851,0.363-25.285,0.287c3.538-12.451,10.367-23.583,14.919-35.671
		c8.76-18.878,16.755-38.1,25.4-57.036c4.973-11.017,7.727-22.837,11.686-34.217c1.913-5.317-0.325-10.807-1.262-16.066
		c10.634-0.822,21.307-0.44,31.961-1.109c-0.038-29.952-5.489-59.694-6.082-89.646c-0.344-10.252,2.716-20.274,2.391-30.469
		c-1.607-8.244-7.651-14.555-11.552-21.747L311.026,306.175 M379.117,564.633c-3.864,7.976-3.232,17.004-4.954,25.496
		c-1.817,9.41-3.978,18.763-5.585,28.231c9.506-2.372,18.84-5.681,27.657-9.908c5.049-5.489,11.61-12.643,8.473-20.695
		c-4.667-19.547-7.823-39.401-12.184-59.006C383.095,538.448,384.243,552.889,379.117,564.633 M106.811,543.9
		c-3.538,9.276-9.315,18.362-8.033,28.709c-0.21,13.943,2.429,30.124,14.919,38.464c2.85-5.413,5.757-11.208,5.279-17.501
		c-0.937-14.096-2.869-28.097-4.935-42.059C114.041,547.304,110.292,545.105,106.811,543.9z"/>
	<path fill="#121212" stroke="#121212" d="M310.759,308.049c3.902,7.192,9.946,13.503,11.552,21.747
		c0.325,10.194-2.735,20.217-2.391,30.469c0.593,29.952,6.044,59.694,6.082,89.646c-10.653,0.669-21.326,0.287-31.961,1.109
		c0.937,5.26,3.175,10.749,1.262,16.066c-3.959,11.38-6.713,23.201-11.686,34.217c-8.645,18.935-16.64,38.158-25.4,57.036
		c-4.552,12.088-11.38,23.22-14.919,35.671c-6.465,2.085-12.241,5.7-17.998,9.219c-0.038-1.014-0.134-3.041-0.172-4.036
		c-0.057-4.17-0.803-8.282-1.913-12.26c2.238,0.21,4.456,0.421,6.713,0.65c4.361-7.019,7.115-14.842,8.052-23.048
		c1.454-5.585,3.213-11.074,4.495-16.678c2.869-12.241,7.632-23.908,11.495-35.843c13.389-39.936,25.744-80.217,38.445-120.383
		c3.309-11.055,7.153-21.976,9.755-33.223c0.65-3.06,1.186-6.121,1.683-9.2c1.683-8.358,2.391-16.851,3.213-25.324
		c0.842-3.022,1.588-6.044,2.238-9.085C309.802,312.544,310.299,310.287,310.759,308.049z"/>
	<path fill="#7E7E7E" stroke="#7E7E7E" d="M282.7,372.449c8.492-16.009,15.033-33.013,24.367-48.562
		c-0.822,8.473-1.53,16.965-3.213,25.324c-0.21-1.645-0.65-4.954-0.861-6.599c-6.905,10.94-10.214,23.832-17.73,34.39
		c-3.347,4.265-8.798,0.746-11.572-2.295c2.486,0.115,4.992,0.249,7.517,0.287C281.571,374.361,282.336,373.08,282.7,372.449z"/>
	<path fill="#727272" stroke="#727272" d="M188.616,336.682c0.995-2.41,1.932-4.877,2.754-7.345c0.44,11.763,3.079,23.392,7,34.466
		c8.454-5.738,14.766-14.517,24.195-18.744c-0.516,0.918-1.568,2.735-2.085,3.634c1.549,2.735,3.137,5.451,4.59,8.263
		c-7.039,1.607-12.165,6.618-16.927,11.667c-5.279,6.254-16.181,0.44-16.697-6.828C190.892,353.379,190.911,344.868,188.616,336.682
		z"/>
	<path fill="#E7E7E7" stroke="#E7E7E7" d="M188.616,336.682c2.295,8.186,2.276,16.698,2.831,25.113
		c0.516,7.268,11.419,13.083,16.697,6.828c4.763-5.049,9.888-10.061,16.927-11.667c2.926,5.604,5.03,11.801,4.954,18.189
		c-2.659,8.091-9.544,14.555-9.85,23.449c-2.448,25.496-6.044,50.915-7.861,76.468c0.478,40.625-1.683,81.365,2.525,121.837
		c-3.691,2.907-7.402,5.776-11.246,8.473c2.601-16.028-1.721-32.114-4.074-47.912c-3.864-18.935-6.79-38.024-9.869-57.093
		c-5.241-26.93-10.96-53.765-15.512-80.829c-0.937-5.661-4.246-11.074-2.907-16.965c3.194-16.143,7.134-32.133,10.807-48.18
		C183.337,348.196,185.996,342.42,188.616,336.682z"/>
	<path fill="#171516" stroke="#171516" d="M233.43,342.707c3.194-0.383,6.427-0.574,9.678-0.708
		c4.973,4.112,10.099,8.052,15.225,11.992c-1.607,1.932-3.194,3.902-4.839,5.815c-0.536,0.612-1.626,1.836-2.161,2.448
		c-3.998-3.252-8.224-6.254-13.044-8.129c-0.669,9.697,0.287,19.605-2.142,29.13c-2.047,8.263-4.629,16.468-5.355,25.018
		c-1.148,12.49,0.23,25.094-1.224,37.584c-1.951,15.378-1.052,30.928-1.205,46.382c0,23.602-0.057,47.185-0.172,70.788
		c-0.115,4.896,0.612,9.774,1.874,14.536c2.946-4.15,5.681-8.473,7.918-13.025c-0.937,8.205-3.691,16.028-8.052,23.048
		c-2.257-0.229-4.476-0.44-6.713-0.65c1.109,3.978,1.855,8.091,1.913,12.26c-3.309-1.301-6.809-1.855-10.29-2.295
		c-4.208-40.472-2.047-81.212-2.525-121.837c1.817-25.553,5.413-50.972,7.861-76.468c0.306-8.894,7.192-15.359,9.85-23.449
		c0.077-6.388-2.027-12.585-4.954-18.189c-1.454-2.812-3.041-5.528-4.59-8.263c0.516-0.899,1.568-2.716,2.085-3.634
		C226.162,344.199,229.776,343.376,233.43,342.707z"/>
	<path fill="#ADADAD" stroke="#ADADAD" d="M285.263,377.001c7.517-10.558,10.826-23.449,17.73-34.39
		c0.21,1.645,0.65,4.954,0.861,6.599c-0.497,3.079-1.033,6.14-1.683,9.2c-0.631-0.153-1.874-0.459-2.506-0.612
		c-5.011,7.67-7.268,17.004-13.465,23.889c-4.246,3.099-9.735,0.038-13.427-2.601c-7.211-5.528-13.905-11.744-21.441-16.831
		c0.536-0.612,1.626-1.836,2.161-2.448c7.823,3.271,14.364,8.836,20.198,14.9C276.465,377.747,281.916,381.266,285.263,377.001z"/>
	<path fill="#222022" stroke="#222022" d="M238.288,354.125c4.82,1.874,9.047,4.877,13.044,8.129
		c-1.779,2.027-3.577,4.055-5.355,6.101c0.689,10.807,3.825,21.613,1.951,32.458c-5.508,35.25-3.232,71.094-5.738,106.593
		c-0.249,13.465-1.301,27.007,0.287,40.453c-1.282,5.604-3.041,11.093-4.495,16.678c-2.238,4.552-4.973,8.875-7.918,13.025
		c-1.262-4.763-1.989-9.64-1.874-14.536c0.115-23.602,0.172-47.185,0.172-70.788c0.153-15.454-0.746-31.004,1.205-46.382
		c1.454-12.49,0.076-25.094,1.224-37.584c0.727-8.55,3.309-16.755,5.355-25.018C238.575,373.73,237.618,363.822,238.288,354.125z"/>
	<path fill="#4D4E4E" stroke="#4D4E4E" d="M258.332,353.991c8.186,6.044,16.315,12.203,24.367,18.457
		c-0.363,0.631-1.128,1.913-1.492,2.544c-2.525-0.038-5.03-0.172-7.517-0.287c-5.834-6.063-12.375-11.629-20.198-14.9
		C255.138,357.893,256.726,355.923,258.332,353.991z"/>
	<path fill="#E7E7E7" stroke="#E7E7E7" d="M299.665,357.798c0.631,0.153,1.874,0.459,2.506,0.612
		c-2.601,11.246-6.446,22.168-9.755,33.223c-12.7,40.166-25.056,80.447-38.445,120.383c-3.864,11.935-8.626,23.602-11.495,35.843
		c-1.588-13.446-0.536-26.988-0.287-40.453c2.506-35.499,0.23-71.342,5.738-106.593c1.874-10.845-1.262-21.651-1.951-32.458
		c1.779-2.047,3.577-4.074,5.355-6.101c7.536,5.088,14.23,11.304,21.441,16.831c3.691,2.639,9.181,5.7,13.427,2.601
		C292.397,374.801,294.654,365.467,299.665,357.798z"/>
	<path fill="#FFB393" stroke="#FFB393" d="M191.447,592.5c2.812-0.995,5.661-1.893,8.53-2.773c2.104,5.585-1.186,10.94-2.563,16.239
		c1.53-0.153,4.629-0.44,6.178-0.593c3.844-2.697,7.555-5.566,11.246-8.473c3.481,0.44,6.981,0.995,10.29,2.295
		c0.038,0.995,0.134,3.022,0.172,4.036c5.757-3.519,11.533-7.134,17.998-9.219c8.435,0.076,16.851-0.229,25.285-0.287
		c3.558-0.21,5.834,3.022,8.339,5.049c12.241,11.954,23.66,24.75,35.805,36.819c2.85,3.022,7.077,3.691,10.921,4.705
		c-1.492,16.353-3.844,32.611-5.776,48.907c-6.197-2.544-12.012-6.312-18.687-7.498c-25.362-2.18-50.839-2.123-76.277-0.937
		c-4.495-0.746-8.53-2.888-12.318-5.298c-6.044,3.156-11.342,7.44-16.774,11.495c-2.467,1.129-4.916,2.276-7.536,2.965
		c-8.205-2.276-15.473-6.981-23.583-9.601c-10.921-3.5-22.149-5.968-33.185-9.085c-6.733-1.779-13.771-4.724-20.638-1.875
		c-8.167-9.831-18.534-19.815-18.304-33.625c2.41-9.296,9.334-16.487,15.856-23.162c0.937,0.574,2.85,1.721,3.806,2.295
		c7.67-3.653,14.976-8.014,22.531-11.859C151.453,595.178,172.951,600.973,191.447,592.5z"/>
	<path fill="#FEFDF9" stroke="#FEFDF9" d="M89.903,615.72c4.265-3.921,11.189-6.369,16.525-3.137
		c-6.522,6.675-13.446,13.867-15.856,23.162c-0.23,13.809,10.137,23.793,18.304,33.625c-2.506,0.516-5.394,2.085-7.421-0.325
		c-6.866-5.929-13.58-12.107-19.643-18.84C80.302,638.576,79.862,623.906,89.903,615.72z"/>
	<path fill="#E8E7E6" stroke="#E8E7E6" d="M324.358,636.128c1.281-0.038,3.844-0.134,5.126-0.172
		c1.721,9.755,2.448,19.643,3.538,29.474c1.339,11.246-2.314,22.206-4.055,33.185c-4.017,0.019-8.052-0.096-12.05-0.229
		c0.325-3.08,0.65-6.121,0.956-9.181c1.932-16.296,4.284-32.553,5.776-48.907C323.822,639.246,324.185,637.161,324.358,636.128z"/>
	<path fill="#E7E7E7" stroke="#E7E7E7" d="M193.818,686.967c5.432-4.055,10.73-8.339,16.774-11.495
		c3.787,2.41,7.823,4.552,12.318,5.298c1.301,7.574,2.085,15.206,2.467,22.875c-11.667,0.057-23.296-0.612-34.944-0.727
		C191.81,697.659,192.9,692.322,193.818,686.967z"/>
</g>
<g>
	<path fill="#512E1A" stroke="#512E1A" d="M2323.166,50.452c5.642-1.855,11.247,0.727,16.736,2.008
		c10.175,3.806,23.334-1.932,31.425,6.866c7.211,6.79,15.014,12.987,21.575,20.485c9.448,10.596,16.698,22.875,24.903,34.409
		c5.623,7.574,6.522,17.214,7.727,26.28c1.32,12.7,3.979,25.228,5.145,37.966c0.956,10.443,6.446,19.586,10.481,29.053
		c5.356,12.451,10.94,24.788,16.506,37.144c3.06,7.574,8.397,15.187,6.675,23.755c-2.888,15.263-8.186,30.201-8.798,45.847
		c-0.344,3.003,2.62,4.954,5.355,5.049c8.951,1.262,18.036,2.104,26.643,5.183c-1.779,3.041-3.71,6.025-6.273,8.454
		c-4.686,2.85-9.315,5.757-13.561,9.2c-15.359-4.227-30.258-9.984-45.598-14.249c-5.662-1.817-11.591-3.137-16.678-6.235
		c-3.29-6.331-3.749-13.637-5.47-20.465c-2.658-10.73-1.951-21.881-0.535-32.726c1.243-10.214,7.173-19.012,9.334-28.977
		c3.328-15.894,3.749-32.955-3.118-48.008c-0.383-2.525-0.765-5.03-1.09-7.517c-1.186-8.052-3.481-15.875-5.489-23.736
		c-3.405-14.536-5.68-29.704-13.083-42.901c-4.667-8.416-7.421-18.687-16.105-24.042c-5.164-3.271-10.252-9.2-17.004-7.077
		c-8.53,1.817-17.233,2.123-25.84,3.194c-9.372,2.123-18.342,5.681-27.504,8.473c-6.58,1.358-8.55,8.473-11.495,13.561
		c-4.858,10.692-12.949,20.332-13.81,32.458c-2.257,17.271-4.571,34.524-6.943,51.776c-1.205,6.771,0.344,13.503,1.721,20.121
		c-2.314,9.506,0.555,19.088,1.435,28.594c1.186,13.197,8.205,24.692,13.006,36.78c3.443,8.148,3.099,17.176,4.093,25.821
		c1.587,13.312-9.028,23.526-12.471,35.709c-2.792,5.317-5.394,11.304-10.787,14.46c-7.192,4.265-14.364,8.569-21.747,12.49
		c-5.298,2.869-11.514,2.123-17.252,1.702c-9.295-0.899-18.61-1.549-27.906-2.047c-0.823-2.601-1.606-5.183-2.333-7.765
		c-2.314-8.301-4.782-16.583-5.795-25.152c3.538-1.109,7.115-2.219,10.711-3.328c0.574-5.088,0.459-10.367,2.314-15.206
		c3.194-3.711,8.014-5.814,10.787-9.888c2.18-15.473,2.295-31.176,3.481-46.726c2.735-26.146,8.913-51.757,13.369-77.635
		c3.978-20.236,6.292-40.854,12.777-60.498c4.246-11.801,6.866-24.233,12.088-35.633c8.607-10.118,21.192-15.779,31.654-23.755
		C2296.943,55.406,2310.676,54.067,2323.166,50.452z"/>
	<path fill="#DEB6AA" stroke="#DEB6AA" d="M2352.869,86.219c6.752-2.123,11.84,3.806,17.004,7.077
		c8.684,5.355,11.438,15.626,16.105,24.042c7.402,13.197,9.678,28.365,13.083,42.901c-7-5.872-13.599-12.585-17.864-20.695
		c-0.612-8.492,1.224-16.984,0.574-25.496c-7.172-6.905-15.818-12.49-26.089-12.757
		C2354.552,96.298,2353.615,91.268,2352.869,86.219z"/>
	<path fill="#F1C5B8" stroke="#F1C5B8" d="M2327.029,89.413c8.607-1.071,17.31-1.377,25.84-3.194
		c0.746,5.049,1.683,10.08,2.812,15.072c10.271,0.268,18.916,5.853,26.089,12.757c0.65,8.511-1.186,17.004-0.574,25.496
		c4.265,8.11,10.864,14.823,17.864,20.695c2.008,7.861,4.303,15.684,5.489,23.736c-6.369,7.957-7.383,18.419-10.252,27.848
		c-2.927,9.869-4.342,20.064-6.254,30.124c-2.697,12.604-13.312,21.078-23.009,28.499c-4.763,4.036-10.807,7.746-12.547,14.115
		c-0.115,4.686,1.76,9.2,3.883,13.331c4.82,1.396,10.175-1.913,14.957,0.382c2.735,1.301,5.757,3.232,6.522,6.427
		c-3.232,11.227-10.826,20.389-18.782,28.633c-5.661,7.039-14.268,13.063-14.593,22.914c0.765,0.153,2.295,0.478,3.06,0.631
		c-5.107,3.864-10.998,6.446-16.334,9.888c-4.61,2.812-6.714,7.995-9.124,12.528c-5.929-0.421-11.552-2.41-16.698-5.241
		c-3.424-8.397-8.817-15.779-12.585-23.985c-2.161-4.418-1.014-9.391-0.497-14.001c0.803-4.457,1.645-8.894,2.2-13.389
		c2.792-14.288,0.841-28.786-2.047-42.863c3.519-0.306,7.88-2.506,10.902,0.44c4.418,2.869,6.197,7.938,6.178,13.044
		c0.153,10.845,7.918,19.337,14.747,26.969c0.306-5.107,0.995-10.252,0.268-15.34c-1.645-5.719-7.727-10.768-4.074-16.984
		c6.828,1.951,13.944,4.456,21.135,3.137c3.902-0.708,5.719-4.667,8.033-7.44c-6.771,1.262-13.676,4.265-20.561,1.989
		c-13.465-1.97-25.075-10.252-34.237-19.834c-8.033-16.889-14.594-34.83-25.84-49.997c-1.377-6.618-2.926-13.35-1.721-20.121
		c2.372-17.252,4.686-34.504,6.943-51.776c0.861-12.126,8.951-21.766,13.81-32.458c2.945-5.088,4.915-12.203,11.495-13.561
		C2308.687,95.093,2317.657,91.536,2327.029,89.413z"/>
	<path fill="#DEB7AC" stroke="#DEB7AC" d="M2394.298,211.823c2.869-9.429,3.883-19.892,10.252-27.848
		c0.325,2.486,0.708,4.992,1.09,7.517c-1.645,14.383-5.757,28.346-8.416,42.557c-0.956,7.899-8.205,12.471-11.418,19.26
		c-0.383,8.722,1.014,17.424,1.128,26.146c0.402,6.733-0.402,13.752,2.2,20.14l0.402,1.224c-10.405,8.97-8.167,25.668-18.936,34.466
		c-8.033,6.828-14.881,14.957-23.067,21.594c-0.765-0.153-2.295-0.478-3.06-0.631c0.325-9.85,8.932-15.875,14.593-22.914
		c7.957-8.244,15.55-17.405,18.782-28.633c-0.765-3.194-3.787-5.126-6.522-6.427c-4.781-2.295-10.137,1.014-14.957-0.382
		c-2.123-4.131-3.998-8.645-3.883-13.331c1.74-6.369,7.784-10.08,12.547-14.115c9.697-7.421,20.313-15.894,23.009-28.499
		C2389.956,231.887,2391.371,221.693,2394.298,211.823z"/>
	<path fill="#030101" stroke="#030101" d="M2405.64,191.492c6.866,15.053,6.446,32.114,3.118,48.008
		c-2.161,9.965-8.091,18.763-9.334,28.977c-1.415,10.845-2.123,21.996,0.535,32.726c-3.653-0.287-7.306-0.803-10.825-1.607
		c-2.601-6.388-1.798-13.408-2.2-20.14c-0.115-8.722-1.511-17.424-1.128-26.146c3.213-6.79,10.462-11.361,11.418-19.26
		C2399.883,219.837,2403.995,205.875,2405.64,191.492z"/>
	<path fill="#040101" stroke="#040101" d="M2270.434,244.396c-0.88-9.506-3.749-19.088-1.435-28.594
		c1.186,9.908,2.907,19.739,4.552,29.57c1.377,9.162,11.323,12.891,16.009,20.083c1.224,4.724,1.893,9.582,2.888,14.364
		c2.888,14.077,4.839,28.575,2.047,42.863c-0.746-5.489-0.727-11.055-1.741-16.487c-1.989-1.836-3.73-1.568-5.221,0.803
		c-0.995-8.645-0.651-17.673-4.093-25.821C2278.639,269.088,2271.619,257.593,2270.434,244.396z"/>
	<path fill="#E0B7AB" stroke="#E0B7AB" d="M2268.999,215.802c11.247,15.167,17.807,33.108,25.84,49.997
		c9.162,9.582,20.771,17.864,34.237,19.834c6.885,2.276,13.79-0.727,20.561-1.989c-2.314,2.773-4.131,6.733-8.033,7.44
		c-7.191,1.32-14.307-1.186-21.135-3.137c-3.653,6.216,2.429,11.266,4.074,16.984c0.727,5.088,0.038,10.233-0.268,15.34
		c-6.828-7.632-14.594-16.124-14.747-26.969c0.019-5.107-1.76-10.175-6.178-13.044c-3.022-2.945-7.383-0.746-10.902-0.44
		c-0.995-4.782-1.664-9.64-2.888-14.364c-4.686-7.192-14.632-10.921-16.009-20.083
		C2271.906,235.54,2270.185,225.709,2268.999,215.802z"/>
	<path fill="#141414" stroke="#141414" d="M2389.134,299.595c3.519,0.803,7.172,1.32,10.825,1.607
		c1.721,6.828,2.18,14.135,5.47,20.465c5.087,3.099,11.017,4.418,16.678,6.235c15.34,4.265,30.239,10.022,45.598,14.249
		c4.246-3.443,8.875-6.35,13.561-9.2c13.044,3.691,26.529,4.896,40.051,5.279c3.921-0.153,4.246,4.61,5.642,7.325
		c3.711,9.353,1.224,19.643,3.385,29.264c3.806,10.73,10.845,20.045,14.632,30.794c0.937,7.019-1.014,14.402,1.951,21.154
		c3.806,9.908,5.336,20.446,5.757,31.023c0.573,10.462,11.954,14.728,16.965,22.761c4.877,9.449,5.394,20.427,3.978,30.794
		c-1.358,6.293,2.009,11.916,5.183,17.042c-2.027,3.672-5.413,7.058-5.853,11.323c2.314,7.268,4.552,14.594,5.528,22.206
		c0.287,5.279,5.795,7.249,9.506,9.946c-1.511,22.263-2.276,44.68-0.287,66.943c0.268,4.992,1.339,10.692-2.104,14.919
		c-13.369,17.807-27.37,35.193-40.032,53.535c-7.651,10.271-13.427,21.996-22.015,31.502c-7.23,2.754-15.014,4.074-22.665,4.858
		c-5.623-3.653-8.262-10.29-11.801-15.722c0.899-0.536,2.678-1.607,3.577-2.161c4.533,4.303,9.162,12.088,16.468,10.061
		c5.413-1.645,13.446-3.787,13.446-10.787c-0.784-4.858-1.875-9.793-0.134-14.594c-0.975-0.096-2.907-0.287-3.864-0.383
		c2.334-12.604-5.814-25.171-14.899-33.319c-9.2-1.951-20.313-4.017-28.441,2.066c-0.019-2.142-0.364-4.457,1.109-6.235
		c9.563-15.282,23.124-28.174,29.704-45.196c1.645-3.118,3.978-5.815,5.681-8.894c-0.842-6.733-7.555-9.869-11.533-14.536
		c-1.396-4.935,1.32-10.807-2.391-15.053c-5.126-8.684-17.329-12.91-17.845-24.023c-0.727-8.377,0.134-16.812-0.497-25.19
		c-5.604,6.484-6.025,15.301-7.44,23.354c-2.697,16.315-5.795,32.554-8.588,48.849c-1.932,12.279-0.325,24.769-1.664,37.087
		c-1.607,13.083,1.932,25.936,3.5,38.827c-7.077,6.56-14.842,12.26-22.436,18.151c-7.536,6.637-18.744,5.815-27.963,4.38
		c-17.386-5.853-36.015-3.959-53.823-7.364c-12.107-2.372-24.195-4.743-36.092-7.938c0.727-10.673-0.229-21.384,0.593-32.037
		c9.888-65.05,20.982-129.889,32.171-194.728c1.74-8.932,3.538-17.883,4.648-26.93c3.175-18.017,6.35-36.015,9.372-54.052
		c2.601-17.443,7.785-34.351,11.246-51.604c2.066-11.591,7.421-22.952,6.542-34.83L2389.134,299.595 M2481.534,478.793
		c-2.046,19.796-6.407,39.573-5.374,59.541c5.298-3.213,6.962-9.582,7.306-15.378c0.44-8.99-0.115-17.96-0.095-26.93
		c-0.344-12.318,3.098-24.444,1.798-36.761C2481.764,465.136,2482.854,472.328,2481.534,478.793 M2499.322,580.929
		c-1.454,2.219-1.014,3.902,1.301,5.069c7.364,3.29,16.679,3.06,23.469-1.607c-2.104-2.104-4.169-4.189-6.197-6.273
		C2511.62,578.347,2505.155,578.442,2499.322,580.929 M2519.634,617.116c0.765,2.066,2.142,4.189,4.686,4.246
		c7.383,1.167,14.938,1.033,22.302,2.525c8.454,1.262,16.105,5.757,24.75,6.14c-1.377-2.314-2.104-5.432-5.011-6.178
		c-6.56-2.62-13.236-5.011-20.064-6.733C2537.46,615.72,2528.49,616.657,2519.634,617.116z"/>
	<path fill="#F4F3F1" stroke="#F4F3F1" d="M2370.6,335.286c10.768-8.798,8.531-25.496,18.936-34.466
		c0.88,11.878-4.476,23.239-6.542,34.83c-6.599,3.959-9.965,11.055-13.924,17.29c-3.998,6.369-7.804,12.834-11.399,19.394
		c-4.284,7.938-9.774,15.32-12.26,24.08c8.932-2.62,17.233-7.039,26.337-9.162c-3.022,18.036-6.197,36.035-9.372,54.052
		c-1.645-7.479-1.396-15.148-0.842-22.722c-6.675,3.825-14.422,0.325-21.384,2.926c3.194,10.539,7.459,20.714,10.673,31.253
		c1.626,5.413,3.978,10.596,6.905,15.473c-11.189,64.839-22.283,129.678-32.171,194.728c-0.823,10.654,0.134,21.364-0.593,32.037
		l-1.875-0.44c-2.257-2.506-3.749-5.623-3.519-9.047c-0.192-34.983,1.358-70.156-2.812-104.948
		c-3.347-8.722-7.842-17.099-8.072-26.682c1.033-9.965,0.268-20.274,3.73-29.857c4.495-12.91,7.67-26.203,10.309-39.611
		c5.069-19.413,4.017-39.707,3.309-59.56c-2.18,12.757-0.842,26.089-5.489,38.406c-4.877,12.7-8.894,25.878-15.933,37.622
		c-3.06,5.126-5.814,10.424-8.224,15.875c3.443,5.413,7.632,10.462,10.233,16.411c1.511,6.197,0.65,12.681,0.746,19.031
		c-4.227,7.268-1.147,15.014,2.429,21.766c5.087,9.563,4.935,20.599,4.935,31.138c0.038,12.815,0.516,25.63,1.492,38.406
		c1.511,18.457-2.142,36.819-1.205,55.295c0.822,19.987-7.536,38.578-10.921,57.915c1.855-1.358,4.17-2.525,4.705-5.03
		c3.098-8.55,4.112-17.788,8.167-26.012c0.153,12.7,3.959,25.859-1.817,37.947c-5.145,0.708-10.252,1.76-15.416,1.779
		c-6.331-0.822-12.279-3.328-18.515-4.457c-0.21-1.09-0.593-3.252-0.803-4.323c-5.241-1.186-10.462-2.448-15.665-3.557
		c0.746-3.481,1.358-6.981,2.104-10.443c7.287-4.552,8.511-13.37,10.042-21.077c1.071-6.809,5.107-12.528,7.976-18.648
		c1.74-3.634-0.077-7.593-0.669-11.266c5.585-7.23,5.298-16.43,3.118-24.884c3.251-3.271,6.732-6.388,9.295-10.271
		c0.65-4.036-3.672-5.585-6.254-7.517c3.06-13.408,3.5-27.236,4.667-40.874c-0.497-12.088-1.358-25.171-8.741-35.27
		c-2.984-4.552-6.044-8.99-9.104-13.427c1.53,9.659,3.405,19.28,4.954,28.958c1.167,7.632,3.098,15.492,0.975,23.181
		c-4.992-29.704-10.194-59.35-15.282-89.034c-2.161-32.439,1.435-64.82,4.38-97.087c9.755-6.752,21.46-13.905,24.539-26.203
		c1.32-4.131-0.861-8.148-3.271-11.361c-5.049-6.79-10.845-13.044-17.329-18.476c0.669-8.913-0.229-17.807-1.09-26.663
		c3.443-12.184,14.058-22.397,12.471-35.709c1.492-2.372,3.232-2.639,5.221-0.803c1.014,5.432,0.995,10.998,1.741,16.487
		c-0.555,4.495-1.396,8.932-2.2,13.389c-0.21-3.347-0.478-6.675-0.727-10.003c-1.147,0.057-3.462,0.172-4.61,0.229
		c-3.558,10.042-8.052,21.9-2.659,32.094c3.672,8.722,13.523,11.361,21.078,15.665c5.145,2.831,10.768,4.82,16.698,5.241
		c2.41-4.533,4.514-9.716,9.124-12.528c5.336-3.443,11.227-6.025,16.334-9.888C2355.719,350.243,2362.567,342.114,2370.6,335.286
		 M2306.22,400.412c2.716,13.389,5.049,26.816,6.178,40.434c1.167-10.252,3.099-20.504,2.773-30.851
		C2315.534,404.773,2310.007,402.496,2306.22,400.412 M2292.735,664.646c-0.421,12.069-1.741,24.061-2.601,36.111
		c-0.803,8.339,4.705,16.984,0.287,24.903c-4.744,9.047-11.419,18.056-9.277,28.939c2.697-5.317,3.003-11.514,6.197-16.621
		c9.009-14.861,17.711-31.1,18.821-48.735C2307.463,679.029,2300.443,670.346,2292.735,664.646z"/>
	<path fill="#D0CABF" stroke="#D0CABF" d="M2286.959,326.296c1.147-0.057,3.462-0.172,4.61-0.229
		c0.249,3.328,0.516,6.656,0.727,10.003c-0.516,4.61-1.664,9.582,0.497,14.001c3.768,8.205,9.161,15.588,12.585,23.985
		c-7.555-4.303-17.405-6.943-21.078-15.665C2278.907,348.196,2283.401,336.338,2286.959,326.296z"/>
	<path fill="#D0C9BF" stroke="#D0C9BF" d="M2369.07,352.939c3.959-6.235,7.325-13.331,13.924-17.29
		c-3.462,17.252-8.645,34.16-11.246,51.604c-9.104,2.123-17.405,6.541-26.337,9.162c2.486-8.76,7.976-16.143,12.26-24.08
		C2361.266,365.773,2365.072,359.309,2369.07,352.939z"/>
	<path fill="#141414" stroke="#141414" d="M2264.275,357.166c5.394-3.156,7.995-9.143,10.787-14.46
		c0.861,8.856,1.76,17.75,1.09,26.663c-1.664,18.648-2.391,37.373-3.94,56.041c-2.946,32.267-6.541,64.648-4.38,97.087
		c5.088,29.685,10.29,59.331,15.282,89.034c1.186,12.164,0.497,24.578,3.271,36.551c-4.59,1.014-9.009,2.506-13.369,4.093
		c3.232-4.476,6.79-9.181,6.254-15.033c-6.522,2.907-11.227,8.358-16.87,12.509c-6.407,2.008-13.274,1.568-19.873,2.391
		c-9.735,0.383-18.515,4.858-27.753,7.306c-5.279,1.262-9.888,4.074-14.268,7.115c-8.282-2.639-17.692-3.328-25.515,0.956
		c-4.973,4.782-10.94,10.596-10.309,18.094c0.038,6.943,2.123,14.096,6.484,19.586c4.916,3.634,10.711,5.91,15.646,9.582
		c5.623,5.222,12.891,7.842,20.198,9.755c16.354,4.131,30.928,13.255,43.571,24.176c5.547,0.88,11.074-3.844,16.277-5.987
		c-0.746,3.462-1.358,6.962-2.104,10.443c-5.011,18.438-5.929,37.641-9.181,56.404c-2.142,17.31-5.49,34.447-7.134,51.795
		c-0.784,8.071-0.095,16.392,3.73,23.679c-3.749,0.306-7.613,0.765-11.055-0.975c-26.204-10.73-52.311-21.651-78.534-32.305
		c-2.372-1.224-4.686-2.525-6.943-3.806c2.984-8.377,7.249-16.181,10.5-24.444c-1.358-2.659-2.754-5.279-3.787-8.052
		c-2.027-4.246,1.014-8.569,2.391-12.509c6.733-16.621,15.034-32.668,20.007-49.959c-4.074-0.918-9.085-0.153-12.146-3.424
		c-5.853-5.814-10.366-12.796-14.613-19.815c6.924,4.514,11.858,11.342,18.514,16.162c4.495,2.353,8.244-1.588,11.074-4.61
		c-3.615-2.525-6.618-5.7-8.875-9.429c-3.692-6.733-13.006-7.077-16.813-13.656c-2.027-4.246-2.027-9.104-2.754-13.656
		c-3.806,5.298-6.197,11.399-7.632,17.73c-7.899-8.473-9.181-20.389-12.356-31.023c-2.41-8.071-4.055-16.411-3.864-24.865
		c0.23-13.484-1.377-27.6,3.787-40.415c1.148-3.271,4.571-4.686,7.192-6.618c0.497-8.511-6.082-14.46-9.066-21.728
		c4.189-8.339,11.533-15.301,13.14-24.807c-1.32-4.954-4.438-9.162-6.025-14.001c0.325-3.653,2.2-6.905,3.443-10.309
		c4.457-8.798-1.339-18.285-0.708-27.485c-0.517-8.454,8.377-14.326,6.981-22.914c-2.085-28.958-2.965-58.432,3.5-86.931
		c2.582-10.52,2.946-21.556,6.465-31.808c7.976-9.2,20.217-12.949,31.043-17.749c0.727,2.582,1.511,5.164,2.333,7.765
		c9.296,0.497,18.61,1.148,27.906,2.047c5.738,0.421,11.954,1.167,17.252-1.702C2249.911,365.735,2257.083,361.432,2264.275,357.166
		 M2195.075,511.155c-0.994,9.774-1.454,20.179,3.175,29.206c5.394,11.246,7.823,23.564,10.367,35.709
		c1.052,5.279-1.932,10.233-2.468,15.397c2.888,6.006,9.927,8.416,15.493,11.419c-1.339-8.052-7.134-14.517-7.938-22.684
		c-0.918-6.159-2.448-12.203-4.858-17.941c-4.916-11.227-2.735-23.927-6.752-35.365
		C2200.124,521.502,2199.149,515.439,2195.075,511.155z"/>
	<path fill="#D0C9BE" stroke="#D0C9BE" d="M2276.152,369.369c6.484,5.432,12.28,11.686,17.329,18.476
		c2.41,3.213,4.591,7.23,3.271,11.361c-3.079,12.298-14.785,19.452-24.539,26.203
		C2273.761,406.743,2274.488,388.018,2276.152,369.369z"/>
	<path fill="#CECCC0" stroke="#CECCC0" d="M2306.22,400.412c3.787,2.085,9.314,4.361,8.951,9.582
		c0.325,10.348-1.606,20.599-2.773,30.851C2311.269,427.227,2308.936,413.8,2306.22,400.412z"/>
	<path fill="#D0CABF" stroke="#D0CABF" d="M2340.15,421.508c6.962-2.601,14.708,0.899,21.384-2.926
		c-0.555,7.574-0.803,15.244,0.842,22.722c-1.109,9.047-2.907,17.998-4.648,26.93c-2.927-4.877-5.279-10.061-6.905-15.473
		C2347.609,442.223,2343.344,432.047,2340.15,421.508z"/>
	<path fill="#D0CABF" stroke="#D0CABF" d="M2320.545,463.262c4.648-12.318,3.309-25.649,5.489-38.406
		c0.708,19.853,1.76,40.147-3.309,59.56c-2.639,13.408-5.814,26.701-10.309,39.611c-3.462,9.582-2.697,19.892-3.73,29.857
		l-1.32-1.683c-0.096-6.35,0.765-12.834-0.746-19.031c-2.601-5.948-6.79-10.998-10.233-16.411c2.41-5.451,5.164-10.749,8.224-15.875
		C2311.652,489.14,2315.668,475.962,2320.545,463.262z"/>
	<path fill="#010202" stroke="#010202" d="M2481.534,478.793c1.32-6.465,0.23-13.656,3.634-19.528
		c1.301,12.318-2.142,24.444-1.798,36.761c-0.019,8.97,0.535,17.941,0.095,26.93c-0.344,5.795-2.008,12.164-7.306,15.378
		C2475.127,518.366,2479.488,498.589,2481.534,478.793z"/>
	<path fill="#020202" stroke="#020202" d="M2195.075,511.155c4.074,4.284,5.049,10.347,7.02,15.741
		c4.017,11.438,1.836,24.138,6.752,35.365c2.41,5.738,3.94,11.782,4.858,17.941c0.803,8.167,6.599,14.632,7.938,22.684
		c-5.566-3.003-12.604-5.413-15.493-11.419c0.536-5.164,3.519-10.118,2.468-15.397c-2.544-12.146-4.973-24.463-10.367-35.709
		C2193.621,531.333,2194.08,520.929,2195.075,511.155z"/>
	<path fill="#E5D8D1" stroke="#E5D8D1" d="M2309.796,573.967c-3.577-6.752-6.656-14.498-2.429-21.766l1.32,1.683
		c0.229,9.582,4.724,17.96,8.072,26.682c4.17,34.791,2.62,69.965,2.812,104.948c-0.229,3.424,1.262,6.541,3.519,9.047
		c-0.956,0.287-2.85,0.88-3.787,1.167c0.229,5.566,2.486,10.768,3.328,16.258c-0.956,4.896-3.787,9.142-5.661,13.695
		c-4.055,8.224-5.069,17.463-8.167,26.012c-0.536,2.506-2.85,3.672-4.705,5.03c3.385-19.337,11.744-37.928,10.921-57.915
		c-0.937-18.476,2.716-36.838,1.205-55.295c-0.976-12.777-1.454-25.591-1.492-38.406
		C2314.731,594.566,2314.884,583.53,2309.796,573.967z"/>
	<path fill="#D0CBBE" stroke="#D0CBBE" d="M2277.185,559.392c3.06,4.437,6.12,8.875,9.104,13.427
		c7.383,10.099,8.243,23.181,8.741,35.27c-1.167,13.637-1.606,27.466-4.667,40.874c-0.995-0.229-2.984-0.669-3.979-0.88
		c-2.773-11.973-2.085-24.386-3.271-36.551c2.123-7.689,0.191-15.55-0.975-23.181
		C2280.59,578.672,2278.716,569.051,2277.185,559.392z"/>
	<path fill="#020202" stroke="#020202" d="M2499.322,580.929c5.833-2.486,12.298-2.582,18.572-2.812
		c2.028,2.085,4.093,4.17,6.197,6.273c-6.79,4.667-16.104,4.896-23.469,1.607C2498.308,584.831,2497.868,583.147,2499.322,580.929z"
		/>
	<path fill="#030303" stroke="#030303" d="M2519.634,617.116c8.856-0.459,17.826-1.396,26.662,0
		c6.828,1.721,13.504,4.112,20.064,6.733c2.907,0.746,3.634,3.864,5.011,6.178c-8.645-0.382-16.296-4.877-24.75-6.14
		c-7.364-1.492-14.919-1.358-22.302-2.525C2521.777,621.305,2520.399,619.182,2519.634,617.116z"/>
	<path fill="#F0C5B7" stroke="#F0C5B7" d="M2262.4,649.651c5.642-4.15,10.348-9.602,16.87-12.509
		c0.536,5.853-3.022,10.558-6.254,15.033c4.361-1.588,8.779-3.079,13.369-4.093c0.995,0.21,2.984,0.65,3.979,0.88
		c2.582,1.932,6.905,3.481,6.254,7.517c-2.563,3.883-6.044,7-9.295,10.271c2.18,8.454,2.467,17.654-3.118,24.884
		c0.593,3.672,2.41,7.631,0.669,11.266c-2.869,6.12-6.905,11.839-7.976,18.648c-1.53,7.708-2.754,16.525-10.042,21.077
		c-5.202,2.142-10.73,6.867-16.277,5.987c-12.643-10.921-27.217-20.045-43.571-24.176c-7.306-1.913-14.574-4.533-20.198-9.755
		c-0.44-12.432-8.55-23.889-4.992-36.589c0.708-9.506,12.107-8.588,18.687-11.629c4.38-3.041,8.989-5.853,14.268-7.115
		c9.238-2.448,18.017-6.924,27.753-7.306C2249.126,651.219,2255.993,651.659,2262.4,649.651 M2244.536,686.699
		c6.713-0.88,13.561-1.836,19.987-4.227c6.14-4.437,12.222-9.047,17.979-14.02C2269.841,674.534,2257.007,680.292,2244.536,686.699
		 M2204.504,700.432c1.989,3.539,0.803,7.612,0.344,11.38c7.459,5.853,14.077,12.891,22.493,17.443
		c1.129-11.667-8.148-20.733-8.358-32.19c-1.817-7.88,0-16.334-2.907-23.908C2207.985,679.087,2199.187,690.142,2204.504,700.432
		 M2250.618,723.938c0.057,1.224,0.153,3.672,0.21,4.916c3.768,3.424,11.361,2.333,11.361-3.711
		C2258.307,724.589,2254.463,724.206,2250.618,723.938z"/>
	<path fill="#DEB7AB" stroke="#DEB7AB" d="M2174.992,667.419c7.823-4.284,17.233-3.596,25.515-0.956
		c-6.58,3.041-17.979,2.123-18.687,11.629c-3.558,12.7,4.552,24.157,4.992,36.589c-4.935-3.672-10.73-5.948-15.646-9.582
		c-4.361-5.489-6.446-12.643-6.484-19.586C2164.051,678.015,2170.019,672.201,2174.992,667.419z"/>
	<path fill="#D0CABF" stroke="#D0CABF" d="M2292.735,664.646c7.708,5.7,14.727,14.383,13.427,24.597
		c-1.109,17.635-9.812,33.873-18.821,48.735c-3.194,5.107-3.5,11.304-6.197,16.621c-2.142-10.883,4.533-19.892,9.277-28.939
		c4.418-7.918-1.091-16.564-0.287-24.903C2290.995,688.707,2292.314,676.715,2292.735,664.646z"/>
	<path fill="#040101" stroke="#040101" d="M2244.536,686.699c12.47-6.407,25.304-12.165,37.966-18.247
		c-5.757,4.973-11.84,9.582-17.979,14.02C2258.097,684.863,2251.25,685.819,2244.536,686.699z"/>
	<path fill="#DFB7AB" stroke="#DFB7AB" d="M2204.504,700.432c-5.317-10.29,3.481-21.345,11.572-27.274
		c2.907,7.574,1.09,16.028,2.907,23.908c0.211,11.457,9.487,20.523,8.358,32.19c-8.416-4.552-15.033-11.591-22.493-17.443
		C2205.308,708.044,2206.493,703.97,2204.504,700.432z"/>
	<path fill="#F0C5B8" stroke="#F0C5B8" d="M2475.241,678.781c8.129-6.082,19.241-4.017,28.441-2.066
		c9.085,8.148,17.233,20.714,14.899,33.319c-8.741,5.069-17.252,10.5-25.917,15.703c-0.899,0.555-2.678,1.626-3.577,2.161
		c-4.552,2.735-9.028,5.585-13.542,8.377c-23.124,14.192-46.267,28.479-70.902,39.975c-0.861-3.844,3.5-5.126,5.987-6.905
		c6.235-3.519,12.165-7.612,17.348-12.604c-3.921-2.582-8.071-4.896-11.476-8.129c-4.686-5.451-4.858-13.695-10.156-18.629
		c-7.995-1.396-16.659-1.721-24.348,1.129c-4.782,1.874-3.232,7.67-4.074,11.667c-0.077,4.457-2.754,8.167-4.935,11.839
		c0.861,8.97,0.803,18.036,2.639,26.911c1.683,5.069-3.213,8.473-5.795,12.088c-5.24,5.7-8.569,12.91-14.115,18.304
		c-4.973,2.391-10.787,2.276-16.124,3.271c-2.448,0.096-4.839,0.134-7.211,0.115c-2.601-0.344-5.164-0.803-7.651-1.301
		c-0.803-0.249-2.41-0.784-3.213-1.033c-3.73-1.798-6.924-4.495-9.831-7.326c11.725-8.76,26.261,0.172,39.305-4.017
		c2.506-4.38,5.069-8.741,7.421-13.217c-10.596,0.21-21.001,3.118-31.559,2.85c-10.175-5.183-8.301-18.381-11.706-27.638
		c5.776-12.088,1.97-25.247,1.817-37.947c1.875-4.552,4.705-8.798,5.661-13.695c-0.842-5.489-3.098-10.692-3.328-16.258
		c0.937-0.287,2.831-0.88,3.787-1.167l1.875,0.44c11.897,3.194,23.985,5.566,36.092,7.938c17.807,3.405,36.436,1.511,53.823,7.364
		c9.219,1.435,20.427,2.257,27.963-4.38c7.593-5.891,15.359-11.591,22.436-18.151
		C2468.604,684.786,2471.856,681.726,2475.241,678.781 M2327.067,714.05c1.989,4.763,3.539,9.812,6.542,14.077
		c9.506,5.604,20.944,3.978,31.482,5.088c-0.229-2.314-0.459-4.609-0.65-6.866C2352.162,721.605,2339.021,719.539,2327.067,714.05
		 M2331.734,773.017c3.175-0.115,6.446-0.268,9.716-0.402c0-0.593-0.019-1.817-0.038-2.429
		C2338.046,770.799,2332.939,768.58,2331.734,773.017z"/>
	<path fill="#020202" stroke="#020202" d="M2151.504,722.198c1.435-6.331,3.825-12.432,7.632-17.73
		c0.727,4.552,0.727,9.41,2.754,13.656c3.806,6.58,13.121,6.924,16.813,13.656c2.257,3.73,5.26,6.905,8.875,9.429
		c-2.831,3.022-6.58,6.962-11.074,4.61c-6.656-4.82-11.591-11.648-18.514-16.162
		C2155.789,727.171,2153.589,724.703,2151.504,722.198z"/>
	<path fill="#030202" stroke="#030202" d="M2492.666,725.736c8.664-5.203,17.176-10.634,25.917-15.703
		c0.956,0.096,2.888,0.287,3.864,0.383c-1.74,4.801-0.65,9.735,0.134,14.594c0,7-8.033,9.142-13.446,10.787
		C2501.827,737.824,2497.199,730.04,2492.666,725.736z"/>
	<path fill="#171313" stroke="#171313" d="M2327.067,714.05c11.954,5.489,25.094,7.555,37.374,12.299
		c0.191,2.257,0.421,4.552,0.65,6.866c-10.539-1.109-21.976,0.516-31.482-5.088C2330.606,723.862,2329.057,718.813,2327.067,714.05z
		"/>
	<path fill="#171313" stroke="#171313" d="M2250.618,723.938c3.844,0.268,7.689,0.65,11.572,1.205c0,6.044-7.594,7.134-11.361,3.711
		C2250.771,727.611,2250.676,725.163,2250.618,723.938z"/>
	<path fill="#DFB7AB" stroke="#DFB7AB" d="M2381.999,731.111c7.689-2.85,16.353-2.525,24.348-1.129
		c5.298,4.935,5.47,13.178,10.156,18.629c3.405,3.232,7.555,5.547,11.476,8.129c-5.183,4.992-11.112,9.085-17.348,12.604
		c-2.487,1.779-6.848,3.06-5.987,6.905c-16.392,8.435-29.876,21.326-42.71,34.332c-5.508,6.79-14.823,3.997-22.34,4.609
		c5.336-0.995,11.151-0.88,16.124-3.271c5.547-5.394,8.875-12.604,14.115-18.304c2.582-3.615,7.479-7.019,5.795-12.088
		c-1.836-8.875-1.779-17.941-2.639-26.911c2.18-3.672,4.858-7.383,4.935-11.839C2378.767,738.781,2377.218,732.985,2381.999,731.111
		z"/>
	<path fill="#141414" stroke="#141414" d="M2404.645,776.25c24.635-11.495,47.778-25.783,70.902-39.975
		c6.159,17.405,9.85,35.633,17.061,52.713c5.298,16.43,13.752,32.133,15.588,49.5c1.243,5.241-4.246,7.115-7.747,9.353
		c-7.842,4.265-15.32,9.143-22.933,13.771c-8.779,2.869-18.037,3.481-27.064,4.935c-23.736,4.17-47.606,7.44-71.4,11.151
		c-4.686,0.918-9.487,1.951-14.135,0.459c17.577-4.877,34.294-12.146,50.991-19.394c10.366-4.82,21.728-7.785,30.947-14.861
		c9.009-6.943,20.14-11.438,27.141-20.752c-19.586,6.637-36.647,18.648-55.525,26.816c-23.908,11.801-49.136,20.791-72.777,33.089
		c2.773,0.459,5.585,0.918,8.435,1.32c-5.776,1.645-11.591,3.137-17.558,3.749c0.134-15.684-3.041-31.176-2.639-46.841
		c0.038-8.683-1.243-17.31-1.549-25.974c2.372,0.019,4.762-0.019,7.211-0.115c7.517-0.612,16.832,2.18,22.34-4.609
		C2374.769,797.576,2388.253,784.685,2404.645,776.25z"/>
	<path stroke="#000000" d="M2255.572,809.473c3.251-18.763,4.17-37.966,9.181-56.404c5.202,1.109,10.424,2.372,15.665,3.557
		c0.21,1.071,0.593,3.232,0.803,4.323c-0.937,27.102-2.467,54.167-2.467,81.307c0.038,16.736-0.65,33.472-2.257,50.15
		c-8.492-1.339-15.818-6.503-24.329-7.459c-3.825-7.287-4.514-15.607-3.73-23.679C2250.083,843.92,2253.43,826.782,2255.572,809.473
		z"/>
	<path fill="#1C1C1C" stroke="#1C1C1C" d="M2281.221,760.948c6.235,1.129,12.184,3.634,18.515,4.457
		c5.164-0.019,10.271-1.071,15.416-1.779c3.405,9.257,1.53,22.455,11.706,27.638c10.558,0.268,20.963-2.64,31.559-2.85
		c-2.353,4.476-4.916,8.836-7.421,13.217c-13.044,4.189-27.58-4.743-39.305,4.017c2.907,2.831,6.101,5.528,9.831,7.326
		c-1.951,19.471-4.533,39.783,2.716,58.566c1.167-19.146,0.421-38.368,0.497-57.533c2.487,0.497,5.049,0.956,7.651,1.301
		c0.306,8.664,1.587,17.291,1.549,25.974c-0.402,15.665,2.773,31.157,2.639,46.841c5.968-0.612,11.782-2.104,17.558-3.749
		c19.356,2.429,37.698-5.91,56.864-6.886c17.558-0.88,34.963-5.107,52.617-3.883c0.803,9.181,1.052,18.419,0.44,27.638
		c-5.776,1.128-11.572,2.027-17.309,3.137c6.962,4.59,15.359,5.968,23.009,9.066c0.708,22.78,0.861,45.636-1.09,68.378
		c0,9.296-0.708,18.993-6.293,26.835h-131.151c-3.194-13.216-4.476-27.275-11.074-39.382c-0.995-6.771-6.101-11.591-9.181-17.348
		c-1.874-5.91-2.104-12.299-5.298-17.75c-7.823-14.938-5.528-32.228-6.599-48.409c-2.658,10.175-0.88,20.752-1.339,31.119
		c-0.306,2.984,0.21,6.713-2.448,8.836c-2.276,2.582-5.987,1.339-8.875,1.205c-8.377-1.339-16.774-2.754-25.266-2.353
		c9.296,9.334,22.608,12.91,32.496,21.479c2.658,2.314,2.563,6.178,3.117,9.41c1.53,18.362,3.864,37.737,14.785,53.191h-150.794
		c-1.415-18.495-4.877-36.876-4.361-55.467c0.459-13.905-1.167-28.059,2.391-41.658c2.104-8.11,3.577-16.468,2.639-24.865
		c-1.281-11.686,0.153-23.373,1.167-35.002c26.223,10.654,52.33,21.575,78.534,32.305c3.443,1.74,7.306,1.281,11.055,0.975
		c8.511,0.956,15.837,6.121,24.329,7.459c1.606-16.678,2.295-33.414,2.257-50.15
		C2278.754,815.115,2280.284,788.051,2281.221,760.948 M2304.383,768.14c-4.093,2.008-5.91,7.727-3.137,11.495
		c3.041,4.896,11.189,3.921,13.446-1.281C2318.767,772.463,2309.892,765.195,2304.383,768.14z"/>
	<path fill="#020102" stroke="#020102" d="M2304.383,768.14c5.509-2.945,14.383,4.323,10.309,10.214
		c-2.257,5.202-10.405,6.178-13.446,1.281C2298.473,775.867,2300.29,770.148,2304.383,768.14z"/>
	<path fill="#040101" stroke="#040101" d="M2331.734,773.017c1.205-4.437,6.312-2.219,9.678-2.831
		c0.019,0.612,0.038,1.836,0.038,2.429C2338.18,772.75,2334.91,772.903,2331.734,773.017z"/>
	<path fill="#020202" stroke="#020202" d="M2321.521,812.973c0.803,0.249,2.41,0.784,3.213,1.033
		c-0.077,19.165,0.669,38.387-0.497,57.533C2316.988,852.756,2319.57,832.444,2321.521,812.973z"/>
	<path fill="#0C0C0C" stroke="#0C0C0C" d="M2418.474,849.964c18.878-8.167,35.939-20.179,55.525-26.816
		c-7,9.315-18.132,13.809-27.141,20.752c-9.219,7.077-20.58,10.042-30.947,14.861c-16.698,7.249-33.414,14.517-50.991,19.394
		c4.648,1.492,9.448,0.459,14.135-0.459c23.793-3.711,47.664-6.981,71.4-11.151c9.028-1.454,18.285-2.066,27.064-4.935
		c4.686,25.285,11.208,50.188,16.372,75.397c1.855,10.998,0.593,22.225,1.683,33.299c1.186,12.738,1.434,25.553,1.377,38.349
		h-34.581c5.585-7.842,6.293-17.539,6.293-26.835c1.951-22.741,1.798-45.598,1.09-68.378c-7.651-3.099-16.047-4.476-23.009-9.066
		c5.738-1.109,11.533-2.008,17.309-3.137c0.612-9.219,0.364-18.457-0.44-27.638c-17.654-1.224-35.059,3.003-52.617,3.883
		c-19.165,0.975-37.507,9.315-56.864,6.886c-2.85-0.402-5.661-0.861-8.435-1.32C2369.337,870.754,2394.565,861.765,2418.474,849.964
		z"/>
	<path fill="#010101" stroke="#010101" d="M2297.727,916.888c0.459-10.367-1.32-20.944,1.339-31.119
		c1.071,16.181-1.224,33.472,6.599,48.409c3.194,5.451,3.424,11.839,5.298,17.75c3.079,5.757,8.186,10.577,9.181,17.348
		c-1.377,2.238-2.563,4.571-3.577,6.981c0.172,3.653,2.716,6.637,4.361,9.812c-2.41,7.421-4.552,14.938-6.197,22.589h-3.194
		c-10.921-15.454-13.255-34.83-14.785-53.191c-0.555-3.232-0.459-7.096-3.117-9.41c-9.888-8.569-23.201-12.145-32.496-21.479
		c8.492-0.402,16.889,1.014,25.266,2.353c2.888,0.134,6.599,1.377,8.875-1.205C2297.938,923.601,2297.421,919.872,2297.727,916.888z
		"/>
</g>
<g>
	<path fill="#151318" stroke="#151318" d="M1571.222,69.693c6.599-4.17,13.465,1.702,20.465,0.899
		c7.938-0.746,15.913,0.23,23.507,2.735c8.607,2.773,17.902,4.036,25.821,8.626c7.211,7.593,11.648,17.405,18.763,25.152
		c4.514,6.178,12.165,11.323,12.241,19.72c0.478,8.97,0.784,17.979,1.128,26.968c0.536,9.238-4.074,17.539-6.579,26.165
		c-2.046,6.637-2.792,13.733-5.987,19.987c-2.104-8.913-3.213-18.017-5.604-26.835c-1.894-6.809-7.383-11.629-10.921-17.501
		c-3.271-4.648-0.115-11.132-3.634-15.665c-3.634-5.47-7.957-10.424-11.858-15.665c-8.932,0.44-17.769,2.085-26.682,2.276
		c-9.85-0.555-19.05-4.667-28.805-5.757c-4.59,0.497-8.473,3.29-12.7,4.858c-4.361,2.276-9.219,0.21-13.79,0.383
		c-4.151,0.937-7.88,3.041-11.686,4.782c-0.727-5.222,1.014-9.965,5.853-12.356c1.205,0.727,2.429,1.454,3.692,2.18
		c2.372-6.197,4.724-12.528,9.181-17.577c0.287,2.907,0.574,5.795,0.88,8.722c2.525-3.271,5.03-6.541,7.555-9.812
		c4.629,3.921,7.574,9.219,7.976,15.34c2.544-2.257,5.145-4.514,7.804-6.694c6.407,4.093,14.211,2.773,21.403,3.5
		c-0.344,1.415-0.651,2.85-0.899,4.284c8.645,3.175,17.367-1.568,25.725-3.558c0.057-1.186,0.191-3.577,0.249-4.763
		c-4.17,0.421-8.32,0.842-12.451,1.281c0.172-2.544,0.344-5.069,0.574-7.593c-5.489,1.396-10.787,3.443-15.799,6.063
		c1.09-3.06,2.161-6.121,3.233-9.181c-3.003,0.497-5.968,0.995-8.913,1.492c0.191-2.066,0.402-4.131,0.631-6.178
		c-4.189,1.148-8.377,2.333-12.528,3.577c0.593-2.429,1.186-4.839,1.836-7.249c-4.131,1.071-8.243,2.18-12.356,3.194
		c-2.219-6.35-8.473-5.164-13.809-4.399c-2.295,3.596-4.552,7.211-6.771,10.845c-1.186-1.76-2.391-3.462-3.538-5.202
		c-1.874,1.014-3.711,2.027-5.508,3.06c-1.415-1.09-2.792-2.18-4.151-3.252c-9.793,8.473-11.973,21.9-11.82,34.198
		c1.855-2.525,3.749-5.049,5.642-7.593c1.454,2.926,2.926,5.853,4.361,8.817c-9.143,3.156-9.965,13.733-11.782,21.823
		c-0.019,7.211,4.782,13.503,5.298,20.657c-1.282,5.183-4.227,10.022-3.978,15.531c-0.077,8.377,0.631,16.774,0.172,25.171
		c-1.205-1.53-2.353-3.041-3.481-4.571c-5.872-8.205-11.055-16.965-15.091-26.203c-3.749-8.282-2.888-19.758-12.471-24.061
		c0.516-3.251,1.014-6.522,1.913-9.697c2.238-9.869,13.159-13.178,19.567-19.873c-3.883-9.238-1.798-19.643,3.137-28.04
		c3.558-3.118,8.091-4.782,12.05-7.325c8.913-5.432,14.288-15.014,22.99-20.695C1557.91,72.964,1565.006,72.964,1571.222,69.693z"/>
	<path fill="#4C4241" stroke="#4C4241" d="M1554.735,91.096c5.336-0.765,11.591-1.951,13.809,4.399
		c4.112-1.014,8.225-2.123,12.356-3.194c-0.65,2.41-1.243,4.82-1.836,7.249c4.151-1.243,8.339-2.429,12.528-3.577
		c-0.229,2.047-0.44,4.112-0.631,6.178c2.946-0.497,5.91-0.995,8.913-1.492c-1.071,3.06-2.142,6.121-3.233,9.181
		c5.011-2.62,10.309-4.667,15.799-6.063c-0.229,2.525-0.402,5.049-0.574,7.593c4.131-0.44,8.282-0.861,12.451-1.281
		c-0.057,1.186-0.191,3.577-0.249,4.763c-8.358,1.989-17.08,6.733-25.725,3.558c0.249-1.434,0.555-2.869,0.899-4.284
		c-7.192-0.727-14.995,0.593-21.403-3.5c-2.659,2.18-5.26,4.437-7.804,6.694c-0.402-6.121-3.347-11.419-7.976-15.34
		c-2.525,3.271-5.03,6.541-7.555,9.812c-0.306-2.926-0.593-5.815-0.88-8.722c-4.456,5.049-6.809,11.38-9.181,17.577
		c-1.262-0.727-2.487-1.454-3.692-2.18c-4.839,2.391-6.579,7.134-5.853,12.356c-0.478,0.287-1.454,0.861-1.951,1.148
		c-1.434-2.965-2.907-5.891-4.361-8.817c-1.894,2.544-3.787,5.069-5.642,7.593c-0.153-12.298,2.027-25.725,11.82-34.198
		c1.358,1.071,2.735,2.161,4.151,3.252c1.798-1.033,3.634-2.047,5.508-3.06c1.148,1.741,2.353,3.443,3.538,5.202
		C1550.183,98.307,1552.439,94.692,1554.735,91.096z"/>
	<path fill="#E4B1A0" stroke="#E4B1A0" d="M1560.377,125.658c4.227-1.568,8.11-4.361,12.7-4.858
		c9.755,1.09,18.954,5.202,28.805,5.757c8.913-0.191,17.749-1.836,26.682-2.276c3.902,5.241,8.224,10.195,11.858,15.665
		c3.519,4.533,0.364,11.017,3.634,15.665c3.538,5.872,9.028,10.692,10.921,17.501c2.391,8.817,3.5,17.922,5.604,26.835
		c3.194-6.254,3.94-13.35,5.987-19.987c3.347-0.784,7.459-3.558,10.367-0.268c8.263,5.7,4.858,17.176,5.833,25.687
		c1.128,8.607-1.721,18.056-8.492,23.641c-4.017-0.019-7.899-1.09-11.763-1.894c0.803,22.435,3.137,44.775,3.615,67.211
		c-10.386,11.361-22.225,21.231-33.147,32.075c-7.918,7.402-15.32,15.359-23.545,22.416c-3.022,2.85-7.153,3.691-11.113,4.112
		c-0.478-7.632-2.831-15.206-2.104-22.837c3.94-9.525,12.203-16.698,21.46-20.905c10.73-5.03,20.408-12.681,26.586-22.933
		c-7.555,4.667-15.359,8.875-23.162,13.102c-5.566,2.965-10.864,7.153-17.367,7.574c-7.804,0.497-15.856,0.478-23.373-1.836
		c-7.995-2.869-14.995-7.804-22.321-11.954c-2.295-6.178-7.861-10.099-11.266-15.512c-2.888-6.025-3.959-12.738-6.388-18.935
		c-5.7-14.536-16.564-27.638-17.73-43.551c0.459-8.397-0.249-16.793-0.172-25.171c-0.249-5.508,2.697-10.348,3.978-15.531
		c-0.516-7.153-5.317-13.446-5.298-20.657c1.817-8.091,2.639-18.668,11.782-21.823c0.497-0.287,1.473-0.861,1.951-1.148
		c3.806-1.741,7.536-3.844,11.686-4.782C1551.158,125.868,1556.016,127.934,1560.377,125.658z"/>
	<path fill="#CDA192" stroke="#CDA192" d="M1509.883,218.824c-0.746-5.929,4.514-7.612,9.296-8.244
		c1.129,1.53,2.276,3.041,3.481,4.571c1.167,15.913,12.031,29.015,17.73,43.551c-3.711,0.421-7.364,0.88-10.998,1.396
		C1518.796,248.757,1512.637,233.876,1509.883,218.824z"/>
	<path fill="#CFA091" stroke="#CFA091" d="M1621.104,299.366c7.804-4.227,15.607-8.435,23.162-13.102
		c-6.178,10.252-15.856,17.903-26.586,22.933c-9.257,4.208-17.52,11.38-21.46,20.905c-0.727,7.632,1.626,15.206,2.104,22.837
		c-9.085-0.765-14.995-8.167-21.575-13.503c-5.757-5.126-12.872-9.793-14.9-17.711c-0.268-9.64-2.142-19.127-3.806-28.575
		c7.325,4.15,14.326,9.085,22.321,11.954c7.517,2.314,15.569,2.333,23.373,1.836C1610.24,306.519,1615.538,302.33,1621.104,299.366z
		"/>
	<path fill="#FEFEFE" stroke="#FEFEFE" d="M1666.128,294.335c2.792,3.615,3.041,8.224,3.041,12.624
		c-0.344,9.888-1.415,19.911-5.279,29.13c-3.902,8.99-4.571,18.954-8.569,27.925c-7.593,7.402-14.498,15.435-21.594,23.296
		c-2.314-2.601-4.552-5.222-6.675-7.938c-6.579-9.066-15.32-16.2-23.449-23.794c-10.768,2.525-22.703,4.17-30.794,12.509
		c-7.038,5.891-13.676,12.241-21.078,17.673c-0.229-9.162-1.205-18.362-0.153-27.485c2.544-6.159,3.71-12.757,4.782-19.299
		c1.568-5.834,3.883-11.438,5.489-17.252c2.027,7.918,9.143,12.585,14.9,17.711c6.579,5.336,12.49,12.738,21.575,13.503
		c3.959-0.421,8.091-1.262,11.113-4.112c8.225-7.058,15.627-15.014,23.545-22.416
		C1643.903,315.566,1655.742,305.697,1666.128,294.335z"/>
	<path fill="#2B292E" stroke="#2B292E" d="M1670.91,298.601c3.156,1.014,6.541,2.027,8.741,4.743
		c8.722,9.104,14.269,22.11,27.064,26.452c3.271,5.681,7.211,11.017,9.716,17.118c-2.353,4.036-7.593,4.61-11.399,6.656
		c4.036,3.385,8.626,6.063,12.681,9.468c1.301,3.118-1.301,6.522-2.104,9.582c-8.53,18.362-16.774,36.838-25.247,55.219
		c-8.167,16.219-13.981,33.567-23.449,49.136c-16.162,29.225-32.19,58.508-47.989,87.944c-7.249,13.389-15.741,26.07-24.673,38.368
		c-2.353,3.462-5.623,6.121-9.353,7.976c-0.172-3.596-0.287-7.192-0.115-10.768c2.467-10.194,5.049-20.561,4.208-31.119
		c3.118-3.462,5.872-7.326,7.134-11.859c8.989-29.455,18.916-58.604,27.867-88.078c9.812-32.63,20.638-64.992,29.474-97.909
		c0.574-2.525,1.148-5.049,1.855-7.517c3.997-8.97,4.667-18.935,8.569-27.925c3.864-9.219,4.935-19.241,5.279-29.13
		C1669.647,304.147,1670.24,301.355,1670.91,298.601z"/>
	<path fill="#201E23" stroke="#201E23" d="M1706.715,329.796c37.507,12.872,74.135,28.154,111.489,41.466
		c4.571,2.085,10.96,3.156,12.432,8.817c8.856,25.725,16.889,51.757,25.744,77.501c5.221,14.135,4.246,29.474,5.528,44.259
		c3.634,56.576,6.924,113.191,10.386,169.787c0.536,7.268,1.511,14.747-0.382,21.919c-2.104,7.842-4.782,15.512-7.192,23.277
		c-4.342,15.607-19.165,24.329-28.9,36.283c-10.042,12.145-22.168,22.455-32.114,34.619c-0.153,19.643,9.009,38.521,7.938,58.336
		c-0.249,6.867-1.741,13.771-0.784,20.657c2.525,7.479,9.563,12.432,12.165,19.93c1.186,4.896,0.535,10.003,0.23,14.995
		c-4.801,1.205-7.651,5.375-8.818,9.965c-25.381,6.044-51.221,9.755-76.812,14.708c-14.919,0.153-28.632,8.378-43.609,7.172
		c-13.503-2.678-26.28-8.071-39.439-11.954c-8.148-2.257-15.665-6.254-22.416-11.266c12.298-12.356,23.468-26.07,37.947-35.996
		c6.503-4.629,12.624-9.774,18.438-15.263c9.716,5.126,18.668,11.495,27.504,18.017c0.287-4.399,0.593-8.779,0.631-13.159
		c1.492-8.798-6.101-13.809-11.61-19.012c-7.459-10.711-14.785-21.537-22.952-31.731c-4.954,0.249-9.869,0.497-14.785,0.631
		c-10.577-11.725-28.728-2.792-40.893-10.864c9.755,0.344,19.107,3.634,28.843,4.227c5.03,0.65,9.028-3.079,13.159-5.336
		c5.375-3.366,12.165-7.306,11.801-14.651c-0.574-0.631-1.683-1.894-2.257-2.525c-8.224,0.249-16.353,2.314-24.616,1.53
		c-11.973-0.172-21.842-9.755-33.988-8.473c-12.93,0.65-25.84,1.798-38.75,2.353c-5.604,0.382-10.711-2.2-15.78-4.074
		c-8.435-3.347-17.214-5.642-25.936-8.091c-5.432,4.782-11.553,9.41-14.211,16.411c-3.844,9.219-7.019,18.725-11.667,27.6
		c-3.672,9.143-3.825,19.203-3.921,28.939c-0.191,2.984,1.587,5.47,3.041,7.938c1.76,4.858,3.691,9.64,5.987,14.288
		c10.08-6.427,17.883-15.626,27.102-23.143c5.528,5.508,11.036,11.017,16.43,16.659c0.497,0.497,1.492,1.492,1.97,1.97
		c-6.082,5.528-13.752,10.807-14.67,19.7c-1.626,0.421-3.233,0.88-4.782,1.358c-6.312,0.306-4.438,7.727-2.716,11.572
		c4.705,11.055,9.735,21.976,14.383,33.07c-3.94,0.803-7.861,1.607-11.763,2.372c-15.837,3.519-32.018,4.342-48.18,4.284
		c-4.916-1.339-9.831-2.697-14.536-4.629c-3.213-2.601-6.235-5.432-9.276-8.186c2.716-25.209,6.752-50.265,10.003-75.397
		c2.544-12.413-8.014-21.824-13.675-31.674c-18.61-20.81-39.592-39.42-58.7-59.752c-5.317-6.101-6.522-14.383-8.856-21.823
		c-2.62-10.137-7.402-19.853-7.574-30.488c-0.325-17.902-0.306-35.882,2.2-53.65c4.743-49.079,9.296-98.158,15.416-147.103
		c1.817-13.542,1.549-27.638,7.039-40.415c6.216-14.995,11.266-30.488,17.807-45.349c2.276-5.987,8.588-8.32,13.752-11.208
		c17.922-9.812,35.843-19.624,53.688-29.608c3.615,2.142,7.326,4.227,11.036,6.254c-3.787,3.252-7.899,6.178-11.094,10.041
		c-2.142,10.52-0.229,21.307,0.497,31.884c0.67,7.498,0.134,15.301,2.85,22.493c9.717,25.706,14.957,53.478,30.067,76.889
		c13.063,25.687,27.313,50.743,40.472,76.373c1.262,3.347,4.285,4.877,7.746,4.973c-0.172,3.577-0.057,7.172,0.115,10.768
		c3.73-1.855,7-4.514,9.353-7.976c8.932-12.298,17.425-24.979,24.673-38.368c15.799-29.436,31.827-58.719,47.989-87.944
		c9.468-15.569,15.282-32.917,23.449-49.136c8.473-18.381,16.717-36.857,25.247-55.219c0.803-3.06,3.405-6.465,2.104-9.582
		c-4.055-3.405-8.645-6.082-12.681-9.468c3.806-2.047,9.047-2.62,11.399-6.656C1713.926,340.813,1709.985,335.477,1706.715,329.796
		 M1766.294,486.386c-0.287,10.137-2.467,20.217-1.224,30.373c1.377,11.323,0.191,22.703,0.019,34.065
		c-1.167,21.862,0.421,43.857-2.448,65.623c-0.497,21.078-3.175,42.098-1.741,63.233c0.995,10.252-2.773,21.058-10.998,27.542
		c-8.301,6.446-13.886,15.492-21.403,22.722c-5.183,5.03-9.678,10.673-14.402,16.085c-5.088,5.834-11.514,10.615-15.11,17.616
		c6.331-4.476,11.572-10.195,17.08-15.588c23.105-23.468,47.912-45.234,70.711-68.99c3.328-2.907-0.057-7.268-0.746-10.634
		c4.055-4.17,7.899-8.722,12.987-11.686c5.069-0.937,10.271-0.287,15.416-0.536c-8.817-2.333-17.749-4.629-26.834-5.394
		c-1.415,1.243-2.812,2.506-4.17,3.768c-5.623-14.135-8.32-29.245-10.787-44.182c0.306-15.952,4.284-31.578,5.432-47.472
		c0.497-9.697,5.202-19.318,2.027-28.996c-5.107-18.782-7.708-38.043-11.036-57.169
		C1766.849,479.5,1766.294,482.943,1766.294,486.386 M1452.885,488.088c0.134,11.935,1.587,24.253,6.905,35.097
		c5.585,13.886,5.069,29.398,10.366,43.398c4.285,11.113,7.861,22.474,11.992,33.644c2.391,6.14,2.984,12.987,6.656,18.61
		c-1.759,20.408-5.489,40.625-6.56,61.11c-7.976-5.489-17.692-7-26.949-8.932c-5.489-1.243-10.998,0.402-16.238,1.836
		c7.593,6.101,18.84,2.467,27.255,6.675c4.17,3.309,7.402,7.631,11.61,10.94c1.377-0.784,2.659-1.721,3.844-2.85
		c0.421,6.828-4.323,15.282,1.224,20.924c5.317,5.891,10.902,11.572,16.831,16.889c1.97-17.443,7.02-35.059,3.481-52.636
		c-3.997-22.531-6.427-45.273-9.64-67.919c-2.429,1.262-4.074,3.462-4.303,6.254c1.855-17.692-7.517-33.318-12.126-49.786
		c-5.623-20.14-12.604-39.86-18.457-59.943C1457.342,496.752,1456.634,491.55,1452.885,488.088 M1586.982,649.574
		c-2.027,3.232-4.877,6.599-3.921,10.711c0.268,6.427,8.492,9.449,13.695,6.675c5.776-2.429,6.044-10.94,2.276-15.206
		C1595.761,648.733,1590.96,649.842,1586.982,649.574 M1592.873,753.068c-6.274,2.008-8.626,11.017-3.405,15.378
		c4.495,5.413,15.799,3.156,15.856-4.609C1607.008,756.568,1599.644,750.773,1592.873,753.068z"/>
	<path fill="#151318" stroke="#151318" d="M1503.208,371.588c17.941-10.481,35.48-21.651,53.153-32.611
		c-1.071,6.541-2.238,13.14-4.782,19.299c-0.956,2.257-1.894,4.495-2.678,6.809c-2.333,11.935-10.099,22.837-8.282,35.365
		c4.437,30.909,5.604,62.927,17.922,92.076c9.831,25.725,21.001,50.972,30.449,76.851c0.842,10.558-1.74,20.924-4.208,31.119
		c-3.462-0.096-6.484-1.626-7.746-4.973c-13.159-25.63-27.408-50.686-40.472-76.373c-15.11-23.411-20.351-51.183-30.067-76.889
		c-2.716-7.192-2.18-14.995-2.85-22.493c-0.727-10.577-2.639-21.364-0.497-31.884c3.194-3.864,7.307-6.79,11.094-10.041
		C1510.533,375.815,1506.823,373.73,1503.208,371.588z"/>
	<path fill="#2B292E" stroke="#2B292E" d="M1572.809,368.088c8.09-8.339,20.026-9.984,30.794-12.509
		c8.129,7.593,16.87,14.728,23.449,23.794c-10.807-2.18-14.479-14.307-23.774-18.687c-10.768,0.765-20.81,5.451-30.105,10.634
		C1573.077,370.517,1572.905,368.91,1572.809,368.088z"/>
	<path fill="#615F6A" stroke="#615F6A" d="M1548.901,365.085c0.784-2.314,1.721-4.552,2.678-6.809
		c-1.052,9.123-0.077,18.323,0.153,27.485c7.402-5.432,14.039-11.782,21.078-17.673c0.096,0.822,0.268,2.429,0.364,3.232
		c9.296-5.183,19.337-9.869,30.105-10.634c9.296,4.38,12.968,16.506,23.774,18.687c2.123,2.716,4.361,5.336,6.675,7.938
		c7.096-7.861,14.001-15.894,21.594-23.296c-0.708,2.467-1.281,4.992-1.855,7.517c-7.077,6.101-12.777,13.542-19.471,20.006
		c-3.94-3.558-7.555-7.44-11.055-11.399c-3.538,2.506-8.473,4.437-9.487,9.143c-2.142,8.875,1.798,17.596,3.959,26.05
		c5.833,17.463,4.322,36.092,6.579,54.109c-8.951,29.474-18.878,58.623-27.867,88.078c-1.262,4.533-4.017,8.397-7.134,11.859
		c-9.448-25.878-20.618-51.125-30.449-76.851c4.59-19.72,2.62-40.338,6.503-60.172c3.691-12.318,10.825-23.373,13.905-35.882
		c1.97-8.339-2.066-16.334-5.566-23.621c-7.689,5.757-14.364,12.757-22.34,18.151
		C1550.737,382.337,1551.77,373.405,1548.901,365.085z"/>
	<path fill="#DEDEDE" stroke="#DEDEDE" d="M1548.901,365.085c2.869,8.32,1.836,17.252,2.142,25.917
		c7.976-5.394,14.651-12.394,22.34-18.151c3.5,7.287,7.536,15.282,5.566,23.621c-3.079,12.509-10.214,23.564-13.905,35.882
		c-3.883,19.834-1.913,40.453-6.503,60.172c-12.318-29.149-13.484-61.167-17.922-92.076
		C1538.802,387.922,1546.568,377.02,1548.901,365.085z"/>
	<path fill="#DEDEDE" stroke="#DEDEDE" d="M1633.995,391.537c6.694-6.465,12.394-13.905,19.471-20.006
		c-8.836,32.917-19.662,65.279-29.474,97.909c-2.257-18.017-0.746-36.647-6.579-54.109c-2.161-8.454-6.102-17.176-3.959-26.05
		c1.014-4.705,5.948-6.637,9.487-9.143C1626.44,384.097,1630.055,387.979,1633.995,391.537z"/>
	<path fill="#010101" stroke="#010101" d="M1766.294,486.386c0-3.443,0.555-6.886,2.773-9.621
		c3.328,19.127,5.929,38.387,11.036,57.169c3.175,9.678-1.53,19.299-2.027,28.996c-1.148,15.894-5.126,31.521-5.432,47.472
		c2.467,14.938,5.164,30.048,10.787,44.182c1.358-1.262,2.754-2.525,4.17-3.768c9.085,0.765,18.017,3.06,26.834,5.394
		c-5.145,0.249-10.347-0.402-15.416,0.536c-5.088,2.965-8.932,7.517-12.987,11.686c0.688,3.366,4.074,7.727,0.746,10.634
		c-22.799,23.755-47.606,45.521-70.711,68.99c-5.509,5.394-10.749,11.113-17.08,15.588c3.596-7,10.022-11.782,15.11-17.616
		c4.724-5.413,9.219-11.055,14.402-16.085c7.517-7.23,13.102-16.277,21.403-22.722c8.225-6.484,11.992-17.291,10.998-27.542
		c-1.434-21.135,1.243-42.155,1.741-63.233c2.869-21.766,1.282-43.762,2.448-65.623c0.172-11.361,1.358-22.742-0.019-34.065
		C1763.827,506.603,1766.007,496.523,1766.294,486.386z"/>
	<path fill="#020204" stroke="#020204" d="M1452.885,488.088c3.749,3.462,4.456,8.664,5.891,13.312
		c5.853,20.083,12.834,39.802,18.457,59.943c4.61,16.468,13.981,32.094,12.126,49.786c-0.21,2.544-0.402,5.126-0.555,7.708
		c-3.672-5.623-4.265-12.471-6.656-18.61c-4.131-11.17-7.708-22.531-11.992-33.644c-5.298-14.001-4.782-29.512-10.366-43.398
		C1454.473,512.341,1453.019,500.023,1452.885,488.088z"/>
	<path fill="#515151" stroke="#515151" d="M1586.982,649.574c3.978,0.268,8.779-0.842,12.05,2.18
		c3.768,4.265,3.5,12.777-2.276,15.206c-5.202,2.773-13.427-0.249-13.695-6.675C1582.105,656.173,1584.955,652.807,1586.982,649.574
		z"/>
	<path fill="#020205" stroke="#020205" d="M1439.057,672.851c5.241-1.435,10.749-3.079,16.238-1.836
		c9.257,1.932,18.974,3.443,26.949,8.932c-0.172,2.563-0.325,5.107-0.478,7.67c-1.186,1.128-2.467,2.066-3.844,2.85
		c-4.208-3.309-7.44-7.632-11.61-10.94C1457.897,675.319,1446.65,678.953,1439.057,672.851z"/>
	<path fill="#505151" stroke="#505151" d="M1592.873,753.068c6.771-2.295,14.135,3.5,12.452,10.768
		c-0.057,7.765-11.361,10.022-15.856,4.609C1584.247,764.085,1586.599,755.077,1592.873,753.068z"/>
	<path fill="#D6A89B" stroke="#D6A89B" d="M1538.917,767.853c8.722,2.448,17.501,4.743,25.936,8.091
		c5.069,1.874,10.176,4.456,15.78,4.074c12.91-0.555,25.821-1.702,38.75-2.353c12.146-1.281,22.015,8.301,33.988,8.473
		c8.263,0.784,16.392-1.281,24.616-1.53c0.574,0.631,1.683,1.894,2.257,2.525c0.363,7.345-6.427,11.285-11.801,14.651
		c-4.131,2.257-8.129,5.987-13.159,5.336c-9.735-0.593-19.088-3.883-28.843-4.227c12.164,8.071,30.316-0.861,40.893,10.864
		c4.915-0.134,9.831-0.382,14.785-0.631c8.167,10.194,15.493,21.02,22.952,31.731c-2.066,1.607-4.131,3.194-6.14,4.858
		c-3.596,2.945-7.02,6.12-10.386,9.296c-5.814,5.489-11.935,10.634-18.438,15.263c-14.479,9.927-25.649,23.64-37.947,35.996
		c-0.516,0.536-1.549,1.645-2.066,2.2c-5.776,5.049-10.52,12.318-18.438,14.039c-17.023,2.907-33.95,11.208-51.431,6.733
		c-1.53-3.003-3.003-6.006-4.361-9.028c-4.648-11.093-9.678-22.015-14.383-33.07c-1.721-3.844-3.596-11.266,2.716-11.572
		c5.011,4.342,8.817,10.003,14.23,13.924c10.118,1.262,22.168,2.965,30.737-3.94c4.992-3.003,9.334-6.943,12.911-11.533
		c-3.749-0.669-7.44-1.301-11.113-2.047c-2.372-1.224-6.14-4.38-7.727-0.421c-4.017,7.708-12.796,12.012-21.212,12.26
		c-4.896-2.391-8.856-6.216-13.044-9.602c0.918-8.894,8.588-14.173,14.67-19.7c4.227-0.287,8.033-2.219,11.457-4.609
		c10.252-7.077,21.097-13.274,31.291-20.466c4.801-3.462,10.405-5.891,16.43-5.815c12.375-0.134,24.96-2.525,35.748-8.836
		c2.678-1.32,3.787-4.227,5.298-6.618c-6.446,2.372-12.394,5.814-18.763,8.339c-12.872,4.762-27.16,1.205-40.109,5.585
		c-3.213,3.232-5.107,7.823-9.391,9.946c-11.361,6.771-22.225,14.345-33.931,20.504c-5.394-5.642-10.902-11.151-16.43-16.659
		c-3.29-3.539-7.498-5.967-11.973-7.651c-9.181-3.443-17.386-10.807-20.236-20.37c4.648-8.875,7.823-18.381,11.667-27.6
		C1527.364,777.263,1533.485,772.635,1538.917,767.853 M1672.287,865.169c9.582-0.096,13.427-10.022,15.971-17.692
		C1681.85,852.182,1675.519,857.767,1672.287,865.169 M1565.025,921.153c1.53,1.874,3.156,4.418,6.063,3.347
		c7.899-1.645,15.416-4.782,22.914-7.708c2.85-0.803,4.323-3.424,5.891-5.7C1587.785,912.642,1576.922,918.724,1565.025,921.153z"/>
	<path fill="#383637" stroke="#383637" d="M1509.118,840.802c0.095-9.735,0.248-19.796,3.921-28.939
		c2.85,9.563,11.055,16.927,20.236,20.37c-6.981,5.566-14.077,10.998-21.116,16.506
		C1510.705,846.272,1508.926,843.786,1509.118,840.802z"/>
	<path fill="#C09588" stroke="#C09588" d="M1645.108,820.509c6.369-2.525,12.317-5.968,18.763-8.339
		c-1.511,2.391-2.62,5.298-5.298,6.618c-10.787,6.312-23.373,8.703-35.748,8.836c-6.025-0.076-11.629,2.353-16.43,5.815
		c-10.195,7.192-21.039,13.389-31.291,20.466c-3.424,2.391-7.23,4.323-11.457,4.609c-0.478-0.478-1.473-1.473-1.97-1.97
		c11.705-6.159,22.569-13.733,33.931-20.504c4.284-2.123,6.178-6.713,9.391-9.946
		C1617.948,821.714,1632.236,825.271,1645.108,820.509z"/>
	<path fill="#020102" stroke="#020102" d="M1512.159,848.74c7.039-5.508,14.135-10.94,21.116-16.506
		c4.476,1.683,8.683,4.112,11.973,7.651c-9.219,7.517-17.023,16.717-27.102,23.143
		C1515.85,858.379,1513.918,853.598,1512.159,848.74z"/>
	<path fill="#383637" stroke="#383637" d="M1705.07,844.857c5.508,5.202,13.102,10.214,11.61,19.012
		c-8.148-1.243-12.7-8.53-17.749-14.154C1700.938,848.051,1703.004,846.464,1705.07,844.857z"/>
	<path fill="#BA9184" stroke="#BA9184" d="M1672.287,865.169c3.233-7.402,9.563-12.987,15.971-17.692
		C1685.714,855.147,1681.869,865.074,1672.287,865.169z"/>
	<path fill="#020203" stroke="#020203" d="M1688.544,859.011c3.366-3.175,6.79-6.35,10.386-9.296
		c5.049,5.623,9.601,12.91,17.749,14.154c-0.038,4.38-0.344,8.76-0.631,13.159C1707.212,870.506,1698.261,864.137,1688.544,859.011z
		"/>
	<path fill="#AF8B82" stroke="#AF8B82" d="M1583.233,875.555c1.588-3.959,5.355-0.803,7.727,0.421
		c-1.645,0.249-4.915,0.765-6.56,1.014c0.019,4.629-2.2,12.318,4.762,12.566c-8.569,6.905-20.619,5.203-30.737,3.94
		c-5.413-3.921-9.219-9.582-14.23-13.924c1.549-0.478,3.156-0.937,4.782-1.358c4.189,3.385,8.148,7.211,13.044,9.602
		C1570.438,887.567,1579.217,883.263,1583.233,875.555z"/>
	<path fill="#070201" stroke="#070201" d="M1584.4,876.99c1.645-0.249,4.915-0.765,6.56-1.014c3.672,0.746,7.364,1.377,11.113,2.047
		c-3.577,4.59-7.918,8.53-12.911,11.533C1582.201,889.307,1584.419,881.618,1584.4,876.99z"/>
	<path fill="#B68D80" stroke="#B68D80" d="M1565.025,921.153c11.897-2.429,22.76-8.511,34.868-10.061
		c-1.569,2.276-3.041,4.896-5.891,5.7c-7.497,2.926-15.014,6.063-22.914,7.708C1568.181,925.571,1566.555,923.027,1565.025,921.153z
		"/>
	<path fill="#010101" stroke="#010101" d="M1630.094,912.47c0.516-0.555,1.549-1.664,2.066-2.2
		c6.752,5.011,14.268,9.009,22.416,11.266c13.159,3.883,25.936,9.276,39.439,11.954c14.976,1.205,28.69-7.019,43.609-7.172
		c-7.44,5.413-16.066,8.722-24.693,11.667c-8.856,2.926-17.405,7.555-26.911,7.651c-7.995,0.134-16.047,0.096-23.927-1.167
		c-8.167-1.32-14.632-6.79-21.345-11.132c-4.533-3.137-9.506-5.719-13.37-9.659C1626.383,919.872,1629.003,916.046,1630.094,912.47z
		"/>
	<path fill="#0E0C0D" stroke="#0E0C0D" d="M1737.623,926.317c25.591-4.954,51.432-8.664,76.812-14.708
		c2.219,32.305,1.645,64.705,3.194,97.048h-338.331c0.708-27.466-1.893-55.142,2.085-82.417c4.705,1.932,9.621,3.29,14.536,4.629
		c17.042,8.817,37.488,9.602,52.904,21.67c15.607,11.438,29.092,27.217,48.83,31.54c-7.593-13.044-19.605-22.493-29.857-33.261
		c-7.995-7.995-15.779-16.181-23.698-24.233c3.902-0.765,7.823-1.568,11.763-2.372c1.358,3.022,2.831,6.025,4.361,9.028
		c17.482,4.476,34.409-3.825,51.431-6.733c7.918-1.721,12.662-8.99,18.438-14.039c-1.09,3.577-3.711,7.402-2.716,11.208
		c3.864,3.94,8.837,6.522,13.37,9.659c6.714,4.342,13.178,9.812,21.345,11.132c7.88,1.262,15.932,1.301,23.927,1.167
		c9.506-0.096,18.055-4.724,26.911-7.651C1721.557,935.039,1730.183,931.73,1737.623,926.317z"/>
	<path fill="#020101" stroke="#020101" d="M1495.92,930.869c16.162,0.057,32.343-0.765,48.18-4.284
		c7.918,8.052,15.703,16.238,23.698,24.233c10.252,10.768,22.263,20.217,29.857,33.261c-19.739-4.323-33.223-20.102-48.83-31.54
		C1533.409,940.471,1512.962,939.687,1495.92,930.869z"/>
</g>
<g>
	<path fill="#010101" stroke="#010101" d="M904.831,64.816c5.604-2.965,11.246-7.134,17.96-6.369
		c8.014,0.555,16.143,0.88,24.004,2.659c4.074,2.831,7.039,6.924,10.462,10.481c4.552-0.077,9.984-2.219,13.886,1.128
		c9.678,7.498,17.252,17.214,25.802,25.878c3.672,3.978,8.071,7.689,9.831,13.006c2.123,6.522,3.385,13.293,5.183,19.911
		c4.246,14.804,2.41,30.411,1.377,45.54c-2.888-4.514-7.325-7.498-12.241-9.372c-2.812,3.366-5.432,6.866-8.014,10.405
		c-2.601,0.038-5.203,0.077-7.765,0.115c-1.817-7.115,0.21-15.148-4.361-21.422c-3.252-4.724-4.571-10.214-5.336-15.799
		c-2.372-3.347-5.853-5.757-8.014-9.219c-0.229-6.293,2.333-13.35-2.257-18.687c-3.844-7.938-12.298-11.667-20.007-14.785
		c-5.355-0.574-10.539,1.741-15.741,2.639c-8.301,2.257-17.788,2.257-24.501,8.282c-7.383,6.063-15.416,11.304-22.531,17.673
		c-5.891,7.096-9.984,15.473-15.282,22.99c-8.703,11.438-8.224,26.529-11.859,39.879c-0.669,3.29-1.415,6.56-2.123,9.85
		c-4.437-10.558-8.722-21.307-11.132-32.515c-0.497-11.495,2.506-22.837,2.812-34.332c0.191-13.982,9.946-24.712,17.329-35.652
		c4.456-6.235,7.976-13.714,14.938-17.635C886.278,74.303,895.823,70.057,904.831,64.816z"/>
	<path fill="#F4D7C5" stroke="#F4D7C5" d="M929.6,100.927c5.202-0.899,10.386-3.213,15.741-2.639
		c7.708,3.118,16.162,6.847,20.007,14.785c4.59,5.336,2.027,12.394,2.257,18.687c2.161,3.462,5.642,5.872,8.014,9.219
		c0.765,5.585,2.085,11.074,5.336,15.799c4.571,6.274,2.544,14.307,4.361,21.422c-8.129,15.703-13.733,32.592-22.589,47.931
		c-4.265,7.364-7.995,15.034-11.897,22.608c-3.099,6.197-8.76,10.443-14.115,14.574c-8.645,7.268-20.58,6.465-30.947,9.276
		c3.978,4.189,8.301,8.339,10.443,13.829c2.869,6.962,5.375,14.364,10.864,19.796c6.331,6.407,11.897,13.924,19.911,18.362
		c9.812,5.413,20.045,10.041,30.736,13.465c-2.486,1.607-4.877,3.29-7.306,4.935c-2.066,1.262-4.093,2.563-6.025,3.978
		c-0.612,0.497-1.817,1.511-2.429,2.008c1.702,17.75,4.571,35.384,5.566,53.172c-17.577,2.506-34.677,8.416-52.56,8.224
		c-10.806,1.683-21.881,2.525-32.573-0.363c-0.153-18.362,4.476-36.436,3.691-54.779c-4.017-1.664-8.014-3.309-11.992-4.954
		c-3.443-3.137-7.402-5.948-9.659-10.099c-3.366-6.235-4.208-13.389-6.274-20.064c3.194-2.142,6.407-4.246,9.487-6.56
		c14.326-10.979,14.727-30.488,16.583-46.841c0.975-4.265-2.965-6.943-5.221-9.888c-6.293-6.35-9.755-14.708-14.039-22.378
		c-8.55-13.121-9.391-29.512-9.544-44.68c3.634-13.35,3.156-28.441,11.859-39.879c5.298-7.517,9.391-15.894,15.282-22.99
		c7.115-6.369,15.148-11.61,22.531-17.673C911.813,103.184,921.299,103.184,929.6,100.927z"/>
	<path fill="#E6CCBD" stroke="#E6CCBD" d="M993.082,178.084c2.582-3.538,5.202-7.039,8.014-10.405
		c4.916,1.874,9.353,4.858,12.241,9.372c0.746,15.206-8.301,28.69-19.26,38.387c-4.342,4.59-11.246,2.314-16.678,4.246
		c-4.017,7.02-8.167,14.211-10.29,22.053c-0.918,10.998-2.085,22.761,2.773,33.089c4.858,10.539,10.195,21.9,20.829,27.753
		c1.779,1.377,3.558,2.792,5.336,4.227c-0.115,1.377-0.325,4.151-0.44,5.528c-4.208,8.951-9.162,17.692-16.315,24.654l-1.568,1.052
		c-10.692-3.424-20.924-8.052-30.736-13.465c-8.014-4.437-13.58-11.954-19.911-18.362c-5.489-5.432-7.995-12.834-10.864-19.796
		c-2.142-5.489-6.465-9.64-10.443-13.829c10.367-2.812,22.302-2.008,30.947-9.276c5.356-4.131,11.017-8.377,14.115-14.574
		c3.902-7.574,7.631-15.244,11.897-22.608c8.856-15.34,14.46-32.228,22.589-47.931C987.879,178.16,990.48,178.122,993.082,178.084z"
		/>
	<path fill="#0E0C0D" stroke="#0E0C0D" d="M990.71,302.579c4.705-2.219,10.328-4.055,14.288,0.574
		c-2.085-0.115-4.15-0.21-6.197-0.287c-0.669,3.271-1.664,6.484-3.194,9.468c0.115-1.377,0.325-4.15,0.44-5.528
		C994.267,305.372,992.489,303.956,990.71,302.579z"/>
	<path fill="#F754A4" stroke="#F754A4" d="M998.8,302.866c2.047,0.077,4.112,0.172,6.197,0.287c2.735,1.148,5.489,2.219,8.339,3.137
		c-7.498,15.741-15.703,31.138-23.239,46.841c-4.935,14.517-6.675,30.067-6.274,45.368c0.268,21.69-0.669,43.398,1.071,65.03
		c0.287,8.033,1.875,16.583-1.893,24.08c-7.172,15.454-12.738,31.808-22.99,45.598c-7.421,12.624-16.525,24.061-26.777,34.485
		c-0.325-0.574-0.975-1.741-1.301-2.314c11.782-23.22,22.359-47.051,34.007-70.348c7.574-13.044,4.303-28.652,5.26-42.978
		c1.511-30.124-3.213-60.019-6.713-89.857c-0.669-5.069-0.727-10.175-0.096-15.244c1.932-1.415,3.959-2.716,6.025-3.978
		c3.309-1.396,8.817-1.224,8.875-5.987c7.153-6.962,12.107-15.703,16.315-24.654C997.136,309.35,998.131,306.137,998.8,302.866z"/>
	<path fill="#101010" stroke="#101010" d="M1013.337,306.29c23.794,4.973,48.084,6.886,71.878,11.916
		c6.14,1.377,13.752,1.607,17.118,7.899c8.798,9.927,8.301,23.64,9.908,36.015c1.396,10.424-3.079,20.791-0.688,31.176
		c3.519,17.061,6.465,34.237,10.137,51.259c2.601,11.285,1.301,22.875,1.262,34.332c-0.096,22.455-4.189,45.101,0.019,67.402
		c9.525,57.418,17.137,115.104,24.386,172.828c1.396,16.793,1.741,33.663,3.079,50.475c0.344,10.96,2.582,22.053,0.134,32.936
		c-12.241-1.549-24.52,0.631-36.742,1.243c-5.279,0.344-10.558,0.669-15.818,0.842c-2.486-1.052-6.044-1.874-6.14-5.164
		c-1.281-11.113-1.167-22.378-3.768-33.319c-8.11-0.536-14.747,5.814-22.914,4.992c-8.263-2.276-16.009,2.391-23.813,4.303
		c-14.441,3.959-28.652,8.703-43.15,12.413c-8.473,2.467-17.099-0.746-24.999-3.711c-9.066-3.672-17.635-9.41-23.009-17.73
		c0.478-2.965,1.014-6.025,0.019-8.913c-3.596-12.069-7.459-24.042-11.438-35.977c-3.366-11.859-0.975-24.195-0.421-36.226
		c1.702-31.196,3.405-62.372,5.011-93.567c1.205-9.353-6.713-16.047-10.156-24.023c10.252-10.424,19.356-21.862,26.777-34.485
		c10.252-13.79,15.818-30.143,22.99-45.598c3.768-7.498,2.18-16.047,1.893-24.08c-1.74-21.632-0.803-43.341-1.071-65.03
		c-0.402-15.301,1.339-30.851,6.274-45.368C997.634,337.428,1005.839,322.031,1013.337,306.29 M1058.954,425.276
		c-1.262,22.856-3.385,45.636-4.744,68.512c-0.727,10.787-3.749,21.403-3.404,32.267c-1.817,5.088-1.473,10.558-1.683,15.875
		c-0.344,14.039-1.167,28.059-1.817,42.079c-0.593,9.162,2.123,17.998,3.749,26.911c-14.536,2.544-28.843,6.235-43.379,8.722
		c-3.94,0.784-7.976,1.435-11.686,3.003c-2.85,3.672-2.907,8.875-3.271,13.37c20.332-4.227,40.778-8.263,60.689-14.249
		c3.252,12.031,6.082,24.195,9.774,36.111c6.943,22.761,11.878,46.325,21.709,68.072c0.306-8.626,0.555-17.367-0.861-25.917
		c-2.257-10.156-7.23-19.586-8.55-29.991c-3.538-26.07-6.312-52.235-9.716-78.323c-1.377-9.506-6.006-18.056-8.722-27.16
		c-2.085-6.637-0.631-13.599-0.421-20.351c5.049-2.697,3.232-9.047,4.189-13.695c2.18-29.417,8.148-58.872,4.131-88.384
		c-1.148-7.325,0.229-15.167-2.927-22.072C1059.126,419.825,1059.03,423.287,1058.954,425.276z"/>
	<path fill="#101010" stroke="#101010" d="M842.326,317.899c7.918-3.519,16.678-5.011,25.324-4.361
		c-3.079,2.314-6.293,4.418-9.487,6.56c-0.535-1.014-1.607-3.041-2.142-4.074c-3.366,1.492-6.713,2.965-10.08,4.418
		c1.74,10.367,4.495,20.829,10.328,29.723c3.864,6.733,9.889,13.102,9.238,21.46c-0.249,32.573,0.249,65.164,1.435,97.718
		c0.631,10.787,4.284,21.058,6.847,31.482c2.525,11.246,11.323,19.318,17.673,28.499c13.102,18.476,29.283,34.409,43.991,51.546
		c1.53,1.97,3.538,4.093,3.137,6.847c-3.577,46.019-10.233,91.712-16.162,137.482c-2.123,14.919-7.842,29.053-9.869,44.01
		c2.793-1.148,5.604-2.257,8.416-3.462c-4.877,7.765-9.296,16.2-16.258,22.302c-23.966,7.842-47.74-3.825-71.361-7.287
		c1.014,1.454,2.027,2.946,3.06,4.437c-9.544-2.907-18.515-7.383-28.135-10.061c-0.344-25.19,5.508-49.959,11.514-74.269
		c2.888-11.189,7.536-21.824,10.845-32.879c3.118-10.5,4.896-21.365,5.948-32.247c-10.96,5.011-19.088,17.367-32.286,15.99
		c-9.716,0.057-19.49-1.205-28.556-4.782c-33.529-11.935-67.574-22.378-100.931-34.734c-3.558-18.4-7.077-37.22-5.451-56.022
		c0.669,0.65,2.008,1.97,2.697,2.62c0.842,8.932,1.511,18.591,6.943,26.146c4.112,4.342,10.424,4.705,16.047,4.935
		c-0.229-5.413-0.65-10.787-0.995-16.181c5.853-10.271,5.815-22.493,8.014-33.835c0.287-5.738,3.768-12.719-1.32-17.233
		c0.115-1.396,0.325-4.17,0.421-5.566c9.009,4.533,16.889,10.902,24.96,16.87c6.56,4.858,10.577,12.853,18.457,15.913
		c8.071,3.366,15.588,7.918,23.507,11.648c-1.377-10.462-6.446-20.293-5.795-31.004c0.995-24.769,3.653-49.423,4.533-74.192
		c2.926-30.277-5.642-60.058-6.293-90.239c-0.478-3.615,2.314-6.197,4.514-8.607c4.743-5.011,10.405-9.181,16.717-11.992
		C801.968,336.318,822.147,327.099,842.326,317.899 M817.384,501.783c-0.574,9.2,4.112,17.635,4.208,26.796
		c-0.287,6.771,5.203,11.476,7.306,17.482c-0.421,10.022-5.853,19.853-3.232,29.952c3.213,6.962,7.039,13.637,11.055,20.198
		c0.784-0.842,2.372-2.506,3.156-3.328c1.626-8.569,0.536-17.386,0.803-26.05c0.383-10.921-3.978-21.097-6.943-31.387
		c-3.94-15.148-8.569-30.105-13.063-45.082C816.868,492.851,817.729,497.862,817.384,501.783 M838.06,621.745
		c-0.134,4.38,0.172,8.76,0.861,13.102c14.422,1.32,28.518,5.03,42.978,6.159c-0.115-4.017-0.134-8.033-0.057-12.031
		C867.267,626.431,852.711,623.772,838.06,621.745z"/>
	<path fill="#F655A4" stroke="#F655A4" d="M845.94,320.443c3.366-1.454,6.713-2.926,10.08-4.418c0.536,1.033,1.607,3.06,2.142,4.074
		c2.066,6.675,2.907,13.829,6.274,20.064c2.257,4.15,6.216,6.962,9.659,10.099c2.926,3.405,6.312,6.35,10.099,8.779
		c-0.746,16.946-6.025,33.548-3.672,50.647c1.09,22.34-1.014,44.852,2.18,67.096c1.052,7.383,0.708,15.034,2.85,22.244
		c12.222,24.157,27.179,47.109,46.382,66.35c0.325,0.574,0.976,1.741,1.301,2.314c3.443,7.976,11.361,14.67,10.156,24.023
		c-1.607,31.195-3.309,62.372-5.011,93.567c-0.555,12.031-2.945,24.367,0.421,36.226c-1.32,1.358-2.678,2.697-4.017,4.036
		c-0.172,1.836-0.325,3.691-0.497,5.547c-1.645,8.091-3.366,16.181-5.049,24.272c-0.593,4.801-5.049,7.364-8.263,10.386
		c-2.812,1.205-5.623,2.314-8.416,3.462c2.027-14.957,7.746-29.092,9.869-44.01c5.929-45.77,12.585-91.464,16.162-137.482
		c0.402-2.754-1.607-4.877-3.137-6.847c-14.708-17.138-30.89-33.07-43.991-51.546c-6.35-9.181-15.148-17.252-17.673-28.499
		c-2.563-10.424-6.216-20.695-6.847-31.482c-1.186-32.553-1.683-65.145-1.435-97.718c0.65-8.358-5.375-14.728-9.238-21.46
		C850.435,341.272,847.681,330.81,845.94,320.443z"/>
	<path fill="#512E1A" stroke="#512E1A" d="M977.723,338.04l1.568-1.052c-0.057,4.763-5.566,4.59-8.875,5.987
		C972.846,341.33,975.236,339.646,977.723,338.04z"/>
	<path fill="#060606" stroke="#060606" d="M961.962,348.961c0.612-0.497,1.817-1.511,2.429-2.008
		c-0.631,5.069-0.574,10.175,0.096,15.244c3.5,29.837,8.224,59.732,6.713,89.857c-0.956,14.326,2.314,29.933-5.26,42.978
		c-11.648,23.296-22.225,47.128-34.007,70.348c-19.203-19.241-34.16-42.193-46.382-66.35c-2.142-7.211-1.798-14.861-2.85-22.244
		c-3.194-22.244-1.09-44.756-2.18-67.096l1.875,0.306c10.692,2.888,21.766,2.047,32.573,0.363
		c17.883,0.191,34.983-5.719,52.56-8.224C966.534,384.345,963.665,366.711,961.962,348.961z"/>
	<path fill="#B9577E" stroke="#B9577E" d="M884.194,359.041c-3.787-2.429-7.172-5.375-10.099-8.779
		c3.978,1.645,7.976,3.29,11.992,4.954c0.784,18.342-3.844,36.417-3.691,54.779l-1.875-0.306
		C878.169,392.589,883.448,375.987,884.194,359.041z"/>
	<path fill="#020202" stroke="#020202" d="M1058.954,425.276c0.076-1.989,0.172-5.451,3.06-5.222
		c3.156,6.905,1.779,14.747,2.927,22.072c4.016,29.512-1.951,58.967-4.131,88.384c-0.956,4.648,0.861,10.998-4.189,13.695
		c-1.454-6.197-3.806-12.145-5.814-18.151c-0.344-10.864,2.678-21.479,3.404-32.267
		C1055.568,470.912,1057.691,448.133,1058.954,425.276z"/>
	<path fill="#F3D7C5" stroke="#F3D7C5" d="M594.617,471.735c8.511-4.38,17.29,2.123,26.031,2.104
		c12.05-0.23,22.455,6.503,33.778,9.487c18.993,8.301,31.521,25.591,46.325,39.324c5.088,4.514,1.607,11.495,1.32,17.233
		c-2.2,11.342-2.161,23.564-8.014,33.835c-4.476-4.571-9.2-8.875-14.402-12.585c-3.921-2.946-7.517-6.541-12.107-8.416
		c-7.574-1.779-15.569-0.497-23.086-2.506c-5.508-2.257-10.252-6.197-16.085-7.67c2.639-7.498,4.916-15.148,6.58-22.914
		c8.683-1.014,17.252,1.167,25.878,1.798c-1.817-7.632-7.249-13.37-13.771-17.367c-7.478-4.533-12.93-11.476-19.49-17.061
		c-6.006-1.205-12.164,0.076-18.208-0.459c-3.844-3.481-6.14-8.339-9.697-12.088c-0.937,3.481-1.721,6.981-2.353,10.539
		c-2.62-0.076-5.222-0.153-7.823-0.191C590.179,480.227,589.51,473.992,594.617,471.735z"/>
	<path fill="#CCB5A8" stroke="#CCB5A8" d="M599.666,474.451c3.557,3.749,5.853,8.607,9.697,12.088
		c6.044,0.536,12.203-0.746,18.208,0.459c6.561,5.585,12.012,12.528,19.49,17.061c6.522,3.997,11.954,9.735,13.771,17.367
		c-8.626-0.631-17.195-2.812-25.878-1.798c-1.664,7.765-3.94,15.416-6.58,22.914c-7.077-1.396-13.503-4.686-19.796-8.033
		c5.279-0.306,10.539-1.033,15.741-2.085c-0.057-1.301-0.172-3.864-0.23-5.164c-5.413-0.746-10.768-1.932-15.741-4.227
		c7.268-0.822,14.555,0.134,21.69,1.588c-0.057-3.577-0.096-7.153-0.134-10.692c-8.55-2.18-18.859-1.53-25.343-8.416
		c9.41,1.052,18.323,4.361,27.561,6.274c0.746-2.563,1.511-5.088,2.257-7.612c-7.784-3.577-15.378-7.727-21.575-13.752
		c-4.801-2.678-10.003-4.82-15.492-5.432C597.945,481.432,598.729,477.932,599.666,474.451z"/>
	<path fill="#F2D7C6" stroke="#F2D7C6" d="M602.918,489.771c3.271,0.191,6.58,0.421,9.888,0.65
		c6.197,6.025,13.79,10.175,21.575,13.752c-0.746,2.525-1.511,5.049-2.257,7.612c-9.238-1.913-18.151-5.222-27.561-6.274
		c6.484,6.886,16.793,6.235,25.343,8.416c0.038,3.538,0.076,7.115,0.134,10.692c-7.134-1.454-14.422-2.41-21.69-1.588
		c4.973,2.295,10.328,3.481,15.741,4.227c0.057,1.301,0.172,3.864,0.23,5.164c-5.203,1.052-10.462,1.779-15.741,2.085
		c-3.251-1.033-6.637-1.798-9.563-3.538c-1.492-4.609-1.492-9.506-2.142-14.268c-1.033-4.418,2.506-7.804,4.017-11.591
		C601.694,500.004,601.732,494.802,602.918,489.771z"/>
	<path fill="#020202" stroke="#020202" d="M817.384,501.783c0.344-3.921-0.516-8.932,3.29-11.419
		c4.495,14.976,9.123,29.933,13.063,45.082c2.965,10.29,7.326,20.465,6.943,31.387c-0.268,8.664,0.822,17.482-0.803,26.05
		c-0.784,0.822-2.372,2.486-3.156,3.328c-4.017-6.56-7.842-13.236-11.055-20.198c-2.62-10.099,2.812-19.93,3.232-29.952
		c-2.104-6.006-7.593-10.711-7.306-17.482C821.497,519.418,816.811,510.983,817.384,501.783z"/>
	<path fill="#020203" stroke="#020203" d="M672.06,558.818c2.486,0.803,5.049,1.511,7.593,2.314
		c5.202,3.711,9.927,8.014,14.402,12.585c0.344,5.394,0.765,10.768,0.995,16.181c-5.623-0.229-11.935-0.593-16.047-4.935
		C673.571,577.409,672.902,567.75,672.06,558.818z"/>
	<path fill="#F556A4" stroke="#F556A4" d="M1007.675,619.641c14.536-2.486,28.843-6.178,43.379-8.722
		c0.708,3.615,1.454,7.249,2.353,10.845c-19.911,5.987-40.357,10.022-60.689,14.249c0.363-4.495,0.421-9.697,3.271-13.37
		C999.699,621.076,1003.735,620.425,1007.675,619.641z"/>
	<path fill="#F456A4" stroke="#F456A4" d="M838.06,621.745c14.651,2.027,29.206,4.686,43.781,7.23
		c-0.076,3.997-0.057,8.014,0.057,12.031c-14.46-1.129-28.556-4.839-42.978-6.159C838.232,630.505,837.926,626.125,838.06,621.745z"
		/>
	<path fill="#E45E9D" stroke="#E45E9D" d="M938.8,721.509c3.978,11.935,7.842,23.908,11.438,35.977
		c0.995,2.888,0.459,5.948-0.019,8.913c-7.517-10.673-12.796-23.201-13.006-36.398c-0.727,0.268-2.199,0.822-2.926,1.09
		c0.172-1.855,0.325-3.711,0.497-5.547C936.122,724.206,937.48,722.867,938.8,721.509z"/>
	<path fill="#020202" stroke="#020202" d="M934.286,731.092c0.727-0.268,2.2-0.822,2.926-1.09
		c0.21,13.197,5.489,25.725,13.006,36.398c5.375,8.32,13.943,14.058,23.009,17.73c7.899,2.965,16.525,6.178,24.999,3.711
		c14.498-3.711,28.709-8.454,43.15-12.413c7.804-1.913,15.55-6.58,23.813-4.303c-26.548,10.118-53.497,19.605-81.46,24.826
		c-5.604,0.421-11.132-0.842-16.564-1.932c-4.208-1.071-9.104-1.607-11.82-5.394c-7.326-8.741-12.987-18.706-19.509-28.021
		c-7.192,5.011-9.793,13.828-14.938,20.58c-4.973,6.58-8.378,14.364-14.135,20.332c-5.585,0.593-11.151-0.478-16.659-1.167
		c-10.673-1.588-21.709-2.2-31.712-6.618c-7.192-3.156-14.402-6.35-21.977-8.531c-1.033-1.492-2.046-2.984-3.06-4.437
		c23.621,3.462,47.396,15.129,71.361,7.287c6.962-6.101,11.38-14.536,16.258-22.302c3.213-3.022,7.67-5.585,8.263-10.386
		C930.92,747.273,932.641,739.182,934.286,731.092z"/>
	<path fill="#151515" stroke="#151515" d="M920.898,781.184c5.145-6.752,7.746-15.569,14.938-20.58
		c6.522,9.315,12.184,19.28,19.509,28.021c2.716,3.787,7.612,4.323,11.82,5.394c5.432,1.09,10.96,2.353,16.564,1.932
		c27.963-5.222,54.913-14.708,81.46-24.826c8.167,0.822,14.804-5.528,22.914-4.992c2.601,10.94,2.486,22.206,3.768,33.319
		c0.096,3.29,3.653,4.112,6.14,5.164c0.765,7.019,2.295,13.924,3.634,20.848c1.989,17.271,4.17,34.543,6.847,51.719
		c0.708,5.757,1.416,11.533,1.894,17.329c-0.21,30.277-0.344,60.555,0.057,90.832c-0.096,7.765-0.287,15.531-0.191,23.315H823.409
		c-3.749-17.156-6.293-34.543-9.487-51.814c-5.642-28.958-7.918-58.413-12.241-87.581c-3.672-17.099,6.006-32.993,6.465-49.882
		c0.555-14.747,0.918-29.512,0.134-44.24c9.621,2.678,18.591,7.153,28.135,10.061c7.574,2.18,14.785,5.375,21.977,8.531
		c10.003,4.418,21.039,5.03,31.712,6.618c5.508,0.689,11.074,1.76,16.659,1.167C912.52,795.549,915.925,787.764,920.898,781.184z"/>
	<path fill="#F4D7C5" stroke="#F4D7C5" d="M1113.828,803.773c12.222-0.612,24.501-2.792,36.742-1.243
		c0.363,9.525,6.101,17.635,9.582,26.242c3.519,8.894,9.544,16.449,13.618,25.056c0.077,5.738-1.473,11.342-2.716,16.908
		c-0.536,1.128-1.607,3.366-2.142,4.476c-8.09-3.711-12.432-14.67-22.282-13.943c-1.358,0.019-4.055,0.038-5.394,0.057
		c-2.123,3.175-4.284,6.331-6.427,9.487c-6.273-2.659-12.222-6.082-16.946-11.017c0.593-13.828,0.191-27.772-3.844-41.084
		C1113.541,813.738,1113.618,808.746,1113.828,803.773z"/>
	<path fill="#205560" stroke="#205560" d="M1098.01,804.615c5.26-0.172,10.539-0.497,15.818-0.842
		c-0.21,4.973-0.287,9.965,0.191,14.938c-4.208,2.085-8.32,4.361-12.375,6.752C1100.305,818.539,1098.775,811.634,1098.01,804.615z"
		/>
	<path fill="#9D3E48" stroke="#9D3E48" d="M1101.644,825.462c4.055-2.391,8.167-4.667,12.375-6.752
		c4.036,13.312,4.437,27.255,3.844,41.084c-0.421,6.943-4.418,12.796-9.372,17.386
		C1105.814,860.005,1103.633,842.734,1101.644,825.462z"/>
	<path fill="#CDB6A8" stroke="#CDB6A8" d="M1117.864,859.795c4.724,4.935,10.673,8.358,16.946,11.017
		c2.142-3.156,4.304-6.312,6.427-9.487c1.339-0.019,4.036-0.038,5.394-0.057c9.85-0.727,14.192,10.233,22.282,13.943
		c0.536-1.109,1.607-3.347,2.142-4.476c-0.191,9.315,2.41,18.342,3.175,27.581c0.191,2.333-1.74,4.131-2.62,6.14
		c-4.82-8.301-9.391-16.755-14.613-24.788c-3.539-5.623-10.328-7.402-15.971-10.099c-5.91,4.074-11.992,8.071-16.851,13.427
		c-4.15,4.342-7.593,9.946-13.79,11.514c-0.478-5.795-1.186-11.572-1.894-17.329
		C1113.445,872.591,1117.443,866.738,1117.864,859.795z"/>
	<path fill="#A03C48" stroke="#A03C48" d="M1141.026,869.569c5.642,2.697,12.432,4.476,15.971,10.099
		c5.222,8.033,9.793,16.487,14.613,24.788c7.861,13.962,16.277,27.638,22.569,42.442c-12.987-0.44-21.001,10.654-29.187,18.935
		c-12.26,14.115-24.578,28.193-36.226,42.825h-2.601c-5.26-7.765-10.214-15.741-15.722-23.315
		c-0.402-30.277-0.268-60.555-0.057-90.832c6.197-1.568,9.64-7.172,13.79-11.514C1129.034,877.64,1135.116,873.642,1141.026,869.569
		z"/>
	<path fill="#DBDBDB" stroke="#DBDBDB" d="M1164.992,965.833c8.186-8.282,16.2-19.375,29.187-18.935
		c-15.971,21.192-33.567,41.141-50.284,61.76h-15.129C1140.414,994.025,1152.731,979.948,1164.992,965.833z"/>
	<path fill="#1F5560" stroke="#1F5560" d="M1110.442,985.342c5.509,7.574,10.462,15.55,15.722,23.315h-15.913
		C1110.156,1000.873,1110.347,993.107,1110.442,985.342z"/>
</g>
</svg>
