<?xml version="1.0" standalone="no"?>
<!DOCTYPE svg PUBLIC "-//W3C//DTD SVG 20010904//EN"
 "http://www.w3.org/TR/2001/REC-SVG-20010904/DTD/svg10.dtd">
<svg version="1.0" xmlns="http://www.w3.org/2000/svg"
 width="605.000000pt" height="605.000000pt" viewBox="0 0 605.000000 605.000000"
 preserveAspectRatio="xMidYMid meet">
<metadata>
Created by potrace 1.16, written by Peter Selinger 2001-2019
</metadata>
<g transform="translate(0.000000,605.000000) scale(0.100000,-0.100000)"
fill="#107bd7" stroke="none">
<path d="M5045 5678 c-138 -59 -369 -287 -589 -580 l-27 -36 257 -227 c141
-124 260 -223 264 -218 9 9 115 308 155 433 56 178 86 323 92 436 7 137 -4
180 -53 200 -42 17 -39 18 -99 -8z"/>
<path d="M2890 5483 c-426 -14 -863 -146 -1245 -376 -333 -200 -679 -546 -868
-869 -204 -346 -317 -684 -358 -1066 -15 -143 -6 -497 16 -642 62 -411 240
-840 477 -1154 76 -100 210 -256 275 -317 346 -332 824 -586 1268 -673 239
-47 282 -51 540 -50 273 0 395 14 635 74 718 179 1337 674 1671 1340 206 410
300 864 270 1305 -33 484 -171 898 -426 1279 -86 129 -191 260 -198 249 -3 -5
-28 -64 -55 -133 -271 -679 -804 -1842 -1284 -2800 -381 -762 -477 -930 -594
-1039 -78 -73 -122 -90 -189 -71 -54 15 -147 73 -225 139 -30 26 -154 130
-275 231 -477 398 -721 616 -980 875 -283 282 -451 491 -545 676 -91 178 -93
330 -7 393 37 27 157 28 237 2 220 -72 607 -337 1104 -756 82 -69 183 -154
225 -189 99 -84 188 -141 219 -141 37 0 90 29 123 69 36 42 163 300 385 781
459 996 870 1760 1240 2302 l93 137 -85 52 c-430 259 -934 389 -1444 372z"/>
</g>
</svg>
