<?xml version="1.0" standalone="no"?>
<!DOCTYPE svg PUBLIC "-//W3C//DTD SVG 20010904//EN"
 "http://www.w3.org/TR/2001/REC-SVG-20010904/DTD/svg10.dtd">
<svg version="1.0" xmlns="http://www.w3.org/2000/svg"
 width="1047.000000pt" height="195.000000pt" viewBox="0 0 1047.000000 195.000000"
 preserveAspectRatio="xMidYMid meet">
<metadata>
Created by potrace 1.16, written by Peter Selinger 2001-2019
</metadata>
<g transform="translate(0.000000,195.000000) scale(0.100000,-0.100000)"
fill="#ffffff" stroke="none">
<path d="M3700 1150 c0 -462 0 -463 60 -513 25 -22 41 -27 69 -25 34 3 36 5
39 41 3 33 0 38 -25 48 -15 5 -31 16 -35 22 -4 7 -8 200 -8 430 l0 417 -50 0
-50 0 0 -420z"/>
<path d="M5870 1090 l0 -480 45 0 45 0 0 233 c0 127 5 248 10 268 23 82 119
123 187 80 64 -40 68 -59 71 -333 l4 -248 44 0 44 0 0 248 c0 144 -5 263 -11
286 -13 46 -82 124 -126 142 -42 18 -151 17 -183 -1 -14 -8 -28 -14 -32 -15
-5 0 -8 68 -8 150 l0 150 -45 0 -45 0 0 -480z"/>
<path d="M635 1504 c-86 -47 -129 -119 -128 -216 0 -116 57 -179 241 -272 70
-35 129 -95 137 -140 19 -101 -80 -192 -189 -172 -78 15 -132 77 -143 166 l-6
51 -46 -3 -46 -3 4 -45 c8 -106 70 -202 155 -241 47 -22 148 -25 207 -7 52 15
117 73 140 122 25 56 25 155 0 204 -30 58 -98 116 -201 171 -120 64 -160 107
-160 170 0 106 110 174 197 121 40 -24 65 -61 72 -108 6 -36 7 -37 55 -40 l49
-3 -7 43 c-10 69 -56 148 -104 183 -38 26 -53 30 -120 33 -56 2 -85 -2 -107
-14z"/>
<path d="M1430 1065 l0 -455 245 0 245 0 0 45 0 45 -195 0 -195 0 0 150 0 150
195 0 195 0 0 45 0 45 -195 0 -195 0 0 170 0 170 195 0 195 0 0 45 0 45 -245
0 -245 0 0 -455z"/>
<path d="M4220 1475 l0 -45 110 0 110 0 0 -410 0 -410 50 0 50 0 0 410 0 410
110 0 110 0 0 45 0 45 -270 0 -270 0 0 -45z"/>
<path d="M2580 1365 c0 -63 -1 -65 -25 -65 -23 0 -25 -4 -25 -45 0 -41 2 -45
25 -45 l25 0 0 -212 c0 -118 5 -230 11 -251 13 -47 63 -106 106 -123 19 -8 69
-14 118 -14 l86 0 -3 43 -3 42 -78 5 c-73 5 -81 7 -108 38 l-29 32 0 220 0
220 85 0 85 0 0 45 0 45 -85 0 -85 0 0 65 0 65 -50 0 -50 0 0 -65z"/>
<path style="fill: #6699CC" d="M7559 1312 c-13 -9 -34 -29 -47 -44 l-23 -27 -37 19 c-64 32 -146 44
-216 30 -82 -16 -131 -43 -194 -106 -64 -64 -93 -127 -100 -215 -9 -131 47
-252 149 -321 156 -106 343 -84 473 56 99 106 113 309 31 430 -25 36 -25 39
-10 82 16 49 20 100 7 108 -5 3 -20 -2 -33 -12z m-54 -258 c-81 -186 -205
-424 -221 -424 -28 0 -183 131 -248 208 -42 52 -50 97 -13 87 26 -8 93 -53
158 -107 26 -21 54 -38 62 -38 10 0 46 61 100 173 47 94 99 194 117 221 l32
49 30 -30 30 -30 -47 -109z"/>
<path d="M2000 955 l0 -345 45 0 45 0 0 233 c0 127 5 248 10 268 31 111 171
130 232 30 22 -34 23 -47 26 -283 l4 -248 44 0 44 0 0 248 c0 144 -5 263 -11
286 -13 46 -82 124 -126 142 -42 18 -151 17 -183 -1 -32 -18 -40 -18 -40 0 0
11 -12 15 -45 15 l-45 0 0 -345z"/>
<path d="M3255 1275 c-52 -31 -83 -79 -91 -138 l-7 -47 45 0 c42 0 46 2 51 29
3 16 17 41 30 56 44 52 176 43 206 -13 5 -9 12 -31 15 -49 8 -35 22 -29 -172
-68 -137 -27 -181 -78 -182 -211 0 -88 26 -142 88 -187 39 -28 53 -32 120 -35
61 -3 85 1 115 16 36 19 37 19 37 1 0 -16 8 -19 46 -19 l45 0 -3 283 -3 284
-28 40 c-43 63 -89 83 -188 83 -71 0 -90 -4 -124 -25z m253 -387 c-5 -108 -21
-148 -72 -172 -43 -20 -79 -20 -123 1 -62 29 -90 107 -63 177 12 33 37 45 139
66 135 28 124 35 119 -72z"/>
<path d="M4863 1279 c-50 -25 -89 -67 -115 -127 -17 -38 -19 -63 -16 -211 3
-167 3 -168 33 -217 17 -26 50 -62 74 -79 40 -28 48 -30 136 -30 88 0 96 2
136 30 58 41 101 111 107 176 l5 50 -49 -3 c-48 -3 -49 -3 -56 -44 -10 -50
-57 -100 -108 -115 -50 -15 -96 0 -141 47 -31 32 -34 40 -37 109 l-4 75 196 0
196 0 0 88 c0 70 -5 97 -24 137 -25 54 -71 100 -123 122 -51 21 -160 17 -210
-8z m192 -99 c39 -24 65 -69 65 -114 l0 -36 -145 0 -145 0 0 38 c0 24 9 51 25
75 14 20 27 37 28 37 1 0 20 7 42 15 45 16 86 11 130 -15z"/>
<path d="M5433 1279 c-50 -25 -89 -67 -115 -127 -17 -38 -19 -63 -16 -211 3
-167 3 -168 33 -217 17 -26 50 -62 73 -79 37 -25 55 -30 117 -33 88 -5 129 7
182 53 74 63 109 196 54 203 -44 7 -71 -6 -71 -35 0 -66 -95 -142 -162 -129
-48 10 -94 43 -113 82 -14 29 -16 60 -13 182 3 128 6 150 23 174 47 62 132 80
196 40 41 -25 61 -55 69 -102 5 -34 7 -35 50 -35 43 0 45 1 48 32 7 72 -65
176 -144 209 -52 22 -161 18 -211 -7z"/>
<path d="M6400 955 l0 -345 45 0 45 0 0 233 c0 127 5 248 10 268 31 111 171
130 232 30 22 -34 23 -47 26 -283 l4 -248 44 0 44 0 0 248 c0 144 -5 263 -11
286 -13 46 -82 124 -126 142 -42 18 -151 17 -183 -1 -32 -18 -40 -18 -40 0 0
11 -12 15 -45 15 l-45 0 0 -345z"/>
<path d="M7875 1283 c-44 -23 -84 -63 -108 -108 -20 -37 -22 -55 -22 -220 0
-156 2 -185 19 -215 47 -89 113 -130 211 -130 80 0 128 22 178 80 47 55 57
103 57 265 0 75 -5 156 -11 180 -13 53 -67 119 -120 145 -48 25 -160 27 -204
3z m172 -94 c57 -35 63 -59 63 -236 0 -179 -8 -206 -73 -236 -62 -30 -115 -18
-167 38 -25 26 -25 29 -25 200 l0 174 30 31 c17 18 39 36 50 40 36 15 87 10
122 -11z"/>
<path d="M8419 1280 c-49 -26 -106 -91 -118 -137 -14 -50 -14 -327 0 -377 13
-45 76 -118 123 -140 43 -20 145 -21 193 -1 19 8 37 15 39 15 10 0 2 -158 -9
-180 -7 -13 -28 -35 -47 -48 -29 -20 -44 -23 -93 -20 -49 4 -63 9 -89 36 -28
27 -33 40 -36 97 l-4 65 -44 0 -44 0 0 -70 c0 -51 6 -82 20 -109 66 -129 255
-162 369 -65 68 58 68 63 72 414 1 173 2 366 1 428 l-2 112 -45 0 c-37 0 -45
-3 -45 -19 0 -18 -1 -18 -37 0 -50 26 -155 25 -204 -1z m177 -95 c55 -36 64
-67 64 -230 0 -131 -3 -154 -20 -182 -41 -67 -114 -89 -177 -53 -67 37 -73 57
-73 235 0 177 6 197 69 234 41 25 96 23 137 -4z"/>
<path d="M9155 1281 c-50 -22 -108 -86 -126 -137 -10 -27 -14 -89 -14 -199 0
-144 2 -164 22 -200 27 -52 78 -100 125 -119 48 -20 148 -20 196 0 77 32 139
116 144 196 l3 43 -46 3 -46 3 -7 -41 c-4 -28 -18 -52 -45 -79 -63 -63 -138
-64 -201 -1 -38 38 -50 72 -50 146 l0 44 201 0 202 0 -5 93 c-7 131 -50 205
-143 248 -53 25 -156 25 -210 0z m184 -100 c39 -28 62 -65 68 -109 l6 -42
-152 0 -151 0 0 25 c0 60 50 127 106 145 38 12 93 3 123 -19z"/>
<path d="M9715 1281 c-86 -53 -117 -148 -76 -236 23 -50 36 -62 140 -122 95
-54 124 -87 123 -135 -2 -74 -105 -115 -166 -67 -32 25 -56 69 -56 104 0 23
-3 25 -45 25 -44 0 -45 0 -45 -34 0 -75 46 -153 110 -186 53 -27 147 -27 200
0 22 11 52 39 67 62 23 34 28 53 28 104 0 82 -33 131 -125 184 -126 74 -145
91 -148 138 -4 54 30 92 82 92 40 0 80 -40 91 -90 6 -29 9 -31 48 -28 l42 3
-2 39 c-3 50 -44 119 -87 145 -44 28 -138 29 -181 2z"/>
<path d="M2980 946 l0 -336 50 0 50 0 -2 333 -3 332 -47 3 -48 3 0 -335z"/>
<path d="M8850 945 l0 -335 45 0 45 0 0 335 0 335 -45 0 -45 0 0 -335z"/>
<path d="M1120 915 l0 -45 145 0 145 0 0 45 0 45 -145 0 -145 0 0 -45z"/>
</g>
</svg>
